<?xml version="1.0" encoding="UTF-8"?>
<svg width="135px" height="40px" viewBox="0 0 135 40" version="1.1" xmlns="http://www.w3.org/2000/svg" xmlns:xlink="http://www.w3.org/1999/xlink">
    <!-- Generator: Sketch 50.2 (55047) - http://www.bohemiancoding.com/sketch -->
    <title>Group</title>
    <desc>Created with Sketch.</desc>
    <defs></defs>
    <g id="Page-1" stroke="none" stroke-width="1" fill="none" fill-rule="evenodd">
        <g id="Group">
            <g id="appleStore" fill-rule="nonzero">
                <path d="M130.197,40 L4.729,40 C2.122,40 0,37.872 0,35.267 L0,4.726 C0,2.12 2.122,0 4.729,0 L130.197,0 C132.803,0 135,2.12 135,4.726 L135,35.267 C135,37.872 132.803,40 130.197,40 Z" id="Shape" fill="#E9E9E9"></path>
                <path d="M134.032,35.268 C134.032,37.384 132.318,39.098 130.198,39.098 L4.729,39.098 C2.61,39.098 0.89,37.384 0.89,35.268 L0.89,4.725 C0.89,2.61 2.61,0.89 4.729,0.89 L130.197,0.89 C132.318,0.89 134.031,2.61 134.031,4.725 L134.032,35.268 Z" id="Shape" fill="#000000"></path>
                <g id="Shape" transform="translate(12.000000, 6.000000)" fill="#FFFFFF">
                    <path d="M18.128,13.784 C18.099,10.561 20.767,8.993 20.889,8.92 C19.378,6.717 17.036,6.416 16.213,6.392 C14.246,6.185 12.338,7.569 11.336,7.569 C10.314,7.569 8.771,6.412 7.108,6.446 C4.968,6.479 2.966,7.718 1.868,9.642 C-0.398,13.565 1.292,19.33 3.463,22.501 C4.549,24.054 5.818,25.788 7.479,25.727 C9.104,25.66 9.711,24.691 11.672,24.691 C13.615,24.691 14.185,25.727 15.879,25.688 C17.623,25.66 18.721,24.128 19.769,22.561 C21.024,20.781 21.528,19.028 21.548,18.938 C21.507,18.924 18.161,17.647 18.128,13.784 Z"></path>
                    <path d="M14.928,4.306 C15.802,3.213 16.4,1.726 16.234,0.217 C14.969,0.273 13.387,1.092 12.476,2.161 C11.67,3.103 10.95,4.647 11.136,6.099 C12.557,6.205 14.016,5.382 14.928,4.306 Z"></path>
                </g>
                <g id="Shape" transform="translate(42.000000, 18.000000)" fill="#FFFFFF">
                    <path d="M11.645,13.504 L9.374,13.504 L8.13,9.595 L3.806,9.595 L2.621,13.504 L0.41,13.504 L4.694,0.196 L7.34,0.196 L11.645,13.504 Z M7.755,7.955 L6.63,4.48 C6.511,4.125 6.288,3.289 5.959,1.973 L5.919,1.973 C5.788,2.539 5.577,3.375 5.287,4.48 L4.182,7.955 L7.755,7.955 Z"></path>
                    <path d="M22.662,8.588 C22.662,10.22 22.221,11.51 21.339,12.457 C20.549,13.3 19.568,13.721 18.397,13.721 C17.133,13.721 16.225,13.267 15.672,12.359 L15.632,12.359 L15.632,17.414 L13.5,17.414 L13.5,7.067 C13.5,6.041 13.473,4.988 13.421,3.908 L15.296,3.908 L15.415,5.429 L15.455,5.429 C16.166,4.283 17.245,3.711 18.693,3.711 C19.825,3.711 20.77,4.158 21.526,5.053 C22.284,5.949 22.662,7.127 22.662,8.588 Z M20.49,8.666 C20.49,7.732 20.28,6.962 19.858,6.356 C19.397,5.724 18.778,5.408 18.002,5.408 C17.476,5.408 16.998,5.584 16.571,5.931 C16.143,6.281 15.863,6.738 15.732,7.304 C15.666,7.568 15.633,7.784 15.633,7.954 L15.633,9.554 C15.633,10.252 15.847,10.841 16.275,11.322 C16.703,11.803 17.259,12.043 17.943,12.043 C18.746,12.043 19.371,11.733 19.818,11.115 C20.266,10.496 20.49,9.68 20.49,8.666 Z"></path>
                    <path d="M33.699,8.588 C33.699,10.22 33.258,11.51 32.375,12.457 C31.586,13.3 30.605,13.721 29.434,13.721 C28.17,13.721 27.262,13.267 26.71,12.359 L26.67,12.359 L26.67,17.414 L24.538,17.414 L24.538,7.067 C24.538,6.041 24.511,4.988 24.459,3.908 L26.334,3.908 L26.453,5.429 L26.493,5.429 C27.203,4.283 28.282,3.711 29.731,3.711 C30.862,3.711 31.807,4.158 32.565,5.053 C33.32,5.949 33.699,7.127 33.699,8.588 Z M31.527,8.666 C31.527,7.732 31.316,6.962 30.894,6.356 C30.433,5.724 29.816,5.408 29.039,5.408 C28.512,5.408 28.035,5.584 27.607,5.931 C27.179,6.281 26.9,6.738 26.769,7.304 C26.704,7.568 26.67,7.784 26.67,7.954 L26.67,9.554 C26.67,10.252 26.884,10.841 27.31,11.322 C27.738,11.802 28.294,12.043 28.98,12.043 C29.783,12.043 30.408,11.733 30.855,11.115 C31.303,10.496 31.527,9.68 31.527,8.666 Z"></path>
                    <path d="M46.039,9.772 C46.039,10.904 45.646,11.825 44.857,12.536 C43.99,13.313 42.783,13.701 41.232,13.701 C39.8,13.701 38.652,13.425 37.783,12.872 L38.277,11.095 C39.213,11.661 40.24,11.945 41.359,11.945 C42.162,11.945 42.787,11.763 43.236,11.401 C43.683,11.039 43.906,10.553 43.906,9.947 C43.906,9.407 43.722,8.952 43.353,8.583 C42.986,8.214 42.373,7.871 41.517,7.554 C39.187,6.685 38.023,5.412 38.023,3.738 C38.023,2.644 38.431,1.747 39.248,1.049 C40.062,0.35 41.148,0.001 42.506,0.001 C43.717,0.001 44.723,0.212 45.526,0.633 L44.993,2.371 C44.243,1.963 43.395,1.759 42.446,1.759 C41.696,1.759 41.11,1.944 40.69,2.312 C40.335,2.641 40.157,3.042 40.157,3.517 C40.157,4.043 40.36,4.478 40.768,4.82 C41.123,5.136 41.768,5.478 42.704,5.847 C43.849,6.308 44.69,6.847 45.231,7.465 C45.77,8.081 46.039,8.852 46.039,9.772 Z"></path>
                    <path d="M53.088,5.508 L50.738,5.508 L50.738,10.167 C50.738,11.352 51.152,11.944 51.982,11.944 C52.363,11.944 52.679,11.911 52.929,11.845 L52.988,13.464 C52.568,13.621 52.015,13.7 51.33,13.7 C50.488,13.7 49.83,13.443 49.355,12.93 C48.882,12.416 48.644,11.554 48.644,10.343 L48.644,5.506 L47.244,5.506 L47.244,3.906 L48.644,3.906 L48.644,2.149 L50.738,1.517 L50.738,3.906 L53.088,3.906 L53.088,5.508 Z"></path>
                    <path d="M63.691,8.627 C63.691,10.102 63.269,11.313 62.427,12.26 C61.544,13.235 60.372,13.721 58.911,13.721 C57.503,13.721 56.382,13.254 55.546,12.32 C54.71,11.386 54.292,10.207 54.292,8.786 C54.292,7.299 54.722,6.081 55.585,5.134 C56.446,4.186 57.608,3.712 59.069,3.712 C60.477,3.712 61.61,4.179 62.465,5.114 C63.283,6.021 63.691,7.192 63.691,8.627 Z M61.479,8.696 C61.479,7.811 61.29,7.052 60.907,6.419 C60.46,5.653 59.821,5.271 58.993,5.271 C58.136,5.271 57.485,5.654 57.038,6.419 C56.655,7.053 56.466,7.824 56.466,8.736 C56.466,9.621 56.655,10.38 57.038,11.012 C57.499,11.778 58.143,12.16 58.974,12.16 C59.788,12.16 60.427,11.77 60.888,10.992 C61.281,10.347 61.479,9.58 61.479,8.696 Z"></path>
                    <path d="M70.621,5.783 C70.41,5.744 70.185,5.724 69.949,5.724 C69.199,5.724 68.619,6.007 68.211,6.574 C67.856,7.074 67.678,7.706 67.678,8.469 L67.678,13.504 L65.547,13.504 L65.567,6.93 C65.567,5.824 65.54,4.817 65.487,3.909 L67.344,3.909 L67.422,5.745 L67.481,5.745 C67.706,5.114 68.061,4.606 68.547,4.225 C69.022,3.882 69.535,3.711 70.088,3.711 C70.285,3.711 70.463,3.725 70.621,3.75 L70.621,5.783 Z"></path>
                    <path d="M80.156,8.252 C80.156,8.634 80.131,8.956 80.078,9.219 L73.682,9.219 C73.707,10.167 74.016,10.892 74.61,11.392 C75.149,11.839 75.846,12.063 76.702,12.063 C77.649,12.063 78.513,11.912 79.29,11.609 L79.624,13.089 C78.716,13.485 77.644,13.682 76.407,13.682 C74.919,13.682 73.751,13.244 72.901,12.369 C72.053,11.494 71.628,10.319 71.628,8.845 C71.628,7.398 72.023,6.193 72.814,5.232 C73.642,4.206 74.761,3.693 76.169,3.693 C77.552,3.693 78.599,4.206 79.31,5.232 C79.873,6.047 80.156,7.055 80.156,8.252 Z M78.123,7.699 C78.137,7.067 77.998,6.521 77.709,6.06 C77.34,5.467 76.773,5.171 76.01,5.171 C75.313,5.171 74.746,5.46 74.313,6.04 C73.958,6.501 73.747,7.054 73.682,7.698 L78.123,7.698 L78.123,7.699 Z"></path>
                </g>
            </g>
            <rect id="Rectangle" fill="#DFA126" x="56" y="3" width="76" height="13" rx="2"></rect>
            <path d="M61.605957,8.82128906 L61.605957,9.89550781 C61.605957,11.6035156 62.4116211,12.3769531 63.6254883,12.3769531 C64.8071289,12.3769531 65.4194336,11.6518555 65.4194336,10.8354492 L66.2680664,10.8354492 C66.2680664,11.8344727 65.4677734,13.1557617 63.5878906,13.1557617 C61.8637695,13.1557617 60.7519531,12.0493164 60.7519531,9.90625 L60.7519531,8.80517578 C60.7519531,6.70507812 61.8852539,5.51269531 63.5986328,5.51269531 C65.387207,5.51269531 66.2680664,6.80175781 66.2680664,7.96728516 L65.4194336,7.96728516 C65.4194336,7.16162109 64.7856445,6.29150391 63.5986328,6.29150391 C62.4223633,6.29150391 61.605957,7.14013672 61.605957,8.82128906 Z M70.0708008,7.27441406 C71.4296875,7.27441406 72.4609375,8.16601562 72.4609375,9.734375 L72.4609375,10.6259766 C72.4609375,12.1943359 71.4296875,13.0913086 70.0708008,13.0913086 C68.6850586,13.0913086 67.675293,12.2104492 67.675293,10.6259766 L67.675293,9.734375 C67.675293,8.22509766 68.706543,7.27441406 70.0708008,7.27441406 Z M70.0761719,8.02099609 C69.1362305,8.02099609 68.5185547,8.75146484 68.5185547,9.83105469 L68.5185547,10.5400391 C68.5185547,11.6464844 69.0986328,12.3447266 70.0761719,12.3447266 C71.0483398,12.3447266 71.6176758,11.6464844 71.6176758,10.5400391 L71.6176758,9.83105469 C71.6176758,8.75146484 71.0214844,8.02099609 70.0761719,8.02099609 Z M74.1582031,13 L74.1582031,7.36572266 L75.0014648,7.36572266 L75.0014648,8.25195312 L75.0444336,8.25195312 C75.1787109,7.85986328 75.527832,7.27441406 76.5698242,7.27441406 C77.4238281,7.27441406 77.9609375,7.73095703 78.1435547,8.33251953 L78.1811523,8.33251953 C78.4174805,7.77392578 78.9492188,7.27441406 79.8999023,7.27441406 C81.0600586,7.27441406 81.769043,7.89208984 81.769043,9.02539062 L81.769043,13 L80.9257812,13 L80.9257812,9.25097656 C80.9257812,8.53125 80.512207,8.02099609 79.6958008,8.02099609 C78.9545898,8.02099609 78.3852539,8.59570312 78.3852539,9.38525391 L78.3852539,13 L77.5419922,13 L77.5419922,9.29394531 C77.5419922,8.55810547 77.074707,8.02099609 76.2851562,8.02099609 C75.5332031,8.02099609 75.0014648,8.59033203 75.0014648,9.37451172 L75.0014648,13 L74.1582031,13 Z M83.8637695,13 L83.8637695,7.36572266 L84.7070312,7.36572266 L84.7070312,13 L83.8637695,13 Z M83.6489258,5.609375 C83.6489258,5.23876953 83.9282227,4.97021484 84.2773438,4.97021484 C84.6479492,4.97021484 84.921875,5.23876953 84.921875,5.609375 C84.921875,5.96923828 84.6479492,6.23779297 84.2773438,6.23779297 C83.9282227,6.23779297 83.6489258,5.96923828 83.6489258,5.609375 Z M86.8286133,13 L86.8286133,7.36572266 L87.671875,7.36572266 L87.671875,8.39697266 L87.7148438,8.39697266 C87.8598633,7.95117188 88.2358398,7.27441406 89.4335938,7.27441406 C90.5722656,7.27441406 91.3564453,7.88134766 91.3564453,9.1328125 L91.3564453,13 L90.5131836,13 L90.5131836,9.41210938 C90.5131836,8.50976562 90.0512695,8.02099609 89.2348633,8.02099609 C88.1713867,8.02099609 87.671875,8.84277344 87.671875,9.85791016 L87.671875,13 L86.8286133,13 Z M95.2719727,14.3696289 C96.3139648,14.3696289 96.8295898,13.8056641 96.8295898,12.8818359 L96.8295898,12.0170898 L96.78125,12.0170898 C96.5556641,12.5004883 95.9755859,12.8979492 95.1967773,12.8979492 C93.9453125,12.8979492 92.9462891,12.0170898 92.9462891,10.5668945 L92.9462891,9.61621094 C92.9462891,8.16601562 93.9399414,7.27441406 95.1914062,7.27441406 C96.0400391,7.27441406 96.6469727,7.76318359 96.8349609,8.20898438 L96.8725586,8.20898438 L96.8725586,7.36572266 L97.6728516,7.36572266 L97.6728516,12.8657227 C97.6728516,14.4072266 96.7167969,15.1162109 95.234375,15.1162109 C93.8164062,15.1162109 93.1557617,14.4233398 93.0698242,13.6015625 L93.9506836,13.6015625 C94.0258789,14.0151367 94.4931641,14.3696289 95.2719727,14.3696289 Z M95.3579102,8.02099609 C94.3857422,8.02099609 93.7895508,8.75146484 93.7895508,9.81494141 L93.7895508,10.3681641 C93.7895508,11.4262695 94.4448242,12.1513672 95.3686523,12.1513672 C96.3193359,12.1513672 96.8295898,11.3671875 96.8295898,10.5561523 L96.8295898,9.6484375 C96.8295898,8.81591797 96.2871094,8.02099609 95.3579102,8.02099609 Z M101.523926,11.0395508 L102.388672,11.0395508 C102.463867,11.7753906 103.086914,12.3769531 104.241699,12.3769531 C105.283691,12.3769531 105.96582,11.8720703 105.96582,11.0395508 C105.96582,10.4165039 105.584473,10.0566406 104.757324,9.84179688 L103.441406,9.49267578 C102.592773,9.26708984 101.749512,8.71923828 101.749512,7.5859375 C101.749512,6.22167969 102.979492,5.49121094 104.257812,5.49121094 C105.455566,5.49121094 106.733887,6.11962891 106.766113,7.56445312 L105.906738,7.56445312 C105.836914,6.83398438 105.289062,6.27001953 104.236328,6.27001953 C103.307129,6.27001953 102.619629,6.71582031 102.619629,7.52685547 C102.619629,8.06396484 102.947266,8.46679688 103.65625,8.64941406 L104.945312,8.99853516 C106.078613,9.3046875 106.841309,9.82568359 106.841309,10.9804688 C106.841309,12.425293 105.62207,13.1557617 104.134277,13.1557617 C102.222168,13.1557617 101.556152,11.9794922 101.523926,11.0395508 Z M110.601074,7.27441406 C111.959961,7.27441406 112.991211,8.16601562 112.991211,9.734375 L112.991211,10.6259766 C112.991211,12.1943359 111.959961,13.0913086 110.601074,13.0913086 C109.215332,13.0913086 108.205566,12.2104492 108.205566,10.6259766 L108.205566,9.734375 C108.205566,8.22509766 109.236816,7.27441406 110.601074,7.27441406 Z M110.606445,8.02099609 C109.666504,8.02099609 109.048828,8.75146484 109.048828,9.83105469 L109.048828,10.5400391 C109.048828,11.6464844 109.628906,12.3447266 110.606445,12.3447266 C111.578613,12.3447266 112.147949,11.6464844 112.147949,10.5400391 L112.147949,9.83105469 C112.147949,8.75146484 111.551758,8.02099609 110.606445,8.02099609 Z M116.804688,7.27441406 C118.163574,7.27441406 119.194824,8.16601562 119.194824,9.734375 L119.194824,10.6259766 C119.194824,12.1943359 118.163574,13.0913086 116.804688,13.0913086 C115.418945,13.0913086 114.40918,12.2104492 114.40918,10.6259766 L114.40918,9.734375 C114.40918,8.22509766 115.44043,7.27441406 116.804688,7.27441406 Z M116.810059,8.02099609 C115.870117,8.02099609 115.252441,8.75146484 115.252441,9.83105469 L115.252441,10.5400391 C115.252441,11.6464844 115.83252,12.3447266 116.810059,12.3447266 C117.782227,12.3447266 118.351562,11.6464844 118.351562,10.5400391 L118.351562,9.83105469 C118.351562,8.75146484 117.755371,8.02099609 116.810059,8.02099609 Z M120.89209,13 L120.89209,7.36572266 L121.735352,7.36572266 L121.735352,8.39697266 L121.77832,8.39697266 C121.92334,7.95117188 122.299316,7.27441406 123.49707,7.27441406 C124.635742,7.27441406 125.419922,7.88134766 125.419922,9.1328125 L125.419922,13 L124.57666,13 L124.57666,9.41210938 C124.57666,8.50976562 124.114746,8.02099609 123.29834,8.02099609 C122.234863,8.02099609 121.735352,8.84277344 121.735352,9.85791016 L121.735352,13 L120.89209,13 Z M127.170898,12.3769531 C127.170898,11.9526367 127.493164,11.6411133 127.885254,11.6411133 C128.30957,11.6411133 128.626465,11.9526367 128.626465,12.3769531 C128.626465,12.7797852 128.30957,13.0913086 127.885254,13.0913086 C127.493164,13.0913086 127.170898,12.7797852 127.170898,12.3769531 Z M127.417969,5.66845703 L128.379395,5.66845703 L128.271973,10.3574219 L127.525391,10.3574219 L127.417969,5.66845703 Z" id="Coming-Soon!" fill="#000000"></path>
        </g>
    </g>
</svg>