<?xml version="1.0" encoding="UTF-8"?>
<svg width="95px" height="66px" viewBox="0 0 95 66" version="1.1" xmlns="http://www.w3.org/2000/svg" xmlns:xlink="http://www.w3.org/1999/xlink">
    <!-- Generator: Sketch 50.2 (55047) - http://www.bohemiancoding.com/sketch -->
    <title>hotel</title>
    <desc>Created with Sketch.</desc>
    <defs></defs>
    <g id="Page-1" stroke="none" stroke-width="1" fill="none" fill-rule="evenodd">
        <g id="026_interior_furniture_double_bed_sleep-512.png" transform="translate(1.000000, 1.000000)" fill="#000000" fill-rule="nonzero" stroke="#000000" stroke-width="1.7">
            <path d="M1.8164027,64 C1.21099568,64 0.605407021,64 0,64 C0,56.0745475 0,48.1489162 0,40.2234637 C0.0668436194,40.0300335 0.165292646,39.8412514 0.195444931,39.6426369 C0.702947846,36.3128492 2.44869248,33.7768045 5.36692506,32.0740112 C6.0923963,31.6506816 6.25914207,31.2030391 6.25641747,30.4538101 C6.23280423,23.9669274 6.21409528,17.4796872 6.25223974,10.9929832 C6.28366351,5.6252067 9.60295781,1.51293855 14.769352,0.318212291 C15.2345327,0.210592179 15.70044,0.106011173 16.1659841,0 C36.3885403,0 56.6110965,0 76.8338343,0 C77.0628827,0.0670391061 77.2875717,0.16572067 77.521706,0.195932961 C79.2665424,0.421184358 80.847721,1.05778771 82.2543433,2.08143017 C85.3838235,4.35825698 86.7666508,7.47584358 86.7606567,11.2573855 C86.7506665,17.7149497 86.767559,24.1726927 86.7368618,30.6300782 C86.7335923,31.3204916 86.9602794,31.6692737 87.5609637,32.0139441 C90.3157201,33.5949944 92.0171445,35.959419 92.7179127,39.0214078 C92.8098226,39.4225698 92.9059103,39.8226592 93,40.2234637 C93,48.1489162 93,56.0745475 93,64 C92.3944113,64 91.789186,64 91.1835973,64 C90.238523,63.5838212 89.8821448,62.8808939 89.9370001,61.8577877 C90.0065683,60.5608045 89.9538927,54.3343086 89.9538927,53.0162303 C60.9232365,53.0162303 32.0142793,53.0162303 3.04320109,53.0162303 C3.04320109,54.3752471 2.99288673,60.5786816 3.05918543,61.8531397 C3.11186111,62.8715978 2.7591157,63.580067 1.8164027,64 Z M83.730897,31.5276425 C83.7476079,31.2351732 83.7724926,31.0004469 83.7724926,30.7657207 C83.7726743,24.3909274 83.7893852,18.0161341 83.7617759,11.6413408 C83.7434302,7.37425698 80.2964428,4.00102793 75.9485196,3.99852514 C56.3053959,3.98690503 36.6622721,3.98690503 17.0191484,3.99888268 C12.6924772,4.00156425 9.24875928,7.39839106 9.23168509,11.6747709 C9.20661874,17.989676 9.22478276,24.3049385 9.22805229,30.6203799 C9.22823393,30.9344804 9.26201902,31.2487598 9.27491548,31.4722235 C11.1142049,31.4722235 12.835973,31.4722235 14.5433915,31.4722235 C14.5539267,31.3093631 14.5637352,31.2780782 14.5564696,31.2516201 C14.5172353,31.1091397 14.4754581,30.9673743 14.4311378,30.8265028 C13.5167607,27.9227263 14.1009158,25.3528939 16.2651596,23.1788603 C18.3832668,21.0511285 20.5173584,18.9373408 22.6912291,16.8653855 C25.6110965,14.0822793 30.0801737,14.0363352 33.0216562,16.793162 C35.3003334,18.9291173 37.507626,21.1403352 39.7060182,23.3572737 C41.1442458,24.8076425 41.8648128,26.5853408 41.7362115,28.6231508 C41.67736,29.5561564 41.4441339,30.4784358 41.2793862,31.4693631 C44.7636098,31.4693631 48.2596401,31.4693631 51.7371431,31.4693631 C51.760393,31.3381453 51.7756508,31.3070391 51.7687485,31.2816536 C51.7144381,31.0816089 51.6577663,30.8821006 51.5983699,30.6833073 C50.7619165,27.877676 51.3048392,25.3688045 53.3764465,23.2616313 C55.5016377,21.0995754 57.6684245,18.975419 59.8615491,16.8802235 C62.8024867,14.0703017 67.3042592,14.0381229 70.2619077,16.8303464 C72.532956,18.9743464 74.760229,21.1664358 76.9377325,23.402324 C78.6812975,25.1927151 79.3083197,27.3678212 78.8146215,29.8223464 C78.7060006,30.3629497 78.558872,30.8962235 78.4066574,31.528 C80.2197906,31.5276425 81.9293888,31.5276425 83.730897,31.5276425 Z M65.0250371,30.5664358 C67.989043,30.5664358 70.9535938,30.5501676 73.9175998,30.5785922 C74.5807684,30.5850279 74.9825567,30.327419 75.3153216,29.7996872 C76.4245988,28.0396872 76.2157125,25.8206034 74.6964732,24.2960447 C72.5787293,22.1704581 70.4400968,20.0645363 68.2724018,17.988648 C66.5357392,16.3255419 63.7724458,16.2635084 62.0245214,17.9065922 C59.7503853,20.044514 57.5283798,22.2389274 55.3503313,24.4719553 C53.9464337,25.9112402 53.8109301,28.1002905 54.8464612,29.7658994 C55.1908512,30.3199106 55.6097137,30.5889609 56.313933,30.5800223 C59.2172711,30.542838 62.1213357,30.5644693 65.0250371,30.5664358 Z M27.8821448,30.5644693 C30.7856645,30.5714413 33.6899108,30.5440894 36.5927039,30.5898547 C37.3730305,30.6020112 37.8253148,30.3084693 38.1927731,29.6854525 C39.2050543,27.9690726 38.9798204,25.7923575 37.5276064,24.3298324 C35.4349288,22.2224804 33.3177298,20.1376536 31.1756461,18.0785698 C29.2949428,16.270838 26.53837,16.2563575 24.6516726,18.0576536 C22.5026865,20.1094078 20.4002004,22.2088939 18.2908119,24.300514 C17.186984,25.3949497 16.8349652,26.7475307 17.0554765,28.2422346 C17.3074115,29.9494972 18.0632167,30.5651844 19.8064183,30.564648 C22.4983272,30.563933 25.190236,30.5644693 27.8821448,30.5644693 Z" id="hotel"></path>
        </g>
    </g>
</svg>