<?xml version="1.0" encoding="UTF-8"?>
<svg width="26px" height="28px" viewBox="0 0 26 28" version="1.1" xmlns="http://www.w3.org/2000/svg" xmlns:xlink="http://www.w3.org/1999/xlink">
    <!-- Generator: Sketch 46.2 (44496) - http://www.bohemiancoding.com/sketch -->
    <title>Group 9</title>
    <desc>Created with Sketch.</desc>
    <defs></defs>
    <g id="Page-2-Copy" stroke="none" stroke-width="1" fill="none" fill-rule="evenodd">
        <g id="Desktop" transform="translate(-1144.000000, -320.000000)">
            <g id="Group-9" transform="translate(1144.000000, 320.000000)">
                <g id="Group-7">
                    <path d="M2.67272727,-3.55271368e-14 L18.3272727,-3.55271368e-14 C19.8033792,-3.55271368e-14 21,1.20538721 21,2.69230769 L21,22.3076923 C21,23.7946128 19.8033792,25 18.3272727,25 L2.67272727,25 C1.19662076,25 -9.59232693e-14,23.7946128 -9.59232693e-14,22.3076923 L-9.59232693e-14,2.69230769 C-9.59232693e-14,1.20538721 1.19662076,-3.55271368e-14 2.67272727,-3.55271368e-14 Z M2.67272727,1.15384615 C1.82923784,1.15384615 1.14545455,1.84263885 1.14545455,2.69230769 L1.14545455,22.3076923 C1.14545455,23.1573612 1.82923784,23.8461538 2.67272727,23.8461538 L18.3272727,23.8461538 C19.1707622,23.8461538 19.8545455,23.1573612 19.8545455,22.3076923 L19.8545455,2.69230769 C19.8545455,1.84263885 19.1707622,1.15384615 18.3272727,1.15384615 L2.67272727,1.15384615 Z" id="Rectangle" fill="#B9B0DE" fill-rule="nonzero"></path>
                    <path d="M24.4296843,22.6069848 C24.4296843,22.4267943 24.4897478,22.2466038 24.4897478,22.0063498 C24.4897478,21.7660958 24.4897478,21.5859053 24.4296843,21.4057148 L25.6910177,20.3846353 C25.8111447,20.2645083 25.8111447,20.1443813 25.7510812,20.0242544 L24.5498113,17.9220319 C24.4897478,17.8619684 24.3696208,17.8019049 24.1894303,17.8619684 L22.6878428,18.4626034 C22.3875253,18.2223494 22.0271443,18.0421589 21.6667634,17.8619684 L21.4265094,16.3003175 C21.4865729,16.120127 21.3063824,16 21.1862554,16 L18.7837155,16 C18.6635885,16 18.483398,16.120127 18.483398,16.240254 L18.243144,17.8619684 C17.882763,17.9820954 17.5824455,18.2223494 17.2220645,18.4626034 L15.7805406,17.8619684 C15.6003501,17.8019049 15.4802231,17.8619684 15.3600961,17.9820954 L14.1588261,20.0843178 C14.0987626,20.1443813 14.1588261,20.3245718 14.2789531,20.4446988 L15.5402866,21.4057148 C15.5402866,21.5859053 15.4802231,21.7660958 15.4802231,22.0063498 C15.4802231,22.2466038 15.4802231,22.4267943 15.5402866,22.6069848 L14.2789531,23.6280642 C14.1588261,23.7481912 14.1588261,23.8683182 14.2188896,23.9884452 L15.4201596,26.0906676 C15.4802231,26.1507311 15.6003501,26.2107946 15.7805406,26.1507311 L17.282128,25.5500961 C17.5824455,25.7903501 17.9428265,25.9705406 18.3032075,26.1507311 L18.5434615,27.7123821 C18.5434615,27.8325091 18.6635885,27.9526361 18.843779,27.9526361 L21.2463189,27.9526361 C21.3664459,27.9526361 21.5466364,27.8325091 21.5466364,27.7123821 L21.7868904,26.1507311 C22.1472713,25.9705406 22.5076523,25.7903501 22.8079698,25.5500961 L24.3095573,26.1507311 C24.4296843,26.2107946 24.6098747,26.1507311 24.6699382,26.0306041 L25.8712082,23.9283817 C25.9312717,23.8082547 25.9312717,23.6280642 25.8111447,23.5680007 L24.4296843,22.6069848 L24.4296843,22.6069848 Z" id="Path" fill="#5C5376"></path>
                    <path d="M17.37119,19.8705516 C17.3473318,19.8944098 17.3026547,19.9255484 17.2260431,19.9510856 C17.1208903,19.9861366 17.0148705,19.9835507 16.9352367,19.9570061 L17.0658387,19.5652003 L17.37119,19.8705516 Z M16.6117654,23.7412056 C16.6993735,23.9164218 16.6671441,24.1742572 16.5186391,24.3227623 L16.1619768,23.9661 L16.6117654,23.7412056 Z M16.9352367,25.0702053 C17.0866459,25.0197356 17.2834725,25.0689422 17.418554,25.2040237 L17.0895207,25.5330571 L16.9352367,25.0702053 Z M23.5114507,25.3515797 L23.5275214,25.3215513 C23.5219359,25.3313195 23.5165755,25.3413301 23.5114507,25.3515797 Z M24.3640017,21.2860058 C24.2763936,21.1107896 24.308623,20.8529542 24.457128,20.7044492 L24.8137903,21.0611115 L24.3640017,21.2860058 Z M24.0405304,19.9570061 C23.8891212,20.0074758 23.6922946,19.9582692 23.5572131,19.8231877 L23.8862465,19.4941544 L24.0405304,19.9570061 Z M18.3911925,20.5658207 L16.883946,19.9378014 L17.1724076,19.2454937 L17.0658387,19.5652003 L16.84086,19.3402215 L17.4920423,19.7123257 L16.7863488,20.9472894 L17.7329518,21.6685107 L17.7329518,22.0399663 C17.7329518,22.1520446 17.7267106,22.2030146 17.7005486,22.3730674 C17.6891395,22.4472267 17.6855878,22.4809671 17.6855878,22.5136057 C17.6855878,22.6918414 17.6887482,22.7329262 17.6944643,22.7500743 L17.8588238,23.2431528 L16.4602077,24.3753658 L15.988309,23.7924322 L16.1619768,23.9661 L15.940945,24.0766158 L16.5921274,23.7045116 L17.5394063,25.3622496 L16.8882239,25.7343538 L17.0895207,25.5330571 L17.1724076,25.7817178 L16.8938646,25.0853603 L18.4837511,24.4494057 L18.8250274,24.7224267 C18.9667108,24.8357734 19.1189349,24.9218131 19.4971034,25.1108974 L19.8439981,25.2843447 L20.0237352,26.4526361 L21.0467598,26.4526361 L21.2264969,25.2843447 L21.5733916,25.1108974 C21.9515601,24.9218131 22.1037842,24.8357734 22.2454676,24.7224267 L22.5867439,24.4494057 L23.7579455,24.9178863 L24.2405993,24.0732422 L23.2428153,23.3791316 L23.2428153,22.9872451 C23.2428153,22.8751669 23.2490566,22.8241968 23.2752185,22.654144 C23.2866277,22.5799847 23.2901793,22.5462443 23.2901793,22.5136057 C23.2901793,22.33537 23.2870189,22.2942853 23.2813029,22.2771371 L23.1169434,21.7840586 L24.5155595,20.6518456 L24.9874581,21.2347793 L24.8137903,21.0611115 L25.0348221,20.9505956 L24.3836397,21.3226998 L23.4363609,19.6649618 L24.0875432,19.2928576 L23.8862465,19.4941544 L23.8033596,19.2454937 L24.0819026,19.9418512 L22.4920161,20.5778058 L22.1507397,20.3047847 C22.0090563,20.191438 21.8568323,20.1053983 21.4786638,19.9163141 L21.1317691,19.7428667 L20.9447452,18.5272114 L19.9789272,18.5272114 L19.7886957,19.8112743 L19.3515,19.9570061 C19.2881785,19.9781133 19.2149826,20.0155246 19.1143923,20.0795365 C19.0455421,20.1233503 18.7648626,20.3167073 18.7251673,20.3431708 L18.3911925,20.5658207 Z M23.9928153,22.9872451 L25.082186,23.7450682 C25.1769139,23.7924322 25.1769139,23.934524 25.12955,24.0292519 L24.1822711,25.6869899 C24.1349072,25.7817178 23.9928153,25.8290817 23.8980874,25.7817178 L22.7139889,25.3080783 C22.4771692,25.4975341 22.1929855,25.6396259 21.9088018,25.7817178 L21.7193461,27.0131803 C21.7193461,27.1079082 21.5772542,27.2026361 21.4825264,27.2026361 L19.5879686,27.2026361 C19.4458768,27.2026361 19.3511489,27.1079082 19.3511489,27.0131803 L19.1616932,25.7817178 C18.8775095,25.6396259 18.5933258,25.4975341 18.3565061,25.3080783 L17.1724076,25.7817178 C17.0303157,25.8290817 16.9355878,25.7817178 16.8882239,25.7343538 L15.940945,24.0766158 C15.8935811,23.9818879 15.8935811,23.8871601 15.988309,23.7924322 L16.9829518,22.9872451 C16.9355878,22.8451533 16.9355878,22.7030615 16.9355878,22.5136057 C16.9355878,22.3241499 16.9829518,22.1820581 16.9829518,22.0399663 L15.988309,21.2821432 C15.8935811,21.1874153 15.8462172,21.0453235 15.8935811,20.9979595 L16.84086,19.3402215 C16.9355878,19.2454937 17.0303157,19.1981297 17.1724076,19.2454937 L18.3091422,19.7191331 C18.5933258,19.5296773 18.8301456,19.3402215 19.1143292,19.2454937 L19.303785,17.9666672 C19.303785,17.8719393 19.4458768,17.7772114 19.5406047,17.7772114 L21.4351624,17.7772114 C21.5298903,17.7772114 21.6719821,17.8719393 21.6246182,18.0140311 L21.814074,19.2454937 C22.0982576,19.3875855 22.3824413,19.5296773 22.619261,19.7191331 L23.8033596,19.2454937 C23.9454514,19.1981297 24.0401793,19.2454937 24.0875432,19.2928576 L25.0348221,20.9505956 C25.082186,21.0453235 25.082186,21.1400514 24.9874581,21.2347793 L23.9928153,22.0399663 C24.0401793,22.1820581 24.0401793,22.3241499 24.0401793,22.5136057 C24.0401793,22.7030615 23.9928153,22.8451533 23.9928153,22.9872451 Z M20.4878836,23.4213437 C20.9735849,23.4213437 21.3956216,22.9993071 21.3956216,22.5136057 C21.3956216,22.0279044 20.9735849,21.6058677 20.4878836,21.6058677 C20.0021822,21.6058677 19.5801456,22.0279044 19.5801456,22.5136057 C19.5801456,22.9993071 20.0021822,23.4213437 20.4878836,23.4213437 Z M20.4878836,24.1713437 C19.5879686,24.1713437 18.8301456,23.4135206 18.8301456,22.5136057 C18.8301456,21.6136908 19.5879686,20.8558677 20.4878836,20.8558677 C21.3877985,20.8558677 22.1456216,21.6136908 22.1456216,22.5136057 C22.1456216,23.4135206 21.3877985,24.1713437 20.4878836,24.1713437 Z" id="Shape" fill="#B9B0DE" fill-rule="nonzero"></path>
                </g>
                <g id="settings" transform="translate(14.000000, 16.000000)"></g>
                <g id="Group-4" transform="translate(4.000000, 4.000000)" fill="#B9B0DE">
                    <rect id="Rectangle-3" x="2.97142857" y="0.666666667" width="10.0285714" height="1" rx="0.5"></rect>
                    <circle id="Oval-2" cx="1" cy="1" r="1"></circle>
                </g>
                <g id="Group-4-Copy" transform="translate(4.000000, 9.000000)" fill="#B9B0DE">
                    <rect id="Rectangle-3" x="2.97142857" y="0.666666667" width="10.0285714" height="1" rx="0.5"></rect>
                    <circle id="Oval-2" cx="1" cy="1" r="1"></circle>
                </g>
                <g id="Group-4-Copy-2" transform="translate(4.000000, 14.000000)" fill="#B9B0DE">
                    <rect id="Rectangle-3" x="2.97142857" y="0.666666667" width="10.0285714" height="1" rx="0.5"></rect>
                    <circle id="Oval-2" cx="1" cy="1" r="1"></circle>
                </g>
            </g>
        </g>
    </g>
</svg>