<?xml version="1.0" encoding="UTF-8"?>
<svg width="22px" height="25px" viewBox="0 0 22 25" version="1.1" xmlns="http://www.w3.org/2000/svg" xmlns:xlink="http://www.w3.org/1999/xlink">
    <!-- Generator: Sketch 39.1 (31720) - http://www.bohemiancoding.com/sketch -->
    <title>Box 2</title>
    <desc>Created with Sketch.</desc>
    <defs></defs>
    <g id="user-dashboard" stroke="none" stroke-width="1" fill="none" fill-rule="evenodd">
        <g id="Desktop-Landscape" transform="translate(-31.000000, -80.000000)" fill="#FFFFFF">
            <path d="M52.4171118,86.0508708 L42.0432849,80.0606077 C41.9038475,79.9797974 41.7366811,79.9797974 41.5980359,80.0606077 L31.2257935,86.0508708 L31.2226245,86.0508708 C31.0831871,86.1332657 31,86.2814179 31,86.4390773 L31,98.4156422 C31,98.5764706 31.0831871,98.722246 31.2226245,98.8022641 L41.5964514,104.792527 C41.6645856,104.834517 41.7422269,104.852739 41.8174914,104.852739 L41.8222449,104.852739 L41.8222449,104.852739 L41.825414,104.852739 C41.8998862,104.852739 41.9751507,104.831348 42.0417004,104.792527 L52.4171118,98.8022641 C52.5549647,98.7214538 52.6397363,98.5764706 52.6397363,98.4156422 L52.6397363,86.4390773 C52.6397363,86.2814179 52.5549647,86.1332657 52.4171118,86.0508708 L52.4171118,86.0508708 Z M37.9275044,83.2130025 L47.4100409,88.6843366 L45.7138165,89.6635675 L36.2328644,84.1874799 L37.9275044,83.2130025 L37.9275044,83.2130025 Z M46.1614423,93.8989791 L46.1614423,90.4376036 L47.8560822,89.4615417 L47.8560822,92.9213326 L46.1614423,93.8989791 L46.1614423,93.8989791 Z M41.8222449,80.9629897 L51.303197,86.4390773 L48.2997467,88.1693689 L38.8187947,82.6980348 L41.8222449,80.9629897 L41.8222449,80.9629897 Z M35.3431586,84.7032399 L44.8209416,90.1793275 L41.8174914,91.9135804 L32.3381238,86.4390773 L35.3431586,84.7032399 L35.3431586,84.7032399 Z M31.8912903,87.2115289 L41.3754114,92.686032 L41.3754114,103.636623 L31.8912903,98.1589506 L31.8912903,87.2115289 L31.8912903,87.2115289 Z M42.2667017,103.633454 L42.2667017,92.686032 L45.2669829,90.9525714 L45.2669829,94.6706384 C45.2669829,94.8314668 45.353339,94.9772423 45.4896074,95.0572603 C45.5933932,95.1174719 45.7074784,95.1174719 45.8176023,95.0897429 C45.8580074,95.0818203 45.8999971,95.0786513 45.936441,95.0572603 L48.5223712,93.5638539 C48.6618086,93.4830436 48.7465803,93.3380604 48.7465803,93.177232 L48.7465803,88.9449895 L51.748446,87.2107366 L51.748446,98.1581583 L42.2667017,103.633454 L42.2667017,103.633454 Z" id="Box-2"></path>
        </g>
    </g>
</svg>