<?xml version="1.0" encoding="UTF-8"?>
<svg width="24px" height="16px" viewBox="0 0 24 16" version="1.1" xmlns="http://www.w3.org/2000/svg" xmlns:xlink="http://www.w3.org/1999/xlink">
    <!-- Generator: Sketch 39.1 (31720) - http://www.bohemiancoding.com/sketch -->
    <title>Credit card 2</title>
    <desc>Created with Sketch.</desc>
    <defs></defs>
    <g id="user-dashboard" stroke="none" stroke-width="1" fill="none" fill-rule="evenodd">
        <g id="Desktop-Landscape" transform="translate(-31.000000, -410.000000)" fill="#FFFFFF">
            <path d="M53.2144886,410 L32.9768886,410 L32.7752886,410.001579 C31.7912886,410.055263 31.0112886,410.851053 31.0000886,411.819737 L31.0000886,413.270789 L31.0000886,413.278684 L31.0000886,417.548158 L31.0000886,417.556053 L31.0000886,423.245789 C30.9952886,423.740789 31.1856886,424.208158 31.5360886,424.561053 C31.8864886,424.913947 32.3544886,425.109737 32.8608886,425.114474 L53.0952886,425.114474 L53.1168886,425.114474 C54.1384886,425.114474 54.9808886,424.294211 54.9920886,423.279737 L54.9920886,417.556053 L54.9920886,417.548158 L54.9920886,413.278684 L54.9920886,413.270789 L54.9920886,411.853684 C55.0016886,410.883421 54.2360886,410.069474 53.2144886,410 L53.2144886,410 Z M48.3216886,413.703421 L49.5232886,413.703421 L47.7904886,417.121842 L46.5904886,417.121842 L48.3216886,413.703421 L48.3216886,413.703421 Z M47.3560886,413.703421 L45.6216886,417.121842 L31.8608886,417.121842 L31.8608886,413.703421 L47.3560886,413.703421 L47.3560886,413.703421 Z M54.1312886,417.121842 L48.7576886,417.121842 L50.4888886,413.703421 L54.1312886,413.703421 L54.1312886,417.121842 L54.1312886,417.121842 Z M32.8000886,410.849474 L53.0376886,410.849474 L53.1848886,410.847895 C53.7208886,410.886579 54.1360886,411.323158 54.1320886,411.848947 L54.1320886,412.845263 L31.8616886,412.845263 L31.8616886,411.824474 C31.8656886,411.296316 32.2800886,410.878684 32.8000886,410.849474 L32.8000886,410.849474 Z M54.1312886,423.274211 C54.1264886,423.819737 53.6704886,424.264211 53.1168886,424.264211 L53.1000886,424.264211 L32.8656886,424.264211 C32.5936886,424.262632 32.3408886,424.156053 32.1496886,423.965 C31.9608886,423.775526 31.8576886,423.521316 31.8608886,423.248158 L31.8608886,417.980789 L45.8888886,417.980789 L54.1312886,417.980789 L54.1312886,423.274211 L54.1312886,423.274211 Z M40.1048886,421.421316 L32.8768886,421.421316 C32.6392886,421.421316 32.4472886,421.610789 32.4472886,421.846842 C32.4472886,422.081316 32.6392886,422.270789 32.8768886,422.270789 L40.1048886,422.270789 C40.3408886,422.270789 40.5344886,422.081316 40.5344886,421.846842 C40.5344886,421.610789 40.3408886,421.421316 40.1048886,421.421316 L40.1048886,421.421316 Z M42.9952886,419.994737 L32.8768886,419.994737 C32.6392886,419.994737 32.4472886,420.184211 32.4472886,420.418684 C32.4472886,420.654737 32.6392886,420.844211 32.8768886,420.844211 L42.9952886,420.844211 C43.2328886,420.844211 43.4264886,420.654737 43.4264886,420.418684 C43.4264886,420.184211 43.2328886,419.994737 42.9952886,419.994737 L42.9952886,419.994737 Z" id="Credit-card-2"></path>
        </g>
    </g>
</svg>