<?xml version="1.0" encoding="UTF-8"?>
<svg width="18px" height="20px" viewBox="0 0 18 20" version="1.1" xmlns="http://www.w3.org/2000/svg" xmlns:xlink="http://www.w3.org/1999/xlink">
    <!-- Generator: Sketch 50.2 (55047) - http://www.bohemiancoding.com/sketch -->
    <title>Shape</title>
    <desc>Created with Sketch.</desc>
    <defs></defs>
    <g id="rate-plans" stroke="none" stroke-width="1" fill="none" fill-rule="evenodd">
        <g id="list-rates-plans" transform="translate(-214.000000, -392.000000)" fill="#000000">
            <g id="Group-3" transform="translate(179.000000, 290.000000)">
                <g id="event" transform="translate(35.000000, 102.000000)">
                    <path d="M14,11 L9,11 L9,16 L14,16 L14,11 L14,11 Z M13,0 L13,2 L5,2 L5,0 L3,0 L3,2 L2,2 C0.9,2 0,2.9 0,4 L0,18 C0,19.1 0.9,20 2,20 L16,20 C17.1,20 18,19.1 18,18 L18,4 C18,2.9 17.1,2 16,2 L15,2 L15,0 L13,0 L13,0 Z M16,18 L2,18 L2,7 L16,7 L16,18 L16,18 Z" id="Shape"></path>
                </g>
            </g>
        </g>
    </g>
</svg>