<?xml version="1.0" encoding="UTF-8"?>
<svg width="16px" height="16px" viewBox="0 0 16 14" version="1.1" xmlns="http://www.w3.org/2000/svg" xmlns:xlink="http://www.w3.org/1999/xlink">
    <!-- Generator: Sketch 39.1 (31720) - http://www.bohemiancoding.com/sketch -->
    <title>Group 12</title>
    <desc>Created with Sketch.</desc>
    <defs></defs>
    <g id="Home-page-v1" stroke="none" stroke-width="1" fill="none" fill-rule="evenodd">
        <g id="Desktop-HD" transform="translate(-583.000000, -46.000000)">
            <g id="header" transform="translate(70.000000, 16.000000)">
                <g id="Group-12" transform="translate(505.000000, 28.000000)">
                    <path d="M24,6.17615814 C24,6.16378673 23.9892423,6.15733208 23.9876286,6.14442278 C23.9844013,6.11699052 23.9897801,6.08848249 23.9779466,6.06266389 L22.3336247,2.17642708 C22.2884421,2.07046326 22.1835541,2 22.0668325,2 L9.93424326,2 C9.81752168,2 9.71263363,2.07046326 9.66745109,2.17642708 L8.02205339,6.06266389 C8.01075775,6.08902037 8.01559874,6.11752841 8.01129564,6.14442278 C8.01075775,6.15733208 8,6.16378673 8,6.17615814 C8,6.18261279 8.00645465,6.18691589 8.00645465,6.19283265 C8.01075775,6.25576548 8.02850803,6.31654676 8.07153903,6.36710818 L15.7826935,15.1163854 C15.7891481,15.1239158 15.8004438,15.1206885 15.8068984,15.127681 C15.827876,15.1465071 15.8445505,15.1631816 15.8698312,15.1771667 C15.8752101,15.1793182 15.8762859,15.1884623 15.8832784,15.1906139 C15.9209305,15.2062126 15.9612721,15.2148188 15.9989242,15.2148188 C16.0376521,15.2148188 16.0774558,15.2062126 16.1156458,15.1906139 C16.1231762,15.1884623 16.124252,15.1793182 16.129093,15.1760909 C16.1543737,15.1637195 16.1710482,15.1465071 16.19095,15.127681 C16.1984805,15.1201506 16.2097761,15.1233779 16.2162308,15.1163854 L23.9273852,6.36710818 C23.9704162,6.31654676 23.9892423,6.25576548 23.9935454,6.19283265 C23.9935454,6.18691589 24,6.18261279 24,6.17615814 L24,6.17615814 Z M17.9665165,2.57930478 L19.3849257,5.88731258 L12.6150743,5.88731258 L14.0345593,2.57930478 L17.9665165,2.57930478 L17.9665165,2.57930478 Z M19.3806226,6.4650037 L15.9989242,14.2025146 L12.6193774,6.4650037 L19.3806226,6.4650037 L19.3806226,6.4650037 Z M11.9868218,6.4650037 L14.9925368,13.3461978 L8.92893162,6.4650037 L11.9868218,6.4650037 L11.9868218,6.4650037 Z M20.0131782,6.4650037 L23.0705305,6.4650037 L17.0063874,13.345122 L20.0131782,6.4650037 L20.0131782,6.4650037 Z M23.2749277,5.88731258 L20.014254,5.88731258 L18.5958448,2.57930478 L21.8748067,2.57930478 L23.2749277,5.88731258 L23.2749277,5.88731258 Z M10.1251933,2.57930478 L13.4063067,2.57930478 L11.9868218,5.88731258 L8.72507228,5.88731258 L10.1251933,2.57930478 L10.1251933,2.57930478 Z" id="Diamond-2" fill="#5C5953"></path>
                    <rect id="Rectangle-9" x="0" y="0" width="32" height="16"></rect>
                </g>
            </g>
        </g>
    </g>
</svg>
