<?xml version="1.0" encoding="UTF-8"?>
<svg width="14px" height="16px" viewBox="0 0 14 14" version="1.1" xmlns="http://www.w3.org/2000/svg" xmlns:xlink="http://www.w3.org/1999/xlink">
    <!-- Generator: Sketch 39.1 (31720) - http://www.bohemiancoding.com/sketch -->
    <title>Group 14</title>
    <desc>Created with Sketch.</desc>
    <defs></defs>
    <g id="Home-page-v1" stroke="none" stroke-width="1" fill="none" fill-rule="evenodd">
        <g id="Desktop-HD" transform="translate(-728.000000, -46.000000)">
            <g id="header" transform="translate(70.000000, 16.000000)">
                <g id="Group-14" transform="translate(650.000000, 29.000000)">
                    <path d="M18.1784539,10.3093259 L17.0196166,9.15048869 C18.564733,7.14183745 18.4102213,4.36062804 16.5560817,2.50648843 C14.6246863,0.49783719 11.379942,0.49783719 9.44854657,2.50648843 C7.51715114,4.51513967 7.51715114,7.68262817 9.44854657,9.61402359 C11.2254304,11.3909074 14.0838956,11.545419 16.0925468,10.0775585 L17.2513841,11.2363958 L21.1141749,14.944675 C21.2686866,14.8674191 21.8867331,14.2493726 21.9639889,14.094861 L18.1784539,10.3093259 L18.1784539,10.3093259 Z M10.2211047,8.91872124 C8.6759884,7.3736049 8.6759884,4.82416294 10.2211047,3.2790466 C11.7662211,1.73393026 14.315663,1.73393026 15.8607794,3.2790466 C17.4058957,4.82416294 17.4058957,7.3736049 15.8607794,8.91872124 C14.2384072,10.4638376 11.7662211,10.4638376 10.2211047,8.91872124 L10.2211047,8.91872124 Z" id="mgf_glass" fill="#5C5953"></path>
                    <rect id="Rectangle-9" x="0" y="0" width="32" height="16"></rect>
                </g>
            </g>
        </g>
    </g>
</svg>
