<?xml version="1.0" encoding="UTF-8"?>
<svg width="80px" height="81px" viewBox="0 0 80 81" version="1.1" xmlns="http://www.w3.org/2000/svg" xmlns:xlink="http://www.w3.org/1999/xlink">
    <!-- Generator: Sketch 39.1 (31720) - http://www.bohemiancoding.com/sketch -->
    <title>Group 3</title>
    <desc>Created with Sketch.</desc>
    <defs>
        <rect id="path-1" x="0" y="0" width="72" height="73" rx="4"></rect>
        <filter x="-50%" y="-50%" width="200%" height="200%" filterUnits="objectBoundingBox" id="filter-2">
            <feOffset dx="0" dy="2" in="SourceAlpha" result="shadowOffsetOuter1"></feOffset>
            <feGaussianBlur stdDeviation="2" in="shadowOffsetOuter1" result="shadowBlurOuter1"></feGaussianBlur>
            <feColorMatrix values="0 0 0 0 0   0 0 0 0 0   0 0 0 0 0  0 0 0 0.5 0" type="matrix" in="shadowBlurOuter1"></feColorMatrix>
        </filter>
    </defs>
    <g id="Icons" stroke="none" stroke-width="1" fill="none" fill-rule="evenodd">
        <g id="Group-3" transform="translate(4.000000, 2.000000)">
            <g id="Rectangle-5">
                <use fill="black" fill-opacity="1" filter="url(#filter-2)" xlink:href="#path-1"></use>
                <use fill="#FFFFFF" fill-rule="evenodd" xlink:href="#path-1"></use>
            </g>
            <path d="M27.3414692,63.3629041 C26.7925828,63.3629041 19.4801064,63.3629041 18.93122,63.3629041 C18.9421298,61.6941827 18.8961234,60.0179128 19.3394112,58.3884845 C20.9816446,52.3525273 24.9181265,48.6096402 30.9031803,47.1812279 C34.5713428,46.305816 38.3201967,46.3905033 41.8619702,47.8804406 C47.3773881,50.2007058 50.6523862,54.3300108 51.35226,60.3728961 C51.4666071,61.3601902 51.4245117,62.3656833 51.4546681,63.3629041 C50.9058846,63.3629041 50.3568953,59.9625284 49.8080089,59.9625284 C49.9819482,56.992684 42.4710959,63.3629042 27.3414692,63.3629041 Z" id="Shape" fill="#305F96"></path>
            <path d="M35.2670998,29.6306995 C39.4871335,29.6260464 42.9085904,33.0729933 42.9077671,37.3285536 C42.9071495,41.6066559 39.4821932,45.0499837 35.2280921,45.0495701 C30.9982808,45.0491565 27.5609737,41.6027265 27.5668403,37.3678469 C27.5727069,33.0313218 30.9523773,29.6355595 35.2670998,29.6306995 L35.2670998,29.6306995 Z" id="Shape" fill="#305F96"></path>
            <path d="M55.1676019,18.9217431 C56.0868039,19.5295473 57.0120784,20.0894759 57.8748788,20.7337814 C58.3046837,21.0547451 58.6779841,21.4920374 58.9749158,21.9443232 C59.5678531,22.8471368 59.4104844,23.8602818 58.4807843,24.4182457 C57.6876625,24.8942108 56.7682547,25.1643 55.8920743,25.4909509 C55.575896,25.6088305 55.2226655,25.6262023 54.8526587,25.6955859 C54.7071261,25.4826786 54.5567561,25.2627399 54.3688194,24.9877907 C54.8547171,24.8894542 55.324456,24.8330994 55.7691847,24.6951595 C56.4363292,24.4881462 57.1194267,24.289095 57.7351099,23.9689586 C58.6657363,23.4848246 58.7993298,22.7594509 58.0599337,22.0065719 C57.4655555,21.4013528 56.7357311,20.9289034 56.0563388,20.4102327 C55.0162027,19.6160958 54.0815623,19.5051442 52.7881337,20.1980493 C49.4309004,21.9967486 45.7372131,22.9099026 42.0404381,23.7486063 C41.2243645,23.9338015 40.4039682,24.0997637 39.5854246,24.2744117 C39.5833661,24.3197024 39.5815135,24.3648896 39.579558,24.4100768 C41.8717479,24.6636215 44.1642465,24.9171663 46.4831963,25.1737097 C46.4125914,25.3850659 46.3338555,25.6214457 46.2322709,25.9254513 C44.7040757,25.7680715 43.1711461,25.6379903 41.6459356,25.444833 C40.2024457,25.2619127 38.7729533,24.9411558 37.3257582,24.8202774 C36.488071,24.7502735 35.6269173,24.9479804 34.7778056,25.0386651 C34.0471579,25.1167345 33.3184656,25.2136234 32.5481927,25.3072033 C32.4712066,25.0492122 32.4004987,24.8124188 32.3208366,24.5454316 C32.9977587,24.4577457 33.6311446,24.3758503 34.2646334,24.2938516 C34.2620603,24.2668633 34.2594873,24.2399785 34.2569142,24.2129902 C33.2114261,23.957791 32.1640854,23.7099335 31.1211704,23.4444974 C30.6059397,23.3132786 30.093385,22.8002952 30.081446,22.3800644 C30.7534279,22.5454062 31.4075012,22.7174692 32.0667206,22.866163 C33.536147,23.1976738 34.9962074,23.6091153 36.483954,23.8057883 C37.3040416,23.9142583 38.1818687,23.7055905 39.0173946,23.5513129 C42.9804304,22.819218 46.8838741,21.8553964 50.6348893,20.3475703 C51.5360799,19.9853488 52.4082462,19.5506416 53.2848383,19.0847066 C48.8347725,17.1329705 44.1817434,15.9920191 39.3648614,15.0746256 C39.5654576,14.5792207 39.745778,14.1342765 39.9898076,13.5320561 C42.1286427,13.4254473 44.3942786,13.3123242 46.6667073,13.1988908 C46.7200213,13.4411646 46.7573822,13.5891346 46.7837304,13.7393796 C46.7980366,13.8207579 46.793508,13.9053418 46.7972132,13.9855827 C44.626472,14.0918812 42.4736394,14.1973525 40.3209097,14.3028238 C40.3171015,14.3457361 40.3132934,14.3886485 40.3094853,14.4315608 C40.7878697,14.5361015 41.2655336,14.6447783 41.7449472,14.744459 C45.8938613,15.6062216 49.9654805,16.7240106 53.8755112,18.3913879 C54.0522294,18.4667688 54.3572921,18.4323356 54.5140432,18.3221077 C54.8894021,18.0580158 55.2492196,17.7502878 55.5483127,17.4021291 C56.1607024,16.6893706 56.0766146,16.1302692 55.332484,15.5718918 C55.2378981,15.5008537 55.1418713,15.4318838 55.0332879,15.3520565 C55.2070213,15.1582788 55.3651105,14.9820797 55.5217587,14.8073282 C56.7178226,15.3433706 57.0987392,16.5416073 56.3588284,17.6042824 C56.0112587,18.1037201 55.5400789,18.516299 55.1676019,18.9217431 L55.1676019,18.9217431 Z" id="Shape" fill="#000000"></path>
            <path d="M16.9843356,19.1618454 C17.452016,18.8388137 17.7968068,18.5556956 18.1813257,18.3463041 C18.6852349,18.0720787 18.8685401,17.6794566 18.8269594,17.1219063 C18.7956709,16.7023994 18.820784,16.2787563 18.820784,15.7297885 C19.2821862,16.076603 19.6580596,16.3120521 19.9757818,16.6100603 C20.3805765,16.989757 20.7931933,17.0331863 21.2892804,16.8331011 C21.6946926,16.6695171 22.1216157,16.5593927 22.6576367,16.3874331 C22.4446898,16.9871719 22.2852627,17.4833006 22.0916652,17.9655733 C21.9550869,18.30577 21.9932712,18.5865098 22.2160987,18.8762457 C22.5241461,19.2768298 22.8047132,19.6986116 23.1579436,20.197222 C22.5283659,20.197222 22.024148,20.2177993 21.5225031,20.1906042 C21.1405572,20.1697168 20.8718262,20.2894577 20.6553799,20.610835 C20.3721368,21.0315828 20.0537971,21.428341 19.6702045,21.9433925 C19.4874139,21.3194574 19.3324124,20.8354268 19.2059205,20.3439512 C19.1154515,19.9924836 18.9252505,19.7862976 18.5689324,19.6872373 C18.0777856,19.5508484 17.5990924,19.3684451 16.9843356,19.1618454 L16.9843356,19.1618454 Z" id="Shape" fill="#F68F48"></path>
            <path d="M27.9746198,21.6764054 C28.1787154,22.3070617 28.296253,22.8116695 28.5093029,23.2716071 C28.6231353,23.5177068 28.8670619,23.76391 29.1127382,23.8745514 C29.5908138,24.0899404 30.1114994,24.2098881 30.7534279,24.4134891 C30.2551794,24.767335 29.8599565,25.0763039 29.4367387,25.3396719 C29.0885514,25.5565085 28.9544432,25.8320781 28.9776008,26.2385563 C29.0055958,26.7307557 28.9841879,27.2258504 28.9841879,27.8527842 C28.4954083,27.4954226 28.0789833,27.212408 27.6874657,26.8979587 C27.3755072,26.6474127 27.0718854,26.5821652 26.6904541,26.7337544 C26.2347127,26.9149169 25.7596219,27.0468594 25.15948,27.2441528 C25.2865895,26.8278513 25.3329047,26.5043026 25.4779226,26.2343167 C25.8809677,25.4846433 25.7245253,24.8670157 25.1484673,24.2895086 C24.9351087,24.0756707 24.7766078,23.8064087 24.5114791,23.453907 C25.1452767,23.453907 25.6694617,23.5004385 26.1796491,23.4355013 C26.4641273,23.3993101 26.7868926,23.235933 26.983269,23.0266449 C27.3297066,22.6575987 27.5923651,22.2094491 27.9746198,21.6764054 L27.9746198,21.6764054 Z" id="Shape" fill="#F68F48"></path>
            <path d="M51.7569518,10.395629 C51.8912659,11.01336 52.008186,11.4758827 52.0888773,11.9447129 C52.1599968,12.3581191 52.3605931,12.6186953 52.7640498,12.7607713 C53.2278191,12.9239416 53.6741946,13.1367455 54.2574571,13.3824316 C53.7645606,13.6695824 53.3890989,13.9299517 52.9800844,14.1155605 C52.5144624,14.3268134 52.3119106,14.6546016 52.3017213,15.1553835 C52.292767,15.5979494 52.2401736,16.039688 52.1936525,16.6585564 C51.7396608,16.2540429 51.3728446,15.9639968 51.0509026,15.6302112 C50.712493,15.2792606 50.3583362,15.191678 49.8931259,15.3394413 C49.458072,15.477588 49.000375,15.5434559 48.423082,15.6692976 C48.6543492,15.127568 48.8160406,14.6701121 49.0404119,14.2462622 C49.2538735,13.8429896 49.2137337,13.5103414 48.9581768,13.1483266 C48.6861523,12.7629428 48.4553997,12.3483992 48.135825,11.8322102 C48.803587,11.8933215 49.327669,11.9269276 49.8476341,11.9937261 C50.2117744,12.0404643 50.4668167,11.9155532 50.6912909,11.6327454 C50.997177,11.2470513 51.3324989,10.8850365 51.7569518,10.395629 L51.7569518,10.395629 Z" id="Shape" fill="#F68F48"></path>
            <path d="M48.2120906,23.6404465 C48.7658144,23.8750684 49.2134249,24.0422715 49.640348,24.2521801 C50.0337182,24.4457509 50.3749068,24.4397535 50.7396646,24.1771093 C51.1238747,23.9004022 51.5396822,23.6678483 52.0652051,23.3387158 C52.0246536,23.880342 52.0224922,24.2973673 51.9561071,24.7039488 C51.8595657,25.2953119 52.0278442,25.7284681 52.5379287,26.0615299 C52.8774705,26.2832265 53.1704912,26.5766849 53.5825934,26.9201904 C53.0486308,27.0499615 52.6206785,27.1957601 52.1815077,27.2502536 C51.633033,27.3182929 51.328382,27.5855903 51.1786296,28.1147046 C51.0627387,28.5239747 50.8730523,28.9122538 50.6637077,29.4429192 C50.3537047,28.9404829 50.0741668,28.5444485 49.8556621,28.1168761 C49.6426122,27.7000577 49.3384759,27.5144488 48.8801614,27.5056596 C48.4083641,27.4965601 47.9372872,27.4470299 47.315017,27.4049448 C47.7285601,26.9276355 48.0360929,26.5457673 48.3729587,26.192335 C48.6496147,25.9020821 48.7395691,25.6128633 48.6075194,25.214037 C48.4491214,24.7350732 48.3576232,24.2334641 48.2120906,23.6404465 L48.2120906,23.6404465 Z" id="Shape" fill="#F68F48"></path>
            <path d="M37.9533804,16.6365315 C37.333992,16.5294057 36.8299799,16.4655025 36.3380098,16.3496909 C35.9586369,16.2603505 35.6803342,16.3532066 35.4191165,16.6330158 C35.0729877,17.0039232 34.7007166,17.3501173 34.2443576,17.8010588 C34.1476104,17.1267663 34.1061325,16.5837959 33.9779939,16.0622299 C33.9215923,15.8323645 33.7297445,15.5819219 33.528222,15.4530814 C33.0850371,15.1696532 32.5965663,14.9576765 32.0085693,14.6559459 C32.5334748,14.398265 32.9559721,14.162609 33.4002891,13.9807227 C33.826183,13.8062815 34.0560092,13.5444644 34.0917234,13.0655006 C34.1258937,12.6087685 34.2404466,12.1582406 34.348927,11.5379246 C34.7407535,11.9458504 35.0745316,12.2461334 35.3504671,12.5928444 C35.6806429,13.0076982 36.0655736,13.1242337 36.5699974,13.0106969 C37.0145202,12.910706 37.4703645,12.8611758 38.0325279,12.7716286 C37.7940562,13.2144013 37.6434804,13.5815862 37.4174623,13.893864 C37.026768,14.4341459 36.9955824,14.9338938 37.3814394,15.4938223 C37.598812,15.808892 37.7310675,16.1832117 37.9533804,16.6365315 L37.9533804,16.6365315 Z" id="Shape" fill="#F68F48"></path>
            <path d="M30.8446173,13.2145047 C30.7424151,13.9581808 30.271647,13.9558025 29.712983,13.918474 C27.0071471,13.7376217 24.3011053,13.7033952 21.6127662,14.1394467 C20.7392618,14.2811091 19.8648312,14.4548266 19.017675,14.7056828 C18.6283187,14.8209774 18.2932026,15.1431819 17.9530433,15.3979675 C17.6396439,15.6326929 17.3524898,15.9025753 17.0831413,16.1319237 C17.1191642,15.6275227 17.3963348,15.1653102 17.8330356,14.7954368 C18.7557369,14.014122 19.882431,13.7016374 21.0278569,13.4768387 C24.2183555,12.8506287 27.4361286,12.9441052 30.6557543,13.1705583 C30.7218306,13.1752115 30.7863631,13.2005453 30.8446173,13.2145047 L30.8446173,13.2145047 Z" id="Shape" fill="#000000"></path>
            <path d="M23.4785476,24.9549085 C23.4285272,25.2320291 23.3896225,25.4469011 23.3354852,25.7466671 C22.5875464,25.7029275 21.8344616,25.719472 21.10227,25.6032468 C19.6371663,25.3706929 18.1721656,25.1129086 16.7308371,24.7660941 C16.1704234,24.6312563 15.6250364,24.2921971 15.1591056,23.9331811 C14.2898211,23.2632315 14.1787676,22.3307411 14.7965092,21.4252389 C15.025615,21.0894886 15.3212088,20.7994425 15.6091863,20.4621411 C15.8519808,20.6361688 16.0509302,20.7787619 16.2608924,20.9292136 C16.0103787,21.1993028 15.758527,21.4333044 15.5511379,21.701946 C15.0213952,22.3880265 15.0639022,23.0458779 15.8292349,23.4306413 C16.7342336,23.8854088 17.7131307,24.2661395 18.702423,24.4598138 C20.0396967,24.7215274 21.4172132,24.7761243 22.7778504,24.915822 C22.9929587,24.9378469 23.2100225,24.9405354 23.4785476,24.9549085 L23.4785476,24.9549085 Z" id="Shape" fill="#000000"></path>
            <path d="M24.5466787,17.2431983 C24.42523,16.6815119 24.5836279,16.4054253 25.1484673,16.2792733 C26.7303881,15.9256342 28.2983115,15.5089192 29.8727189,15.1208468 C30.0033277,15.0886884 30.1409353,15.0858965 30.312919,15.0648023 L30.312919,15.7985517 C28.4043218,16.2766882 26.4890346,16.7564793 24.5466787,17.2431983 L24.5466787,17.2431983 Z" id="Shape" fill="#000000"></path>
            <path d="M25.7616803,21.0227935 C25.5850651,21.2798539 25.452192,21.473218 25.2976022,21.6982235 C24.9532231,21.5692796 24.6096673,21.4407494 24.2409985,21.3027061 C24.3132502,21.050609 24.3769593,20.827775 24.4563126,20.5506543 C24.8884847,20.7068966 25.3081003,20.8586926 25.7616803,21.0227935 L25.7616803,21.0227935 Z" id="Shape" fill="#000000"></path>
        </g>
    </g>
</svg>