<?xml version="1.0" encoding="UTF-8"?>
<svg width="14px" height="16px" viewBox="0 0 14 15" version="1.1" xmlns="http://www.w3.org/2000/svg" xmlns:xlink="http://www.w3.org/1999/xlink">
    <!-- Generator: Sketch 39.1 (31720) - http://www.bohemiancoding.com/sketch -->
    <title>Group 13</title>
    <desc>Created with Sketch.</desc>
    <defs></defs>
    <g id="Home-page-v1" stroke="none" stroke-width="1" fill="none" fill-rule="evenodd">
        <g id="Desktop-HD" transform="translate(-653.000000, -45.000000)">
            <g id="header" transform="translate(70.000000, 16.000000)">
                <g id="Group-13" transform="translate(574.000000, 29.000000)">
                    <path d="M19.9668978,4.87719468 C20.4909692,4.41955293 20.8273224,3.76158497 20.8273224,3.02532862 C20.8273224,1.64607121 19.6755496,0.524705003 18.2561154,0.524705003 C17.2902843,0.524705003 16.4576917,1.05084911 16.0183007,1.81761491 C15.5789098,1.05084911 14.7475015,0.524705003 13.7816704,0.524705003 C12.3628284,0.524705003 11.2092791,1.64549556 11.2092791,3.02532862 C11.2092791,3.76158497 11.5456323,4.41955293 12.0697037,4.87719468 L9.36881125,4.87719468 C9.18583037,4.87719468 9.03601108,5.02456108 9.03601108,5.20186128 L9.03601108,14.6764847 C9.03601108,14.8532092 9.18642254,15 9.36881125,15 L22.6660137,15 C22.8507711,15 22.9999982,14.8526336 22.9999982,14.6764847 L22.9999982,5.20186128 C23.0005904,5.02456108 22.8513633,4.87719468 22.6666059,4.87719468 L19.9668978,4.87719468 Z M22.3332136,5.52537659 L22.3332136,9.73510506 L16.3511009,9.73510506 L16.3511009,5.52537659 L18.2572997,5.52537659 L22.3332136,5.52537659 L22.3332136,5.52537659 Z M18.2561154,1.17288691 C19.3060348,1.17288691 20.1611299,2.00585246 20.1611299,3.02590427 C20.1611299,4.04595608 19.3078113,4.87777033 18.2572997,4.87777033 L18.2561154,4.87777033 L16.3511009,4.87777033 L16.3511009,3.02590427 C16.3516931,2.00585246 17.206196,1.17288691 18.2561154,1.17288691 L18.2561154,1.17288691 Z M11.8742873,3.02590427 C11.8742873,2.00642811 12.7311589,1.17288691 13.7816704,1.17288691 C14.832182,1.17288691 15.6855006,2.00585246 15.6855006,3.02590427 L15.6855006,4.87777033 L13.7804861,4.87777033 C12.7299745,4.87719468 11.8742873,4.04538043 11.8742873,3.02590427 L11.8742873,3.02590427 Z M13.7816704,5.52537659 L15.6855006,5.52537659 L15.6855006,9.73510506 L9.70338793,9.73510506 L9.70338793,5.52537659 L13.7816704,5.52537659 L13.7816704,5.52537659 Z M9.70338793,10.2618248 L15.6855006,10.2618248 L15.6855006,14.4715533 L9.70338793,14.4715533 L9.70338793,10.2618248 L9.70338793,10.2618248 Z M16.3516931,14.4715533 L16.3516931,10.2618248 L22.3338057,10.2618248 L22.3338057,14.4715533 L16.3516931,14.4715533 L16.3516931,14.4715533 Z" id="Present-3" fill="#5C5953"></path>
                    <rect id="Rectangle-9" x="0" y="0" width="32" height="16"></rect>
                </g>
            </g>
        </g>
    </g>
</svg>
