<?xml version="1.0" encoding="UTF-8"?>
<svg width="15px" height="16px" viewBox="0 0 15 16" version="1.1" xmlns="http://www.w3.org/2000/svg" xmlns:xlink="http://www.w3.org/1999/xlink">
    <!-- Generator: Sketch 39.1 (31720) - http://www.bohemiancoding.com/sketch -->
    <title>Group 8</title>
    <desc>Created with Sketch.</desc>
    <defs></defs>
    <g id="Home-page-v1" stroke="none" stroke-width="1" fill="none" fill-rule="evenodd">
        <g id="Desktop-HD" transform="translate(-340.000000, -44.000000)">
            <g id="header" transform="translate(70.000000, 16.000000)">
                <g id="Group-8" transform="translate(270.000000, 28.000000)">
                    <path d="M7.48158088,15.9731625 C5.58819853,15.9731991 3.69485294,15.9734554 1.80150735,15.9729428 C1.42551471,15.9728696 1.28871324,15.8312128 1.326875,15.4547185 C1.44003676,14.3385629 1.56091912,13.2231762 1.67834559,12.1073867 C1.74216912,11.5009977 1.80191176,10.8941693 1.87117647,10.2884027 C1.88488971,10.1683844 1.84808824,10.148357 1.73761029,10.1488696 C1.52400735,10.1498947 1.30944853,10.1708741 1.09639706,10.1278169 C0.0917279412,9.92475973 -0.322352941,8.7958627 0.324816176,7.99659497 C1.13974265,6.99013272 1.96544118,5.99231121 2.78669118,4.99097483 C4.003125,3.50780778 5.21882353,2.02401831 6.43691176,0.542169336 C6.89066176,-0.00981235698 7.57125,-0.145867277 8.16125,0.189290618 C8.30698529,0.27210984 8.42849265,0.381913043 8.53404412,0.510535469 C10.5797059,3.00415561 12.6266176,5.4968238 14.6698529,7.99249428 C15.0235662,8.42456751 15.0884191,8.91265904 14.845,9.41279634 C14.6044853,9.90696568 14.1817647,10.1415103 13.6309926,10.1537025 C13.4619485,10.1574371 13.2322426,10.0776934 13.1420221,10.188595 C13.0672059,10.2806407 13.1498529,10.5020412 13.1670588,10.6656659 C13.3333456,12.2483478 13.4998529,13.8309931 13.6680515,15.413492 C13.7116176,15.8232677 13.5795588,15.9729062 13.1617279,15.9729428 C11.2682353,15.9732723 9.37492647,15.9731259 7.48158088,15.9731625 L7.48158088,15.9731625 Z" id="Shape" fill="#C3870E"></path>
                    <path d="M7.49496324,15.2242014 C5.77363971,15.2242014 4.05235294,15.2207963 2.33110294,15.2291076 C2.14290441,15.2299863 2.11202206,15.1780686 2.13099265,15.0060229 C2.25275735,13.9033043 2.36452206,12.7994874 2.48033088,11.6961465 C2.54525735,11.0777849 2.61356618,10.4597895 2.67639706,9.84124485 C2.70198529,9.58927231 2.54963235,9.41349199 2.29591912,9.40704805 C2.00205882,9.39957895 1.70786765,9.40184897 1.41389706,9.4055103 C1.15400735,9.40876888 0.940735294,9.32583982 0.825,9.08232494 C0.709963235,8.8402746 0.776838235,8.62681922 0.943198529,8.42434783 C2.95933824,5.97067277 4.97268382,3.5147643 6.98694853,1.05962471 C7.32463235,0.648091533 7.67889706,0.652778032 8.01985294,1.06852174 C10.0294853,3.51937757 12.0397794,5.96975744 14.0500735,8.42010069 C14.2700735,8.68825629 14.2901103,8.97098398 14.1014706,9.19989016 C13.9798162,9.34744165 13.8171691,9.40404577 13.6304044,9.40419222 C13.3363971,9.4044119 13.0423162,9.40225172 12.7483456,9.40558352 C12.4405882,9.40913501 12.2944853,9.58257208 12.3266176,9.88774371 C12.4727574,11.2759725 12.6165074,12.6644943 12.7617279,14.0527963 C12.7953676,14.3741144 12.824375,14.6961281 12.8693382,15.0159451 C12.8925368,15.1805217 12.8533456,15.2292906 12.6771324,15.2285584 C10.9497794,15.2213455 9.22235294,15.2242014 7.49496324,15.2242014 L7.49496324,15.2242014 Z" id="Shape" fill="#FDFDFD"></path>
                    <path d="M5.57301471,8.37140503 C5.58433824,7.27249428 6.44286765,6.43632037 7.54658088,6.44917162 C8.59180147,6.46136384 9.43580882,7.33345538 9.42580882,8.39099314 C9.41584559,9.44684668 8.538125,10.3037803 7.48044118,10.2903799 C6.42393382,10.2769062 5.56235294,9.41016018 5.57301471,8.37140503 L5.57301471,8.37140503 Z" id="Shape" fill="#C3870E"></path>
                    <path d="M7.48132353,9.53449886 C6.83783088,9.52820137 6.32025735,9.00437529 6.32356618,8.36272769 C6.32691176,7.71643021 6.85908088,7.19102975 7.50863971,7.19286041 C8.15176471,7.19465446 8.68202206,7.73349199 8.67632353,8.37938673 C8.67066176,9.02575744 8.13772059,9.54090618 7.48132353,9.53449886 L7.48132353,9.53449886 Z" id="Shape" fill="#FDFDFD"></path>
                </g>
            </g>
        </g>
    </g>
</svg>