<?xml version="1.0" encoding="UTF-8"?>
<svg width="32px" height="22px" viewBox="0 0 32 22" version="1.1" xmlns="http://www.w3.org/2000/svg" xmlns:xlink="http://www.w3.org/1999/xlink">
    <!-- Generator: Sketch 46.2 (44496) - http://www.bohemiancoding.com/sketch -->
    <title>hotel</title>
    <desc>Created with Sketch.</desc>
    <defs></defs>
    <g id="Page-2-Copy" stroke="none" stroke-width="1" fill="none" fill-rule="evenodd">
        <g id="Desktop" transform="translate(-1140.000000, -254.000000)" fill-rule="nonzero" fill="#EC8491">
            <g id="026_interior_furniture_double_bed_sleep-512.png" transform="translate(1140.000000, 254.000000)">
                <path d="M0.624998779,22 C0.416686686,22 0.208312093,22 0,22 C0,19.2756257 0,16.5511899 0,13.8268156 C0.0229999551,13.760324 0.0568748889,13.6954302 0.0672498687,13.6271564 C0.241874528,12.4825419 0.842560854,11.6107765 1.84668389,11.0254413 C2.09630841,10.8799218 2.15368329,10.7260447 2.1527458,10.4684972 C2.14462081,8.23863128 2.13818332,6.00864246 2.1513083,3.77883799 C2.16212078,1.9336648 3.30424355,0.520072626 5.08192757,0.109385475 C5.24198976,0.0723910615 5.40230195,0.0364413408 5.56248914,0 C12.520788,0 19.479087,0 26.4374484,0 C26.5162607,0.0230446927 26.5935731,0.0569664804 26.6741354,0.0673519553 C27.2745092,0.144782123 27.8185707,0.363614525 28.3025697,0.71549162 C29.3793801,1.49815084 29.8551917,2.56982123 29.8531292,3.86972626 C29.8496917,6.08951397 29.8555042,8.30936313 29.8449417,10.5290894 C29.8438167,10.766419 29.9218166,10.8863128 30.1285037,11.0047933 C31.0763768,11.5482793 31.6618132,12.3610503 31.9029377,13.4136089 C31.9345626,13.5515084 31.9676251,13.6890391 32,13.8268156 C32,16.5511899 32,19.2756257 32,22 C31.7916254,22 31.5833758,22 31.3750012,22 C31.0498144,21.8569385 30.9271896,21.6153073 30.9460646,21.2636145 C30.970002,20.8177765 30.951877,20.3697263 30.951877,19.9166369 C20.9628341,19.9166369 11.015666,19.9166369 1.04712295,19.9166369 C1.04712295,20.3837989 1.02981049,20.8239218 1.05262294,21.2620168 C1.07074791,21.6121117 0.949373146,21.855648 0.624998779,22 Z M28.8106312,10.4938771 C28.8163812,10.3933408 28.8249437,10.3126536 28.8249437,10.2319665 C28.8250062,8.04063128 28.8307562,5.84929609 28.8212562,3.65796089 C28.8149437,2.19115084 27.6288835,1.03160335 26.132824,1.03074302 C19.3738997,1.0267486 12.6149754,1.0267486 5.85605106,1.03086592 C4.36730397,1.03178771 3.18236878,2.19944693 3.1764938,3.66945251 C3.16786881,5.84020112 3.1741188,8.01107263 3.1752438,10.1820056 C3.1753063,10.2899777 3.18693128,10.3980112 3.19136877,10.4748268 C3.82424253,10.4748268 4.41667887,10.4748268 5.00417773,10.4748268 C5.00780272,10.4188436 5.01117771,10.4080894 5.00867772,10.3989944 C4.99517774,10.3500168 4.98080277,10.3012849 4.9655528,10.2528603 C4.65092842,9.25468715 4.85192802,8.37130726 5.59661407,7.62398324 C6.32542515,6.89257542 7.05973621,6.16596089 7.80773475,5.45372626 C8.81242029,4.49703352 10.3501673,4.48124022 11.3622903,5.42889944 C12.1463513,6.16313408 12.9058498,6.92324022 13.6622858,7.68531285 C14.1571598,8.18387709 14.4050969,8.79496089 14.360847,9.4954581 C14.340597,9.81617877 14.2603471,10.1332123 14.2036598,10.4738436 C15.4025324,10.4738436 16.6054676,10.4738436 17.8020277,10.4738436 C17.8100277,10.4287374 17.8152777,10.4180447 17.8129027,10.4093184 C17.7942152,10.3405531 17.7747153,10.2719721 17.7542778,10.2036369 C17.4664659,9.23920112 17.653278,8.37677654 18.3660891,7.65243575 C19.0973377,6.90922905 19.8428987,6.17905028 20.5975223,5.45882682 C21.6094578,4.4929162 23.1584548,4.48185475 24.1761403,5.44168156 C24.9575763,6.17868156 25.7239498,6.93221229 26.4731983,7.70079888 C27.0731346,8.31624581 27.2888842,9.06393855 27.1190095,9.90768156 C27.0816346,10.093514 27.0310097,10.2768268 26.9786348,10.494 C27.6025086,10.4938771 28.1907574,10.4938771 28.8106312,10.4938771 Z M1.07006041,15.717648 C11.0411659,15.717648 20.9813965,15.717648 30.952127,15.717648 C30.952127,15.1525922 30.960127,14.6116872 30.9501271,14.0711508 C30.9375646,13.3976927 30.6829401,12.8155531 30.213941,12.3276816 C29.6170672,11.7068268 28.8646311,11.4870112 28.0138828,11.4879944 C23.1915172,11.4934637 18.3691516,11.4908827 13.546786,11.4908212 C10.3284173,11.4908212 7.11004861,11.4879944 3.8916799,11.4915587 C2.40380781,11.4932179 1.28568499,12.3686704 1.08537288,13.7680056 C0.995123056,14.3980168 1.07006041,15.0509497 1.07006041,15.717648 Z M30.9346896,16.7588994 C20.9702715,16.7588994 11.024291,16.7588994 1.06993541,16.7588994 C1.06993541,17.4703352 1.06993541,18.1597709 1.06993541,18.8512346 C11.0387284,18.8512346 20.984084,18.8512346 30.9346896,18.8512346 C30.9346896,18.1407821 30.9346896,17.4592737 30.9346896,16.7588994 Z M22.3742063,10.5072123 C23.3940793,10.5072123 24.4141398,10.5016201 25.4340128,10.5113911 C25.6621999,10.5136034 25.8004496,10.4250503 25.9149494,10.2436425 C26.2966361,9.63864246 26.2247613,8.8758324 25.7020123,8.35176536 C24.9733262,7.62109497 24.2374527,6.89718436 23.4915791,6.18359777 C22.8940178,5.61190503 21.9432071,5.59058101 21.3417708,6.15539106 C20.5592723,6.89030168 19.7947113,7.64463128 19.0452753,8.41223464 C18.5622137,8.90698883 18.5155888,9.65947486 18.8719006,10.2320279 C18.9904004,10.4224693 19.1345251,10.5149553 19.3768372,10.5118827 C20.3758352,10.4991006 21.3750833,10.5065363 22.3742063,10.5072123 Z M9.59385626,10.5065363 C9.59385626,10.5073352 9.59385626,10.5081341 9.59385626,10.508933 C10.5929168,10.508933 11.5922274,10.4995307 12.5910379,10.5152626 C12.8595374,10.5194413 13.0151621,10.4185363 13.1415993,10.2043743 C13.4899112,9.61436872 13.4124113,8.86612291 12.9127248,8.36337989 C12.1926637,7.63897765 11.4641651,6.92231844 10.727104,6.21450838 C10.0799803,5.59310056 9.13148217,5.58812291 8.48229593,6.20731844 C7.74285988,6.91260894 7.01942379,7.63430726 6.29361271,8.35330168 C5.91380095,8.72951397 5.79267619,9.19446369 5.86855104,9.70826816 C5.95523837,10.2951397 6.21530036,10.5067821 6.81511169,10.5065978 C7.74135988,10.506352 8.66760807,10.5065363 9.59385626,10.5065363 Z" id="hotel"></path>
            </g>
        </g>
    </g>
</svg>