<?xml version="1.0" encoding="UTF-8"?>
<svg width="30px" height="30px" viewBox="0 0 30 30" version="1.1" xmlns="http://www.w3.org/2000/svg" xmlns:xlink="http://www.w3.org/1999/xlink">
    <!-- Generator: Sketch 46.2 (44496) - http://www.bohemiancoding.com/sketch -->
    <title>Group</title>
    <desc>Created with Sketch.</desc>
    <defs>
        <circle id="path-1" cx="15" cy="15" r="15"></circle>
    </defs>
    <g id="Page-2-Copy" stroke="none" stroke-width="1" fill="none" fill-rule="evenodd">
        <g id="Desktop" transform="translate(-1141.000000, -390.000000)">
            <g id="Group" transform="translate(1141.000000, 390.000000)">
                <mask id="mask-2" fill="white">
                    <use xlink:href="#path-1"></use>
                </mask>
                <circle stroke="#70C9DC" cx="15" cy="15" r="14.5"></circle>
                <path d="M22,21.9686879 L20.1204273,21.9686879 C19.7132595,19.2963445 19.2544004,19.8002676 19.6333369,23 L9.53048457,23 C9.90942106,19.8002676 9.45135723,19.2963445 9.0429965,21.9686879 L7,21.9686879 C7.67874563,16.2903063 10.7782314,12 14.5,12 C18.2217686,12 21.321652,16.2903063 22,21.9686879 Z" id="Fill-79" stroke="#70C9DC" mask="url(#mask-2)"></path>
                <path d="M14.4998004,5 C16.4318946,5 18,6.56721779 18,8.49960091 C18,10.4323831 16.4318946,12 14.4998004,12 C12.5673071,12 11,10.4323831 11,8.49960091 C11,6.56721779 12.5673071,5 14.4998004,5" id="Fill-78" stroke="#70C9DC" mask="url(#mask-2)"></path>
            </g>
        </g>
    </g>
</svg>