<?xml version="1.0" encoding="UTF-8"?>
<svg width="18px" height="18px" viewBox="0 0 18 18" version="1.1" xmlns="http://www.w3.org/2000/svg" xmlns:xlink="http://www.w3.org/1999/xlink">
    <!-- Generator: Sketch 39.1 (31720) - http://www.bohemiancoding.com/sketch -->
    <title>in</title>
    <desc>Created with Sketch.</desc>
    <defs></defs>
    <g id="Home_slicing" stroke="none" stroke-width="1" fill="none" fill-rule="evenodd">
        <g id="Artboard" transform="translate(-423.000000, -2484.000000)" fill="#FFFFFF">
            <g id="footer" transform="translate(-26.000000, 2196.000000)">
                <g id="in" transform="translate(449.000000, 288.000000)">
                    <g id="Group">
                        <g id="Page-1">
                            <g id="Artboard">
                                <g id="Group">
                                    <g id="1489749860_38-instagram">
                                        <g id="Layer_1">
                                            <g id="Group">
                                                <ellipse id="Oval" cx="9.08181818" cy="9" rx="3.6" ry="3.6"></ellipse>
                                                <path d="M13.5818182,0.163636363 L4.58181818,0.163636363 C3.27272727,0.163636363 2.12727273,0.572727273 1.3909091,1.3090909 C0.654545455,2.04545455 0.245454545,3.1909091 0.245454545,4.5 L0.245454545,13.5 C0.245454545,14.809091 0.654545455,15.9545455 1.47272727,16.7727273 C2.29090909,17.509091 3.35454545,17.9181818 4.66363637,17.9181818 L13.5818182,17.9181818 C14.8909091,17.9181818 16.0363637,17.509091 16.7727273,16.7727273 C17.590909,16.0363637 18,14.8909091 18,13.5818182 L18,4.58181818 C18,3.27272727 17.590909,2.20909091 16.8545455,1.3909091 C16.0363637,0.572727273 14.9727273,0.163636363 13.5818182,0.163636363 L13.5818182,0.163636363 L13.5818182,0.163636363 Z M9.08181818,14.5636363 C5.97272727,14.5636363 3.51818182,12.0272727 3.51818182,9 C3.51818182,5.8909091 6.05454545,3.43636363 9.08181818,3.43636363 C12.109091,3.43636363 14.7272727,5.8909091 14.7272727,9 C14.7272727,12.109091 12.1909091,14.5636363 9.08181818,14.5636363 L9.08181818,14.5636363 L9.08181818,14.5636363 Z M14.8909091,4.5 C14.1545455,4.5 13.5818182,3.92727273 13.5818182,3.1909091 C13.5818182,2.45454545 14.1545455,1.88181818 14.8909091,1.88181818 C15.6272727,1.88181818 16.2,2.45454545 16.2,3.1909091 C16.2,3.92727273 15.6272727,4.5 14.8909091,4.5 L14.8909091,4.5 L14.8909091,4.5 Z" id="Shape"></path>
                                            </g>
                                        </g>
                                    </g>
                                </g>
                            </g>
                        </g>
                    </g>
                </g>
            </g>
        </g>
    </g>
</svg>