<?xml version="1.0" encoding="UTF-8"?>
<svg width="20px" height="19px" viewBox="0 0 20 19" version="1.1" xmlns="http://www.w3.org/2000/svg" xmlns:xlink="http://www.w3.org/1999/xlink">
    <!-- Generator: Sketch 39.1 (31720) - http://www.bohemiancoding.com/sketch -->
    <title>li</title>
    <desc>Created with Sketch.</desc>
    <defs></defs>
    <g id="Home_slicing" stroke="none" stroke-width="1" fill="none" fill-rule="evenodd">
        <g id="Artboard" transform="translate(-427.000000, -2500.000000)" fill="#FFFFFF">
            <g id="footer" transform="translate(-26.000000, 2196.000000)">
                <g id="li" transform="translate(453.000000, 304.000000)">
                    <g id="XMLID_184_">
                        <g id="Page-1">
                            <g id="Artboard">
                                <g id="Group-2">
                                    <g id="li">
                                        <g id="1488467762_Linkedin_Solid">
                                            <g id="Page-1">
                                                <g id="home-page">
                                                    <g id="footer">
                                                        <g id="1488467762_Linkedin_Solid">
                                                            <g id="Layer_1">
                                                                <g id="XMLID_184_">
                                                                    <path d="M0.305857398,6.28697501 L4.22374502,6.28697501 L4.22374502,18.9340294 L0.305857398,18.9340294 L0.305857398,6.28697501 L0.305857398,6.28697501 L0.305857398,6.28697501 L0.305857398,6.28697501 Z M2.27208353,0 C3.52464239,0 4.54416705,1.02346105 4.54416705,2.28085605 C4.54416705,3.53825105 3.52464239,4.5617121 2.27208353,4.5617121 C1.01224234,4.5617121 0,3.53825105 0,2.28085605 C0,1.02346105 1.01224234,0 2.27208353,0 L2.27208353,0 L2.27208353,0 L2.27208353,0 Z" id="XMLID_195_"></path>
                                                                    <path d="M7.2,5.90703832 L10.9503943,5.90703832 L10.9503943,7.63961164 L11.0013706,7.63961164 C11.5256975,6.64539235 12.8001034,5.6 14.708071,5.6 C18.6696525,5.6 19.4051666,8.21713616 19.4051666,11.6237994 L19.4051666,18.5540927 L15.4945614,18.5540927 L15.4945614,12.4060159 C15.4945614,10.9366183 15.4727144,9.05052576 13.4627944,9.05052576 C11.423745,9.05052576 11.1178876,10.6515114 11.1178876,12.2963594 L11.1178876,18.5540927 L7.20728234,18.5540927 L7.2,5.90703832 L7.2,5.90703832 L7.2,5.90703832 L7.2,5.90703832 L7.2,5.90703832 Z" id="XMLID_192_"></path>
                                                                </g>
                                                            </g>
                                                        </g>
                                                    </g>
                                                </g>
                                            </g>
                                        </g>
                                    </g>
                                </g>
                            </g>
                        </g>
                    </g>
                </g>
            </g>
        </g>
    </g>
</svg>