<?xml version="1.0" encoding="UTF-8"?>
<svg width="131px" height="25px" viewBox="0 0 131 25" version="1.1" xmlns="http://www.w3.org/2000/svg" xmlns:xlink="http://www.w3.org/1999/xlink">
    <!-- Generator: Sketch 46.2 (44496) - http://www.bohemiancoding.com/sketch -->
    <title>Group</title>
    <desc>Created with Sketch.</desc>
    <defs></defs>
    <g id="Page-1" stroke="none" stroke-width="1" fill="none" fill-rule="evenodd">
        <g id="NEW-LOGO-WITH-TGL" transform="translate(-202.000000, -7.000000)">
            <g id="Group" transform="translate(202.000000, 7.000000)">
                <path d="M8.7358796,13.4561462 L14.9993194,5.95562882 C15.8457928,4.91680539 17.453822,6.24412537 16.5513803,7.22458131 L10.0055897,14.8414406 L16.7493925,22.717711 C17.7087676,23.9290821 16.2696085,25.1119573 15.1693475,23.9874496 L8.73645859,16.3409152 L2.21865217,23.9874496 C1.17474553,25.1410428 -0.264413605,23.8129367 0.695154484,22.688429 L7.41020116,14.8414406 L0.892973731,7.16699991 C0.0744845379,6.21445032 1.59798222,4.9453013 2.4444556,5.92556072 L8.7358796,13.4561462" id="Fill-15" fill="#B78132"></path>
                <path d="M32.7855468,23.5043586 C31.4391249,24.1353589 29.9236327,24.5359629 28.5772109,24.5359629 C23.7793357,24.5359629 19.4593097,20.520347 19.4593097,14.8401725 C19.4593097,10.1355177 22.7416927,6.40638261 27.0622944,5.71714824 C30.3446774,5.25850546 33.2065915,6.09019854 35.4231212,8.47154531 C36.2648267,9.44784668 34.7497183,10.6232776 33.9644335,9.76266284 C32.0562989,7.69730472 29.8397692,7.38248856 27.3708814,7.66838306 C23.9201956,8.21281373 21.4795182,10.7090655 21.4795182,14.8692896 C21.4795182,19.2288387 24.7619012,22.5565881 28.6332478,22.5565881 C29.6712746,22.5565881 30.8215671,22.2695211 31.8878043,21.7254813 C32.7579121,21.2662522 33.5988501,20.5777995 34.1876217,19.802191 C34.833198,18.827453 36.5444357,19.8893468 35.8149959,20.9500682 C35.0584972,22.0416653 33.9920682,22.9009122 32.7855468,23.5043586" id="Fill-16" fill="#B78132"></path>
                <path d="M41.611242,22.4608717 L53.0404614,22.4608717 C54.2553504,22.4608717 54.4289342,24.4140783 53.0404614,24.4140783 L40.8581217,24.4140783 C40.0479978,24.4140783 39.5274442,23.8225334 39.5274442,23.1122765 L39.5274442,6.86847392 C39.5274442,6.18784459 40.0479978,5.5962997 40.8581217,5.5962997 L53.0689632,5.5962997 C54.3131457,5.5962997 54.2553504,7.49004954 53.0404614,7.49004954 L41.611242,7.49004954 L41.611242,14.1469954 L52.4912081,14.1469954 C53.6481038,14.1469954 53.7068888,16.0407453 52.4912081,16.0407453 L41.611242,16.0407453 L41.611242,22.4608717" id="Fill-17" fill="#B78132"></path>
                <path d="M57.9815314,23.3287062 L57.9815314,6.49205138 C57.9815314,5.11335707 60.1040711,5.11335707 60.1040711,6.49205138 L60.1040711,22.4783116 L70.8329333,22.4783116 C72.2961652,22.4783116 72.2961652,24.414478 70.8329333,24.414478 L59.071744,24.414478 C58.2970573,24.4140783 57.9815314,24.033239 57.9815314,23.3287062 Z" id="Fill-18" fill="#B78132"></path>
                <path d="M84.8879647,7.75265752 L78.4913046,7.55284675 C78.4913046,12.8330461 78.5185796,18.0011517 78.5185796,23.2819505 C78.5185796,24.0148564 77.9163724,24.3673226 77.4289555,24.3673226 C76.9429122,24.3673226 76.3974134,24.0148564 76.3974134,23.2819505 L76.3974134,7.55284675 L70.0290094,7.55284675 C68.6813527,7.55284675 68.6813527,5.52896347 70.0290094,5.52896347 L84.8879647,5.52896347 C86.2931146,5.52896347 86.2931146,7.75265752 84.8879647,7.75265752 Z" id="Fill-19" fill="#0A0B09"></path>
                <path d="M90.5081719,17.6732622 L90.5081719,23.3638729 C90.5081719,24.7135947 88.4142807,24.7135947 88.4142807,23.3934449 L88.4142807,6.55539139 C88.4142807,5.94057365 88.8436158,5.52896347 89.4754525,5.52896347 L96.2741726,5.52896347 C101.236838,5.52896347 103.761242,8.40444025 103.761242,11.8361902 C103.761242,14.7989843 102.18322,16.9397569 98.6555299,17.5563729 L103.302277,22.6897114 C104.393078,23.803057 102.81486,25.0940344 101.868479,24.0973783 L96.0742218,17.6732622 L90.5081719,17.6732622 Z M90.5081719,15.8254122 L96.303606,15.8254122 C100.060876,15.8254122 101.695803,14.0363066 101.639094,11.8361902 C101.610642,9.43106798 99.6303637,7.4943022 96.303606,7.4943022 L90.5081719,7.4943022 L90.5081719,15.8254122 L90.5081719,15.8254122 Z" id="Fill-20" fill="#0A0B09"></path>
                <path d="M109.812354,6.6471107 L109.812354,23.3470605 C109.812354,24.6935799 107.660381,24.7507811 107.660381,23.3470605 L107.660381,6.6471107 C107.660381,5.18379727 109.812354,5.21349405 109.812354,6.6471107 Z" id="Fill-21" fill="#0A0B09"></path>
                <path d="M116.235896,18.6996901 L116.235896,23.4226173 C116.235896,24.7715398 114.171635,24.7419678 114.171635,23.4509904 L114.171635,6.55479196 C114.171635,5.93977441 114.658855,5.52836404 115.23261,5.52836404 L121.457575,5.52836404 C126.420241,5.52836404 128.743712,8.90196907 128.743712,12.2755741 C128.743712,15.795041 126.391985,18.6996901 121.371237,18.6996901 L116.235896,18.6996901 Z M116.235896,16.7924963 L121.371237,16.7924963 C125.186393,16.7924963 126.764611,14.5054623 126.70653,12.2763733 C126.678273,9.87045187 124.813766,7.43615726 121.486028,7.43615726 L116.235896,7.43615726 L116.235896,16.7924963 L116.235896,16.7924963 Z" id="Fill-22" fill="#0A0B09"></path>
                <path d="M126.034467,3.04391693 L126.034467,0.487537946 L125.096916,0.487537946 L125.096916,0.147659828 L127.349355,0.147659828 L127.349355,0.487537946 L126.411803,0.487537946 L126.411803,3.04391693 L126.034467,3.04391693 Z M127.730027,3.04391693 L127.730027,0.147659828 L128.29397,0.147659828 L128.966621,2.19771832 C129.02902,2.38853761 129.073955,2.53140231 129.102407,2.62651223 C129.134784,2.52141177 129.185802,2.36635861 129.254676,2.16195219 L129.939297,0.147659828 L130.443,0.147659828 L130.443,3.04391693 L130.081558,3.04391693 L130.081558,0.62081173 L129.25134,3.04391693 L128.912464,3.04391693 L128.091469,0.576453739 L128.091469,3.04391693 L127.730027,3.04391693 L127.730027,3.04391693 Z" id="Fill-25" fill="#0A0B09"></path>
            </g>
        </g>
    </g>
</svg>