<?xml version="1.0" encoding="UTF-8"?>
<svg width="43px" height="44px" viewBox="0 0 43 44" version="1.1" xmlns="http://www.w3.org/2000/svg" xmlns:xlink="http://www.w3.org/1999/xlink">
    <!-- Generator: Sketch 46.2 (44496) - http://www.bohemiancoding.com/sketch -->
    <title>Group 2</title>
    <desc>Created with Sketch.</desc>
    <defs></defs>
    <g id="Page-1" stroke="none" stroke-width="1" fill="none" fill-rule="evenodd">
        <g id="NEW-LOGO-WITH-TGL" transform="translate(-149.000000, 0.000000)">
            <g id="Group-2" transform="translate(149.000000, 0.000000)">
                <path d="M21.8956929,0.453 L21.7016287,0.453 C10.1203756,0.506549286 0.748,10.081881 0.748,21.8875005 C0.748,33.7258889 10.172767,43.323 21.7985627,43.323 C33.4245546,43.323 42.8493216,33.7258889 42.8493216,21.8875005 C42.8493216,10.081881 33.4769461,0.506549286 21.8956929,0.453" id="Fill-3" fill="#0A0B09"></path>
                <path d="M40.0704174,11.2361878 L32.3671111,19.080359 L33.0756709,19.8020755 L40.5680378,12.1729007 C40.40949,11.8560008 40.2436819,11.5436966 40.0704174,11.2361878" id="Fill-4" fill="#D39930"></path>
                <path d="M39.0983307,9.6740672 L30.8634575,18.0597256 L31.5720172,18.7814421 L39.6616857,10.5440433 C39.4805723,10.2491226 39.2927873,9.95899735 39.0983307,9.6740672" id="Fill-5" fill="#D39930"></path>
                <path d="M12.2756844,36.6880836 L6.5716901,36.6880836 C6.7341624,36.8613195 6.90036293,37.0309589 7.06832946,37.1986001 L15.533568,37.1986001 L15.533568,36.6880836 L12.2756844,36.6880836" id="Fill-6" fill="#B78132"></path>
                <path d="M16.2852967,16.2734173 C16.2852967,16.2734173 18.2902991,14.2317508 19.2926041,14.7422674 C19.2926041,13.2111174 20.2951053,12.1902842 20.2951053,12.1902842 L23.8795032,8.54034089 C25.4445745,6.94665019 27.9836948,6.94844849 29.5499435,8.54353786 L32.6139591,11.6633832 C34.1806003,13.2586724 34.18217,15.8438241 32.6139591,17.4407118 L19.9379801,30.3484875 C18.3711428,31.9439765 15.8304528,31.9433771 14.2642041,30.3484875 L11.2003847,27.2286421 C9.63354732,25.633353 9.63629443,23.0440052 11.2011695,21.4505143 L16.2852967,16.2734173" id="Fill-7" fill="#B78132"></path>
                <path d="M25.1292449,9.81952944 C26.6962784,8.22404044 29.2350062,8.22264177 30.804002,9.82032868 L34.1168279,13.1935341 C35.6838615,14.7894227 35.6858237,17.3749741 34.1174166,18.9718617 L21.4416338,31.8796374 C19.8747965,33.4751264 17.3358724,33.4763253 15.7668767,31.8788382 L12.454247,28.5056328 C10.8870172,26.9097442 10.885055,24.3241928 12.4534621,22.7271053 L25.1292449,9.81952944" id="Fill-8" fill="#D39930"></path>
                <path d="M21.2974102,33.8811419 C21.2974102,32.3308101 20.0633664,31.0740004 18.5408753,31.0740004 C17.0183843,31.0740004 15.7841442,32.3308101 15.7841442,33.8811419 C15.7841442,35.4314737 17.0183843,36.6880836 18.5408753,36.6880836 C20.0633664,36.6880836 21.2974102,35.4314737 21.2974102,33.8811419" id="Fill-9" fill="#0A0B09"></path>
                <path d="M16.7866454,33.8811419 C16.7866454,32.8944763 17.5719282,32.0948336 18.5408753,32.0948336 C19.5096262,32.0948336 20.2951053,32.8944763 20.2951053,33.8811419 C20.2951053,34.8676077 19.5096262,35.6674502 18.5408753,35.6674502 C17.5719282,35.6674502 16.7866454,34.8676077 16.7866454,33.8811419" id="Fill-10" fill="#B78132"></path>
                <polygon id="Fill-11" fill="#B78132" points="16.7638836 36.1863588 19.7992508 36.1863588 19.7992508 35.6586585 16.7638836 35.6586585"></polygon>
                <polygon id="Fill-12" fill="#B78132" points="10.0144154 36.1863588 15.5422018 36.1863588 15.5422018 35.6586585 10.0144154 35.6586585"></polygon>
                <polyline id="Fill-13" fill="#0A0B09" points="25.9129579 16.4180803 26.2673358 16.057222 25.5585799 15.3355055 17.741857 23.2951673 18.4508092 24.0168838 25.9129579 16.4180803"></polyline>
                <polyline id="Fill-14" fill="#0A0B09" points="28.379672 18.9299015 28.73405 18.5690432 28.0254902 17.8471269 20.2085711 25.8067887 20.9173271 26.528705 28.379672 18.9299015"></polyline>
            </g>
        </g>
    </g>
</svg>