<?xml version="1.0" encoding="UTF-8"?>
<svg width="181px" height="42px" viewBox="0 0 181 42" version="1.1" xmlns="http://www.w3.org/2000/svg" xmlns:xlink="http://www.w3.org/1999/xlink">
    <!-- Generator: Sketch 46.2 (44496) - http://www.bohemiancoding.com/sketch -->
    <title>logo</title>
    <desc>Created with Sketch.</desc>
    <defs>
        <path d="M21,42 C32.5979798,42 42,32.5979798 42,21 C42,9.40202025 32.5979798,0 21,0 C9.40202025,0 0,9.40202025 0,21 C0,32.5979798 9.40202025,42 21,42 Z" id="path-1"></path>
        <path d="M21,42 C32.5979798,42 42,32.5979798 42,21 C42,9.40202025 32.5979798,0 21,0 C9.40202025,0 0,9.40202025 0,21 C0,32.5979798 9.40202025,42 21,42 Z" id="path-3"></path>
        <path d="M21,42 C32.5979798,42 42,32.5979798 42,21 C42,9.40202025 32.5979798,0 21,0 C9.40202025,0 0,9.40202025 0,21 C0,32.5979798 9.40202025,42 21,42 Z" id="path-5"></path>
        <path d="M21,42 C32.5979798,42 42,32.5979798 42,21 C42,9.40202025 32.5979798,0 21,0 C9.40202025,0 0,9.40202025 0,21 C0,32.5979798 9.40202025,42 21,42 Z" id="path-7"></path>
    </defs>
    <g id="Page-1" stroke="none" stroke-width="1" fill="none" fill-rule="evenodd">
        <g id="logo">
            <g id="Group-3">
                <g id="Group">
                    <g id="Oval-2" fill-rule="nonzero" fill="#000000">
                        <path d="M21,42 C32.5979798,42 42,32.5979798 42,21 C42,9.40202025 32.5979798,0 21,0 C9.40202025,0 0,9.40202025 0,21 C0,32.5979798 9.40202025,42 21,42 Z" id="path-1"></path>
                    </g>
                    <g id="Line-Clipped">
                        <mask id="mask-2" fill="white">
                            <use xlink:href="#path-1"></use>
                        </mask>
                        <g id="path-1"></g>
                        <polygon id="Line" fill="#DEA021" fill-rule="nonzero" mask="url(#mask-2)" points="44.3535534 6.8535534 44.7071068 6.5 44 5.7928932 43.6464466 6.1464466 31.8964466 17.8964466 31.5428932 18.25 32.25 18.9571068 32.6035534 18.6035534"></polygon>
                    </g>
                    <g id="Line-Copy-Clipped">
                        <mask id="mask-4" fill="white">
                            <use xlink:href="#path-3"></use>
                        </mask>
                        <g id="path-1"></g>
                        <polygon id="Line-Copy" fill="#DEA021" fill-rule="nonzero" mask="url(#mask-4)" points="43.1451479 5.5619588 43.4987013 5.2084054 42.7915945 4.50129864 42.4380411 4.85485203 30.3964466 16.8964466 30.0428932 17.25 30.75 17.9571068 31.1035534 17.6035534"></polygon>
                    </g>
                    <g id="Line-Copy-4-Clipped">
                        <mask id="mask-6" fill="white">
                            <use xlink:href="#path-5"></use>
                        </mask>
                        <g id="path-1"></g>
                        <polygon id="Line-Copy-4" fill="#C3870E" fill-rule="nonzero" mask="url(#mask-6)" points="11.5 35.5 4.75 35.5 4.5 35.5 4.5 36 4.75 36 11.5 36 14.5 36 14.75 36 14.75 35.5 14.5 35.5"></polygon>
                    </g>
                    <g id="Line-Clipped">
                        <mask id="mask-8" fill="white">
                            <use xlink:href="#path-7"></use>
                        </mask>
                        <g id="path-1"></g>
                        <polygon id="Line" fill="#DEA021" fill-rule="nonzero" mask="url(#mask-8)" points="44.3409902 6.69454365 44.517767 6.87132035 44.8713203 6.51776695 44.6945436 6.34099025 42.9267767 4.5732233 42.75 4.39644661 42.3964466 4.75 42.5732233 4.92677669"></polygon>
                    </g>
                </g>
                <path d="M14.9447541,20.3760164 C14.9447541,20.3760164 14.9447541,17.547589 16.0054142,17.1940362 C14.9447541,16.1333759 14.9447541,14.7191621 14.9447541,14.7191621 L14.9447541,9.66222377 C14.9447541,7.45420337 16.7372044,5.66424917 18.9469747,5.66424917 L23.2695243,5.66424917 C25.4798897,5.66424917 27.2717449,7.45385032 27.2717449,9.66667062 L27.2717449,27.5498282 C27.2717449,29.7603045 25.4792946,31.5522496 23.2695243,31.5522496 L18.9469747,31.5522496 C16.7366093,31.5522496 14.9447541,29.7565944 14.9447541,27.5489405 L14.9447541,20.3760164 Z" id="Rectangle-Copy" fill="#C3870E" fill-rule="nonzero" transform="translate(21.108249, 18.608249) rotate(45.000000) translate(-21.108249, -18.608249) "></path>
                <rect id="Rectangle" fill="#DEA021" fill-rule="nonzero" transform="translate(22.483249, 19.983249) rotate(45.000000) translate(-22.483249, -19.983249) " x="16.1429773" y="7.03924918" width="12.6805443" height="25.8880005" rx="6.34027215"></rect>
                <path d="M20.5,32.75 C20.5,31.2312169 19.268783,30 17.75,30 C16.2312169,30 15,31.2312169 15,32.75 C15,34.268783 16.2312169,35.5 17.75,35.5 C19.268783,35.5 20.5,34.268783 20.5,32.75 Z" id="Oval" fill="#000000" fill-rule="nonzero"></path>
                <path d="M16,32.75 C16,31.7835017 16.7835017,31 17.75,31 C18.7164983,31 19.5,31.7835017 19.5,32.75 C19.5,33.7164983 18.7164983,34.5 17.75,34.5 C16.7835017,34.5 16,33.7164983 16,32.75 Z" id="Path" fill="#C3870E" fill-rule="nonzero"></path>
                <g id="Group-2" transform="translate(9.000000, 34.500000)" fill-rule="nonzero" fill="#C3870E">
                    <polygon id="Line-Copy-3" points="7.2333518 0 6.9833518 0 6.9833518 0.5 7.2333518 0.5 9.75 0.5 10 0.5 10 0 9.75 0"></polygon>
                    <polygon id="Line" points="0.5 0 0.25 0 0.25 0.5 0.5 0.5 5.5 0.5 5.75 0.5 5.75 0 5.5 0"></polygon>
                </g>
                <polygon id="Line-Copy-2" fill="#000000" fill-rule="nonzero" points="25.104503 15.6418565 25.4580564 15.2883031 24.7509496 14.5811963 24.3973962 14.9347497 17.3065712 22.0255746 16.9530178 22.379128 17.6601245 23.0862348 18.013678 22.7326815"></polygon>
                <polygon id="Line-Copy-5" fill="#000000" fill-rule="nonzero" points="27.5652504 18.1026039 27.9188038 17.7490505 27.211697 17.0419437 26.8581436 17.3954971 19.7673186 24.486322 19.4137652 24.8398755 20.120872 25.5469822 20.4744254 25.1934289"></polygon>
            </g>
            <g id="Group" transform="translate(52.500000, 11.000000)" fill-rule="nonzero">
                <path d="M8.48054245,8.41785125 L14.8334642,0.94677686 C15.6920205,-0.0879338845 17.3228825,1.23438016 16.4077036,2.21090909 L9.76837695,9.79768595 L16.6085162,17.6429752 C17.5816345,18.8495868 16.121957,20.0277686 15.0059655,18.9077686 L8.48120085,11.2912396 L1.87018554,18.9077686 C0.81147499,20.0568595 -0.64820243,18.7338843 0.324915849,17.6138843 L7.1360854,9.79768595 L0.525728485,2.15338843 C-0.304516544,1.2046281 1.24075315,-0.059504132 2.09930947,0.917024795 L8.48054245,8.41785125 L8.48054245,8.41785125 Z" id="Shape" fill="#C3870E"></path>
                <path d="M32.6320477,18.4191736 C31.258621,19.0512396 29.7126929,19.452562 28.3392662,19.452562 C23.4453634,19.452562 19.0386783,15.4300826 19.0386783,9.7401653 C19.0386783,5.027438 22.3866529,1.29190082 26.7939965,0.601652895 C30.141971,0.14214876 33.0613259,0.97520661 35.3222787,3.36066115 C36.1808349,4.3385124 34.6355652,5.51603305 33.8342899,4.6538843 C31.8880533,2.58512396 29.6271006,2.26975207 27.1087127,2.55603306 C23.5888951,3.1014876 21.0994768,5.60198345 21.0994768,9.7692562 C21.0994768,14.1361984 24.4474514,17.4697521 28.3965471,17.4697521 C29.4552577,17.4697521 30.6285302,17.1821487 31.7162104,16.6373553 C32.6037364,16.1771901 33.4616343,15.4876033 34.062097,14.7107438 C34.7204992,13.7342149 36.4659231,14.7980165 35.7219287,15.8604958 C34.9502814,16.9540496 33.8626012,17.814876 32.6320477,18.4191736 L32.6320477,18.4191736 Z" id="Shape" fill="#C3870E"></path>
                <path d="M41.243947,17.2403306 L52.547394,17.2403306 C53.748978,17.2403306 53.9208205,19.1371901 52.547394,19.1371901 L40.4992942,19.1371901 C39.6980189,19.1371901 39.1831484,18.5626446 39.1831484,17.8730578 L39.1831484,2.09652892 C39.1831484,1.4353719 39.6980189,0.860826445 40.4992942,0.860826445 L52.5757055,0.860826445 C53.8062585,0.860826445 53.748978,2.70016529 52.547394,2.70016529 L41.243947,2.70016529 L41.243947,9.16561985 L52.004212,9.16561985 C53.148515,9.16561985 53.2064545,11.0049587 52.004212,11.0049587 L41.243947,11.0049587 L41.243947,17.2403306 L41.243947,17.2403306 Z" id="Shape" fill="#C3870E"></path>
                <path d="M58.5559715,19.1371901 C57.7830075,19.1371901 57.468291,18.7642975 57.468291,18.0740496 L57.468291,1.57950413 C57.468291,0.22876033 59.585712,0.22876033 59.585712,1.57950413 L59.585712,17.2409917 L70.2886965,17.2409917 C71.748374,17.2409917 71.748374,19.1378513 70.2886965,19.1378513 L58.5559715,19.1378513 L58.5559715,19.1371901 Z" id="Shape" fill="#C3870E"></path>
                <path d="M84.309369,0.831735535 C85.7117655,0.831735535 85.7117655,2.81454546 84.309369,2.81454546 L77.928136,2.81454546 C77.928136,7.987438 77.956447,13.246281 77.956447,18.4198347 C77.956447,19.1378513 77.355326,19.4829752 76.8694255,19.4829752 C76.3835245,19.4829752 75.8396845,19.1378513 75.8396845,18.4198347 L75.8396845,2.81454546 L69.486763,2.81454546 C68.1423055,2.81454546 68.1423055,0.831735535 69.486763,0.831735535 L84.309369,0.831735535 L84.309369,0.831735535 Z" id="Shape" fill="#000000"></path>
                <path d="M89.916321,12.7292562 L89.916321,18.3041322 C89.916321,19.6264463 87.8278695,19.6264463 87.8278695,18.3332231 L87.8278695,1.83735537 C87.8278695,1.23504132 88.2564895,0.831735535 88.88658,0.831735535 L95.66878,0.831735535 C100.619305,0.831735535 103.137693,3.64892562 103.137693,7.0109091 C103.137693,9.91338845 101.564112,12.0105785 98.044295,12.614876 L102.680104,17.6436364 C103.767784,18.7345454 102.193545,19.9993389 101.249396,19.0228099 L95.468626,12.7292562 L89.916321,12.7292562 L89.916321,12.7292562 Z M89.916321,10.9190083 L95.69775,10.9190083 C99.446033,10.9190083 101.077553,9.166281 101.020272,7.0109091 C100.991961,4.65454546 99.0167545,2.7570248 95.69775,2.7570248 L89.916321,2.7570248 L89.916321,10.9190083 L89.916321,10.9190083 Z" id="Shape" fill="#000000"></path>
                <path d="M107.027533,1.23438016 C107.027533,-0.202975206 109.173924,-0.173884297 109.173924,1.23438016 L109.173924,18.4191735 C109.173924,19.7414876 107.027533,19.797686 107.027533,18.4191735 L107.027533,1.23438016 L107.027533,1.23438016 Z" id="Shape" fill="#000000"></path>
                <path d="M115.582809,13.7348761 L115.582809,18.3616529 C115.582809,19.6833058 113.52267,19.6542149 113.52267,18.3894215 L113.52267,1.83669422 C113.52267,1.23438016 114.009229,0.83107438 114.58138,0.83107438 L120.791428,0.83107438 C125.741953,0.83107438 128.060188,4.13619835 128.060188,7.4413223 C128.060188,10.8892562 125.714301,13.7348761 120.705178,13.7348761 L115.582809,13.7348761 L115.582809,13.7348761 Z M115.582809,11.8664463 L120.705178,11.8664463 C124.5114,11.8664463 126.085639,9.6257851 126.028358,7.44198345 C126.000047,5.0849587 124.140062,2.70016529 120.819739,2.70016529 L115.582809,2.70016529 L115.582809,11.8664463 L115.582809,11.8664463 Z" id="Shape" fill="#000000"></path>
            </g>
        </g>
    </g>
</svg>
