<?xml version="1.0" encoding="UTF-8"?>
<svg width="68px" height="68px" viewBox="0 0 68 68" version="1.1" xmlns="http://www.w3.org/2000/svg" xmlns:xlink="http://www.w3.org/1999/xlink">
    <!-- Generator: Sketch 39.1 (31720) - http://www.bohemiancoding.com/sketch -->
    <title>mail</title>
    <desc>Created with Sketch.</desc>
    <defs>
        <circle id="path-1" cx="34" cy="34" r="34"></circle>
        <mask id="mask-2" maskContentUnits="userSpaceOnUse" maskUnits="objectBoundingBox" x="0" y="0" width="68" height="68" fill="white">
            <use xlink:href="#path-1"></use>
        </mask>
    </defs>
    <g id="Home-page-v1-Copy" stroke="none" stroke-width="1" fill="none" fill-rule="evenodd">
        <g id="Desktop-HD" transform="translate(-688.000000, -1309.000000)">
            <g id="subscribe" transform="translate(645.000000, 1271.000000)">
                <g id="mail" transform="translate(43.000000, 38.000000)">
                    <rect id="Rectangle" x="0" y="0" width="68" height="68"></rect>
                    <use id="Oval" stroke="#F0F0F0" mask="url(#mask-2)" stroke-width="4" xlink:href="#path-1"></use>
                    <path d="M20.2633014,29.2584182 C20.6934247,29.5392874 21.9898493,30.3737041 24.1528082,31.7610215 C26.3157671,33.1483389 27.9726849,34.2166336 29.1237945,34.9656902 C29.2502466,35.0478169 29.5189863,35.2262972 29.9300137,35.5013464 C30.3410411,35.7766112 30.6826712,35.9992804 30.9544384,36.1689229 C31.2264384,36.3385653 31.5552603,36.5289011 31.941137,36.7394992 C32.3270137,36.9500972 32.6907671,37.1083152 33.0321644,37.2132909 C33.3737945,37.3189133 33.6900411,37.3712934 33.9809041,37.3712934 L34,37.3712934 L34.0190959,37.3712934 C34.3099589,37.3712934 34.6262055,37.3189133 34.9678356,37.2132909 C35.3092329,37.1083152 35.6732192,36.9498817 36.058863,36.7394992 C36.4445068,36.5286856 36.7733288,36.3385653 37.0453288,36.1689229 C37.3173288,35.9992804 37.658726,35.7766112 38.0697534,35.5013464 C38.4807808,35.2260816 38.7497534,35.0478169 38.8762055,34.9656902 C40.0396575,34.2164181 42.9997534,32.3139222 47.7555616,29.2579871 C48.6789178,28.6611129 49.4502055,27.9409409 50.0701233,27.097902 C50.690274,26.2552942 51,25.3712997 51,24.4463496 C51,23.6735819 50.6993562,23.012041 50.0985342,22.461727 C49.4977123,21.9114129 48.7860411,21.6363636 47.9642192,21.6363636 L20.0355479,21.6363636 C19.0616575,21.6363636 18.3122603,21.9407285 17.7873562,22.5494582 C17.2624521,23.1584034 17,23.9195311 17,24.8326256 C17,25.5702577 17.3479178,26.3695388 18.0435205,27.2300377 C18.7391233,28.0905366 19.4792055,28.7667353 20.2633014,29.2584182 Z M49.1025205,31.1374184 C44.9540548,33.7363752 41.8041644,35.7561334 39.6542466,37.196262 C38.9332603,37.6879449 38.348274,38.0716343 37.8990548,38.346468 C37.4500685,38.6217328 36.8525068,38.902602 36.106137,39.1895069 C35.36,39.4764117 34.6643973,39.6197563 34.0193288,39.6197563 L34,39.6197563 L33.9809041,39.6197563 C33.3358356,39.6197563 32.64,39.4764117 31.893863,39.1895069 C31.147726,38.902602 30.5499315,38.6217328 30.1009452,38.346468 C29.6519589,38.0716343 29.0669726,37.6879449 28.3459863,37.196262 C26.6383014,36.0372183 23.4951644,34.01746 18.9163425,31.1374184 C18.1953562,30.6927267 17.5565753,30.1831527 17,29.6095586 L17,43.5534349 C17,44.3264181 17.2971507,44.9877434 17.8916849,45.5380575 C18.4862192,46.0885871 19.2009178,46.3636364 20.0357808,46.3636364 L47.9644521,46.3636364 C48.7990822,46.3636364 49.5137808,46.0885871 50.1083151,45.5380575 C50.7030822,44.9875279 51,44.3264181 51,43.5534349 L51,29.6095586 C50.456,30.1712972 49.8237397,30.6808712 49.1025205,31.1374184 Z" id="Shape" fill="#F0F0F0"></path>
                </g>
            </g>
        </g>
    </g>
</svg>