<?xml version="1.0" encoding="UTF-8"?>
<svg width="36px" height="36px" viewBox="0 0 36 36" version="1.1" xmlns="http://www.w3.org/2000/svg" xmlns:xlink="http://www.w3.org/1999/xlink">
    <!-- Generator: Sketch 50.2 (55047) - http://www.bohemiancoding.com/sketch -->
    <title>mail</title>
    <desc>Created with Sketch.</desc>
    <defs></defs>
    <g id="Home-Page-Copy" stroke="none" stroke-width="1" fill="none" fill-rule="evenodd">
        <g id="Desktop-HD-Copy" transform="translate(-136.000000, -1862.000000)">
            <g id="newsletter" transform="translate(115.000000, 1836.000000)">
                <g id="mail" transform="translate(21.000000, 26.000000)">
                    <rect id="Rectangle" x="0" y="0" width="36" height="36"></rect>
                    <circle id="Oval" stroke="#003C75" stroke-width="2" cx="18" cy="18" r="17"></circle>
                    <path d="M10.7276301,15.0071831 C10.3125205,14.748688 9.92071233,14.3931865 9.55245205,13.9407919 C9.18419178,13.4883972 9,13.068187 9,12.6803877 C9,12.2003417 9.13894521,11.80019 9.41683562,11.480046 C9.69472603,11.1600153 10.0914658,11 10.6070548,11 L25.3928219,11 C25.8279041,11 26.2046712,11.1446031 26.5227534,11.4339226 C26.8408356,11.7232422 27,12.0710375 27,12.4773088 C27,12.9635877 26.8360274,13.4283348 26.5077123,13.8713235 C26.1795205,14.3145388 25.7711918,14.6931586 25.2823562,15.0069564 C22.7645753,16.6135694 21.1974658,17.6137786 20.5815205,18.0076974 C20.5145753,18.0508743 20.3721781,18.1445944 20.1545753,18.2893108 C19.9369726,18.4340272 19.7562329,18.5510923 19.6122329,18.6402793 C19.4682329,18.7294663 19.2941507,18.8294193 19.0899863,18.9402514 C18.8858219,19.0508569 18.6931233,19.134151 18.5123836,19.1893404 C18.3315205,19.2448699 18.1640959,19.2724079 18.0101096,19.2724079 L18,19.2724079 L17.9898904,19.2724079 C17.8359041,19.2724079 17.6684795,19.2448699 17.4876164,19.1893404 C17.3068767,19.134151 17.1143014,19.0509702 16.9100137,18.9402514 C16.705726,18.8295326 16.5316438,18.7294663 16.3876438,18.6402793 C16.2437671,18.5510923 16.0629041,18.4340272 15.8453014,18.2893108 C15.6276986,18.1447077 15.4854247,18.0508743 15.4184795,18.0076974 C14.8090685,17.6138919 13.9318767,17.0522517 12.7867808,16.32289 C11.6416849,15.5935283 10.9553425,15.154846 10.7276301,15.0071831 Z M25.9954521,15.9950398 C26.377274,15.7550168 26.712,15.4871158 27,15.19179 L27,22.5225779 C27,22.9289625 26.8428082,23.2765312 26.5279315,23.565964 C26.2131781,23.8553969 25.8348082,24 25.3929452,24 L10.6071781,24 C10.1651918,24 9.78682192,23.8553969 9.47206849,23.565964 C9.15731507,23.2766445 9,22.9289625 9,22.5225779 L9,15.19179 C9.29465753,15.4933487 9.63283562,15.7612497 10.0145342,15.9950398 C12.4386164,17.5091794 14.1026301,18.5710375 15.0066986,19.1803877 C15.3883973,19.4388828 15.6980959,19.6406018 15.9357945,19.7850916 C16.1734932,19.929808 16.4899726,20.0774709 16.8849863,20.2283069 C17.28,20.3791429 17.6483836,20.4545042 17.9898904,20.4545042 L18,20.4545042 L18.0102329,20.4545042 C18.3517397,20.4545042 18.72,20.3791429 19.1150137,20.2283069 C19.5101507,20.0774709 19.8265068,19.929808 20.0642055,19.7850916 C20.3020274,19.6406018 20.611726,19.4388828 20.9934247,19.1803877 C22.1316164,18.4232613 23.7992055,17.3614031 25.9954521,15.9950398 Z" id="Shape" fill="#003C75"></path>
                </g>
            </g>
        </g>
    </g>
</svg>