<?xml version="1.0" encoding="UTF-8"?>
<svg width="16px" height="16px" viewBox="0 0 16 16" version="1.1" xmlns="http://www.w3.org/2000/svg" xmlns:xlink="http://www.w3.org/1999/xlink">
    <!-- Generator: Sketch 39.1 (31720) - http://www.bohemiancoding.com/sketch -->
    <title>1-512.png</title>
    <desc>Created with Sketch.</desc>
    <defs></defs>
    <g id="Home-page-v1" stroke="none" stroke-width="1" fill="none" fill-rule="evenodd">
        <g id="Desktop-HD" transform="translate(-466.000000, -44.000000)">
            <g id="header" transform="translate(70.000000, 16.000000)">
                <g id="1-512.png" transform="translate(396.000000, 28.000000)">
                    <g id="Layer_1">
                        <path d="M14.8171206,0.00873294347 L15.2529183,0.00873294347 C15.378677,0.0445692008 15.5138988,0.0362729045 15.6299144,0.119984405 C15.8394708,0.271189084 15.954677,0.468584795 15.9688716,0.726081871 L15.9688716,1.16272904 C15.8535097,2.18523197 15.3469572,3.0082807 14.6465681,3.7245692 C13.9168249,4.4708616 13.175751,5.20611306 12.43393,5.94039766 C12.3119066,6.06119298 12.2774163,6.17631189 12.3201245,6.34279922 C12.3962023,6.63959454 12.4442023,6.94325146 12.5053074,7.24378947 C12.5445292,7.43669396 12.5444047,7.43625731 12.7038132,7.30925536 C12.817463,7.21868226 12.9275019,7.12327485 13.0469416,7.04024951 C13.186677,6.94309552 13.2500856,6.94640156 13.3505058,7.07786355 C13.7162646,7.55670955 14.0767626,8.03951657 14.4339922,8.52481871 C14.5331051,8.6594308 14.5220233,8.7197193 14.3831595,8.82423392 C14.0057276,9.10830409 13.6283268,9.393154 13.2395642,9.66088109 C13.0702568,9.77746589 13.0357354,9.89373879 13.0751751,10.089076 C13.4115175,11.7550721 13.7548949,13.4196959 14.083642,15.0872203 C14.1556109,15.4522885 14.1452451,15.4659493 13.7690272,15.4660429 C13.4318132,15.4661365 13.0944436,15.4601793 12.7574475,15.4686316 C12.5994086,15.4725926 12.495284,15.4133021 12.4075331,15.2853957 C11.8786926,14.5144016 11.3443424,13.7472437 10.8122023,12.9785263 C10.1056498,11.95777 9.39996887,10.9364211 8.69105058,9.91738012 C8.603393,9.79137622 8.59638911,9.79059649 8.483393,9.90356335 C7.99505058,10.3919844 7.50596109,10.8796881 7.02026459,11.370729 C6.85933074,11.5334737 6.69684047,11.6956881 6.51405447,11.8314854 C6.37668482,11.9335361 6.3471751,12.0494347 6.37083268,12.2081559 C6.4688249,12.8660585 6.54368872,13.5271111 6.63140856,14.1864795 C6.67526848,14.5160858 6.71716732,14.8460351 6.76068482,15.1757661 C6.77596887,15.2916023 6.75063035,15.3818947 6.63894163,15.434386 C6.27741634,15.6042417 5.91361868,15.7691384 5.54782879,15.929575 C5.48666148,15.9563977 5.41649805,15.9524678 5.35411673,15.9776062 L5.32298833,15.9776062 C5.25182879,15.9298869 5.20946304,15.8590253 5.16669261,15.7873216 C4.78390661,15.1453567 4.39943969,14.5043899 4.01491051,13.8634542 C3.91072374,13.6898246 3.90988327,13.6927251 3.72333074,13.7830487 C3.50406226,13.8892164 3.28376654,13.9924522 3.05176654,14.0702066 C2.83648249,14.142347 2.61752529,14.1669864 2.39293385,14.1536998 C2.09587549,14.1361404 1.87564202,13.9085224 1.84968093,13.6116647 C1.82113619,13.285115 1.90767315,12.9830487 2.02888716,12.6883431 C2.09192218,12.5350487 2.14966537,12.377575 2.23803891,12.2366316 C2.308607,12.1241014 2.27290272,12.0626277 2.16871595,12.0005926 C1.51825681,11.6130994 0.870536965,11.2210526 0.221011673,10.8320624 C0.149478599,10.7892398 0.0787548638,10.7467914 0.0311284047,10.675462 L0.0311284047,10.6130838 C0.163455253,10.1793684 0.384809339,9.78407797 0.565478599,9.37122807 C0.616715953,9.25408187 0.705961089,9.21833918 0.83063035,9.23452632 C1.8075642,9.36146589 2.78480934,9.48606628 3.76093385,9.61890058 C3.94368872,9.64375828 4.06437354,9.61019883 4.18873152,9.46080312 C4.66094942,8.89338012 5.21662257,8.40523977 5.72871595,7.87533723 C5.85136187,7.74842885 5.97435019,7.6214269 6.10362646,7.50150487 C6.19567315,7.41610916 6.17674708,7.36539571 6.08056031,7.29899415 C5.58944747,6.96006238 5.09995331,6.61876023 4.61033463,6.27764522 C3.38415564,5.42334503 2.15480156,4.57362963 0.929898833,3.71755166 C0.912902724,3.70566862 0.897494163,3.6902924 0.878848249,3.68205848 C0.597727626,3.55848733 0.512311284,3.34409357 0.53618677,3.04333723 C0.561214008,2.72832749 0.540638132,2.40982456 0.542194553,2.09281871 C0.543377432,1.85350487 0.572607004,1.82930214 0.807719844,1.8757115 C2.51234241,2.21242885 4.2136965,2.5654269 5.91670039,2.9100039 C6.11324514,2.94976998 6.2315642,2.91203119 6.34558755,2.74560624 C6.63897276,2.31731774 6.95470817,1.90462378 7.26132296,1.48559844 C7.39486381,1.30311111 7.43231128,1.29830799 7.61148638,1.4331384 C8.07181323,1.77949318 8.53718288,2.11920468 8.99050584,2.47472904 C9.17435019,2.61888499 9.17587549,2.65890058 9.03318288,2.84060819 C8.91128405,2.99580507 8.7860856,3.14835088 8.66477821,3.30392203 C8.57232685,3.42244055 8.57889494,3.44324366 8.71987549,3.47293567 C9.05992218,3.54454581 9.4025214,3.60389864 9.74088716,3.6834308 C9.85933074,3.71128265 9.9383035,3.65785575 10.0154397,3.58025731 C10.3924669,3.20112281 10.7705525,2.82295517 11.1483268,2.44453801 C11.5444669,2.0477193 11.9397043,1.65005848 12.3367471,1.25420663 C12.8810895,0.711454191 13.5412918,0.361263158 14.2545058,0.099337232 C14.4365447,0.0324366472 14.6304436,0.0441949318 14.8171206,0.00873294347 L14.8171206,0.00873294347 Z" id="Shape" fill="#5C5953"></path>
                        <path d="M5.3540856,15.9775439 C5.77593774,15.7818012 6.19645136,15.5829708 6.6208249,15.3928109 C6.70804669,15.353731 6.73077043,15.3096296 6.71869261,15.2184016 C6.57898833,14.1634932 6.44336187,13.1080546 6.3042179,12.0530838 C6.29615564,11.9918285 6.29596887,11.9484756 6.34941634,11.903501 C7.10922957,11.263501 7.76575875,10.5169279 8.47838132,9.82811696 C8.51909728,9.78878752 8.54963424,9.73891618 8.59193774,9.68495906 C9.16305058,10.5087563 9.71567315,11.3052008 10.2675798,12.1021442 C11.0087782,13.1723977 11.7503813,14.2423392 12.4882179,15.3149318 C12.5453074,15.3979571 12.6034864,15.4270253 12.7031284,15.4244055 C13.1178833,15.4134269 13.5329494,15.4068772 13.9477977,15.4099337 C14.0806537,15.4109318 14.0957821,15.3700429 14.0713152,15.2503392 C13.7618988,13.7364522 13.4571829,12.2215984 13.1511907,10.706963 C13.0988016,10.4477193 13.0511128,10.1874464 12.9913774,9.92994932 C12.9688405,9.8328577 12.9950506,9.78070955 13.0733074,9.72425731 C13.5148016,9.40569201 13.9509728,9.07979727 14.392,8.76060819 C14.4699455,8.70415595 14.489463,8.66931774 14.4224436,8.58192593 C14.0404669,8.08374269 13.664,7.58128655 13.2913619,7.07608577 C13.2254942,6.98682261 13.1825058,6.98591813 13.1015097,7.0542846 C12.915642,7.21104094 12.7218054,7.35831579 12.5126848,7.52411696 C12.4488093,7.21378558 12.388358,6.92129435 12.3285914,6.62864717 C12.3150817,6.56261988 12.3155486,6.49119688 12.2898054,6.43065887 C12.1826926,6.17896296 12.2738677,6.01169591 12.4633774,5.82761793 C13.2341479,5.0788616 13.9975097,4.32174659 14.7424436,3.54725926 C15.3700856,2.89472125 15.7741634,2.1137154 15.9452451,1.21808967 C15.9489183,1.198846 15.9608093,1.1811306 15.9688716,1.16276023 C15.9688716,6.05423782 15.9683735,10.9457466 15.9717977,15.8372242 C15.9718911,15.954152 15.9455253,15.9806628 15.8287938,15.980538 C12.3372451,15.9768889 8.84563424,15.9775439 5.3540856,15.9775439 L5.3540856,15.9775439 Z" id="Shape" fill="#FDFDFD"></path>
                        <path d="M0.0311284047,10.6753996 C0.178894942,10.7266121 0.300980545,10.8240468 0.433151751,10.9026433 C1.0423035,11.2650292 1.64753307,11.6341209 2.25811673,11.9940429 C2.36361089,12.0562339 2.36877821,12.1030175 2.31218677,12.2067212 C2.13849027,12.5251306 1.98913619,12.8550487 1.91371206,13.2135673 C1.77341634,13.8802963 2.12728405,14.2336062 2.79028794,14.0887329 C3.15754086,14.0084834 3.49453696,13.8526316 3.82300389,13.6756959 C3.88728405,13.641076 3.9298677,13.6183704 3.98219455,13.706885 C4.42241245,14.4512125 4.86891829,15.1917973 5.31293385,15.9339103 C5.3202179,15.9460741 5.3197821,15.962885 5.32292607,15.9775127 C3.60049805,15.9775127 1.87803891,15.9762651 0.155610895,15.980538 C0.0489961089,15.9808187 0.0278287938,15.9595789 0.028077821,15.8527563 C0.0324046693,14.1270019 0.0311284047,12.4011852 0.0311284047,10.6753996 L0.0311284047,10.6753996 Z" id="Shape" fill="#FDFDFD"></path>
                        <path d="M15.9688716,0.726081871 C15.9179144,0.676834308 15.9283735,0.605536062 15.9053696,0.545964912 C15.8034241,0.282042885 15.6128249,0.121325536 15.3448716,0.0446003899 C15.3137121,0.0356491228 15.2696654,0.0556725146 15.2529183,0.00876413255 C15.4684825,0.00876413255 15.6840778,0.011165692 15.8995486,0.00717348928 C15.9574786,0.00611306043 15.9715175,0.0201481481 15.970428,0.0781910331 C15.9664747,0.29411306 15.9688716,0.510097466 15.9688716,0.726081871 L15.9688716,0.726081871 Z" id="Shape" fill="#FCFCFC"></path>
                        <path d="M15.2805292,1.02506043 C15.2678599,1.08603509 15.2530428,1.20006238 15.2200467,1.30853801 C15.0119533,1.99179727 14.6991751,2.61211696 14.1855564,3.12539571 C11.5565136,5.75273294 8.94235019,8.39504094 6.30175875,11.0106511 C5.34259922,11.9607641 4.22066926,12.701193 3.01285603,13.3057934 C2.89712062,13.3637115 2.7751284,13.4059103 2.64750195,13.4328577 C2.57157977,13.4489201 2.55520623,13.4273372 2.56952529,13.3542924 C2.59875486,13.2052086 2.65201556,13.0643899 2.72056031,12.9309942 C3.32342412,11.7572554 4.03937743,10.6542534 4.96607004,9.71580507 C7.61039689,7.03784795 10.2760467,4.38097466 12.9394553,1.7220117 C13.4856031,1.17679532 14.1651984,0.864842105 14.9149572,0.707711501 C15.1862412,0.650853801 15.2884358,0.734159844 15.2805292,1.02506043 L15.2805292,1.02506043 Z" id="Shape" fill="#FDFDFD"></path>
                        <path d="M11.6278599,6.6802963 C11.8638132,7.85203899 12.0947549,8.99917349 12.3257899,10.1462456 C12.6205759,11.6097934 12.9156732,13.0732788 13.208965,14.537076 C13.2207004,14.5957115 13.2845447,14.6937076 13.1965447,14.708616 C13.0985837,14.7251774 12.9713619,14.7827212 12.8849805,14.6568109 C12.6826459,14.3617622 12.4774786,14.0686784 12.2738054,13.7745341 C11.246537,12.2910253 10.2200778,10.8068928 9.19035019,9.32506823 C9.12762646,9.23483821 9.11825681,9.18290838 9.20510506,9.0968577 C9.97933074,8.32960624 10.747642,7.55642885 11.5178521,6.78512281 C11.5468327,6.75602339 11.5772451,6.72838986 11.6278599,6.6802963 L11.6278599,6.6802963 Z" id="Shape" fill="#FDFDFD"></path>
                        <path d="M9.30649027,4.3602963 C9.259393,4.41066667 9.2290428,4.44509942 9.19670039,4.47753606 C8.43031907,5.24538012 7.66219455,6.01153996 6.89933074,6.78287719 C6.81659144,6.8665575 6.76572763,6.86721248 6.67203113,6.80184016 C4.92093385,5.58047563 3.1688716,4.36042105 1.41101946,3.14881871 C1.26564981,3.04863938 1.27807004,2.93299025 1.28775097,2.80280702 C1.2953463,2.70078752 1.37612451,2.75346589 1.41951751,2.76191813 C1.84105837,2.84413255 2.26144747,2.93224172 2.68242802,3.01738791 C4.82287938,3.4502924 6.96342412,3.88279142 9.10390661,4.31563353 C9.16404669,4.32785965 9.2237821,4.34201949 9.30649027,4.3602963 L9.30649027,4.3602963 Z" id="Shape" fill="#FDFDFD"></path>
                        <path d="M5.6553463,12.4732632 C5.75847471,13.2713606 5.85705837,14.0482183 5.96180545,14.8242963 C5.97279377,14.9056062 5.9448716,14.930963 5.88034241,14.9616218 C5.61901946,15.0857856 5.62045136,15.0879688 5.47187549,14.8397661 C5.17926848,14.3509708 4.88890272,13.8607407 4.59103502,13.3752203 C4.53397665,13.2822456 4.5463035,13.2436647 4.63508171,13.184 C4.97310506,12.9567563 5.3042179,12.7191891 5.6553463,12.4732632 L5.6553463,12.4732632 Z" id="Shape" fill="#FDFDFD"></path>
                        <path d="M3.53727626,10.3438908 C3.26913619,10.7071501 3.01646693,11.0481404 2.78851362,11.4062222 C2.74985214,11.4669162 2.71738521,11.460117 2.66368872,11.4276491 C2.11019455,11.0926784 1.55607782,10.7587368 0.99981323,10.4284756 C0.932856031,10.3887407 0.936466926,10.3561481 0.963019455,10.2934581 C1.07533074,10.0284444 1.07368093,10.0225185 1.32638132,10.054768 C2.05463035,10.1475867 2.78231907,10.2448655 3.53727626,10.3438908 L3.53727626,10.3438908 Z" id="Shape" fill="#FDFDFD"></path>
                        <path d="M7.61615564,3.30183236 C7.43928405,3.26658869 7.24196109,3.22579337 7.04395331,3.18877193 C6.98079377,3.17695127 6.96171206,3.15823782 7.00488716,3.10003899 C7.17761868,2.86708772 7.34960311,2.63351267 7.51884825,2.3980039 C7.55467704,2.34813255 7.58091829,2.34479532 7.62888716,2.3822846 C7.77565759,2.49709162 7.92575875,2.60759454 8.07492607,2.71928265 C8.10988327,2.74548148 8.13961089,2.76594152 8.09858366,2.81593762 C7.9736965,2.96804678 7.85229572,3.12305653 7.73151751,3.27844055 C7.70462257,3.31299805 7.67436576,3.31873684 7.61615564,3.30183236 L7.61615564,3.30183236 Z" id="Shape" fill="#FDFDFD"></path>
                        <path d="M13.5106304,8.53766862 C13.3034086,8.68996491 13.1022568,8.8357115 12.9036887,8.98495127 C12.8402179,9.03263938 12.8079377,9.03332554 12.7940856,8.94524756 C12.7756265,8.82766472 12.7480778,8.71154776 12.7279066,8.59421442 C12.7105058,8.49319298 12.6318444,8.36877973 12.6864436,8.2968577 C12.7774319,8.17690448 12.9198444,8.09618713 13.0404047,7.99865887 C13.0825525,7.9645692 13.104249,7.99491618 13.1266615,8.02482651 C13.2536031,8.19443275 13.380607,8.3640078 13.5106304,8.53766862 L13.5106304,8.53766862 Z" id="Shape" fill="#FCFCFC"></path>
                    </g>
                </g>
            </g>
        </g>
    </g>
</svg>