<?xml version="1.0" encoding="UTF-8"?>
<svg width="33px" height="22px" viewBox="0 0 33 22" version="1.1" xmlns="http://www.w3.org/2000/svg" xmlns:xlink="http://www.w3.org/1999/xlink">
    <!-- Generator: Sketch 46.2 (44496) - http://www.bohemiancoding.com/sketch -->
    <title>plane</title>
    <desc>Created with Sketch.</desc>
    <defs></defs>
    <g id="Page-2-Copy" stroke="none" stroke-width="1" fill="none" fill-rule="evenodd">
        <g id="Desktop" transform="translate(-1142.000000, -179.000000)" fill-rule="nonzero" fill="#4A90E2">
            <path d="M1155.36769,188.466794 C1154.78653,187.399574 1154.22542,186.368164 1153.66338,185.337317 C1152.89079,183.920218 1152.11522,182.504949 1151.34527,181.086233 C1150.91169,180.287418 1151.19307,179.568949 1152.01466,179.261988 C1153.33241,178.769641 1154.51207,178.96938 1155.63661,179.876894 C1158.17656,181.926769 1160.74704,183.933516 1163.29819,185.96756 C1163.49919,186.12783 1163.66972,186.140775 1163.90039,186.076752 C1165.86182,185.532271 1167.82093,184.975549 1169.79245,184.474689 C1170.92997,184.18574 1172.09091,184.079433 1173.24558,184.422767 C1175.06793,184.964574 1175.56547,186.790577 1174.28755,188.280986 C1173.45278,189.254423 1172.36279,189.801295 1171.20918,190.164259 C1169.01313,190.855078 1166.80257,191.49482 1164.59115,192.128018 C1159.85027,193.485525 1155.10477,194.824037 1150.36178,196.17289 C1148.2661,196.768941 1146.19224,195.980538 1144.92692,194.104371 C1144.06741,192.830024 1143.21153,191.552582 1142.33646,190.290476 C1142.03938,189.861942 1141.8912,189.424472 1142.0924,188.919672 C1142.30968,188.374559 1142.78065,188.179815 1143.27094,188.177634 C1143.63495,188.176016 1144.04037,188.283448 1144.35624,188.475378 C1145.24239,189.014089 1146.09576,189.615135 1146.95415,190.204713 C1147.48348,190.568239 1148.02745,190.673632 1148.64501,190.48712 C1150.80618,189.834362 1152.97322,189.203697 1155.13775,188.563463 C1155.20006,188.54503 1155.25875,188.513018 1155.36769,188.466794 Z M1152.21203,180.405897 C1152.27263,180.526064 1152.31668,180.619566 1152.36588,180.709832 C1153.76164,183.27119 1155.16228,185.829593 1156.54505,188.398831 C1156.64627,188.586961 1156.70575,188.898706 1156.62721,189.07164 C1156.54577,189.251116 1156.28694,189.385073 1156.08133,189.447197 C1153.69859,190.166862 1151.31012,190.864998 1148.92567,191.578332 C1148.02435,191.847934 1147.1934,191.709544 1146.40821,191.172381 C1145.55793,190.590683 1144.69901,190.023618 1143.8465,189.445719 C1143.60072,189.279188 1143.36029,189.193143 1143.07509,189.417155 C1143.14116,189.524658 1143.19623,189.622663 1143.25874,189.714829 C1144.09543,190.949073 1144.93133,192.183951 1145.77112,193.415803 C1146.81389,194.945611 1148.41724,195.55918 1150.12254,195.072954 C1156.56931,193.234709 1163.01569,191.394845 1169.46088,189.550689 C1170.57348,189.232331 1171.69973,188.924175 1172.6666,188.22639 C1173.08376,187.925269 1173.47744,187.534937 1173.76752,187.098664 C1174.13628,186.544193 1173.93443,185.979943 1173.36197,185.675374 C1173.23549,185.608114 1173.09886,185.556896 1172.96196,185.518552 C1171.87765,185.214406 1170.79789,185.356875 1169.73883,185.634357 C1167.77049,186.150132 1165.81097,186.704814 1163.85298,187.264351 C1163.48831,187.368547 1163.2157,187.312966 1162.91249,187.071014 C1160.21283,184.915747 1157.50149,182.777084 1154.79583,180.63033 C1153.99119,179.991996 1153.14249,179.976166 1152.21203,180.405897 Z M1155.89472,201 C1155.85819,200.97755 1155.82418,200.947211 1155.78479,200.933795 C1155.09871,200.698638 1154.81219,200.143714 1155.04274,199.439323 C1155.53183,197.944986 1156.03258,196.454761 1156.53248,194.964335 C1156.66852,194.558743 1156.93062,194.396938 1157.22958,194.51546 C1157.54713,194.641331 1157.64294,194.907905 1157.5058,195.323272 C1157.04425,196.721133 1156.57861,198.11751 1156.1153,199.514764 C1156.08142,199.617039 1156.05421,199.72174 1156.0123,199.865005 C1156.86092,199.756461 1157.50548,199.370691 1158.01024,198.705604 C1159.1198,197.243561 1160.23693,195.787787 1161.35108,194.329452 C1161.64641,193.94294 1161.9385,193.553664 1162.23869,193.171265 C1162.47307,192.872667 1162.78822,192.812462 1163.02726,193.00737 C1163.26513,193.201401 1163.27977,193.54254 1163.05006,193.843497 C1161.60813,195.733111 1160.16852,197.624747 1158.71771,199.507011 C1158.17375,200.212751 1157.4613,200.655288 1156.61093,200.855994 C1156.45611,200.892534 1156.30614,200.951391 1156.15391,201 C1156.06743,201 1155.98108,201 1155.89472,201 Z" id="plane"></path>
        </g>
    </g>
</svg>