<?xml version="1.0" encoding="UTF-8"?>
<svg width="32px" height="32px" viewBox="0 0 32 32" version="1.1" xmlns="http://www.w3.org/2000/svg" xmlns:xlink="http://www.w3.org/1999/xlink">
    <!-- Generator: Sketch 50.2 (55047) - http://www.bohemiancoding.com/sketch -->
    <title>Artboard Copy 3</title>
    <desc>Created with Sketch.</desc>
    <defs></defs>
    <g id="Artboard-Copy-3" stroke="none" stroke-width="1" fill="none" fill-rule="evenodd">
        <path d="M20.6,21.3292721 L9.68,21.3292721 L9.68,13.4698532 L12.195625,13.4698532 C12.195625,13.4698532 12.8125,12.6082474 14.06375,11.7991253 L8.84,11.7991253 C8.37625,11.7991253 8,12.1708841 8,12.6344892 L8,22.1646361 C8,22.6238675 8.37625,23 8.84,23 L21.44,23 C21.90375,23 22.28,22.6282412 22.28,22.1646361 L22.28,17.3973758 L20.6,18.7706967 L20.6,21.3292721 Z M19.2,14.5982505 L19.2,17.3930022 L24.8,13.2161824 L19.2,9 L19.2,11.611059 C12.4275,11.611059 12.2,18.7969385 12.2,18.7969385 C14.11625,15.6697907 15.525,14.5982505 19.2,14.5982505 Z" id="Shape" fill="#000000" fill-rule="nonzero"></path>
    </g>
</svg>