<?xml version="1.0" encoding="UTF-8"?>
<svg width="14px" height="15px" viewBox="0 0 14 15" version="1.1" xmlns="http://www.w3.org/2000/svg" xmlns:xlink="http://www.w3.org/1999/xlink">
    <!-- Generator: Sketch 39.1 (31720) - http://www.bohemiancoding.com/sketch -->
    <title>Present 3</title>
    <desc>Created with Sketch.</desc>
    <defs></defs>
    <g id="Home-page-v1" stroke="none" stroke-width="1" fill="none" fill-rule="evenodd">
        <g id="Desktop-HD" transform="translate(-653.000000, -45.000000)" fill="#5C5953">
            <g id="header" transform="translate(70.000000, 16.000000)">
                <path d="M593.966898,33.8771947 C594.490969,33.4195529 594.827322,32.761585 594.827322,32.0253286 C594.827322,30.6460712 593.67555,29.524705 592.256115,29.524705 C591.290284,29.524705 590.457692,30.0508491 590.018301,30.8176149 C589.57891,30.0508491 588.747502,29.524705 587.78167,29.524705 C586.362828,29.524705 585.209279,30.6454956 585.209279,32.0253286 C585.209279,32.761585 585.545632,33.4195529 586.069704,33.8771947 L583.368811,33.8771947 C583.18583,33.8771947 583.036011,34.0245611 583.036011,34.2018613 L583.036011,43.6764847 C583.036011,43.8532092 583.186423,44 583.368811,44 L596.666014,44 C596.850771,44 596.999998,43.8526336 596.999998,43.6764847 L596.999998,34.2018613 C597.00059,34.0245611 596.851363,33.8771947 596.666606,33.8771947 L593.966898,33.8771947 Z M596.333214,34.5253766 L596.333214,38.7351051 L590.351101,38.7351051 L590.351101,34.5253766 L592.2573,34.5253766 L596.333214,34.5253766 L596.333214,34.5253766 Z M592.256115,30.1728869 C593.306035,30.1728869 594.16113,31.0058525 594.16113,32.0259043 C594.16113,33.0459561 593.307811,33.8777703 592.2573,33.8777703 L592.256115,33.8777703 L590.351101,33.8777703 L590.351101,32.0259043 C590.351693,31.0058525 591.206196,30.1728869 592.256115,30.1728869 L592.256115,30.1728869 Z M585.874287,32.0259043 C585.874287,31.0064281 586.731159,30.1728869 587.78167,30.1728869 C588.832182,30.1728869 589.685501,31.0058525 589.685501,32.0259043 L589.685501,33.8777703 L587.780486,33.8777703 C586.729975,33.8771947 585.874287,33.0453804 585.874287,32.0259043 L585.874287,32.0259043 Z M587.78167,34.5253766 L589.685501,34.5253766 L589.685501,38.7351051 L583.703388,38.7351051 L583.703388,34.5253766 L587.78167,34.5253766 L587.78167,34.5253766 Z M583.703388,39.2618248 L589.685501,39.2618248 L589.685501,43.4715533 L583.703388,43.4715533 L583.703388,39.2618248 L583.703388,39.2618248 Z M590.351693,43.4715533 L590.351693,39.2618248 L596.333806,39.2618248 L596.333806,43.4715533 L590.351693,43.4715533 L590.351693,43.4715533 Z" id="Present-3"></path>
            </g>
        </g>
    </g>
</svg>