<?xml version="1.0" encoding="UTF-8"?>
<svg width="79px" height="78px" viewBox="0 0 79 78" version="1.1" xmlns="http://www.w3.org/2000/svg" xmlns:xlink="http://www.w3.org/1999/xlink">
    <!-- Generator: Sketch 50.2 (55047) - http://www.bohemiancoding.com/sketch -->
    <title>scale</title>
    <desc>Created with Sketch.</desc>
    <defs></defs>
    <g id="Page-1" stroke="none" stroke-width="1" fill="none" fill-rule="evenodd">
        <g id="scale" transform="translate(53.500000, 50.000000) scale(-1, 1) translate(-53.500000, -50.000000) ">
            <path d="M106.707,74.293 L31.707,0.293 C31.42,0.006 30.991,-0.079 30.617,0.076 C30.244,0.231 30,0.596 30,1 L30,75 C30,75.553 30.448,76 31,76 L106,76 C106.404,76 106.77,75.757 106.924,75.383 C107.079,75.009 106.993,74.579 106.707,74.293 Z" id="Path" fill="#000000"></path>
            <polygon id="Shape" fill="#FFFFFF" fill-rule="nonzero" transform="translate(33.943509, 40.800392) rotate(224.000000) translate(-33.943509, -40.800392) " points="18.1826864 18.0702672 8.82366694 27.4255159 11.4895923 30.0914413 20.8486118 20.7361926 27.7358999 27.6234807 23.1563152 32.2049507 25.8222406 34.8708761 30.4018253 30.2894061 37.2909987 37.1785795 32.7076433 41.7581642 35.3735687 44.4240896 39.9569241 39.8445049 46.8442122 46.731793 37.4870781 56.0889271 40.1530035 58.7548525 49.5101376 49.3977184 56.3974257 56.2850065 51.8159556 60.8645912 54.481881 63.5305165 59.0633511 58.9509319"></polygon>
            <polygon id="Shape-Copy" fill="#FFFFFF" fill-rule="nonzero" transform="translate(69.690045, 74.158807) rotate(135.000000) translate(-69.690045, -74.158807) " points="56.3161116 56.2043462 51.7365269 60.7820455 54.4024523 63.4479708 58.982037 58.8702715 65.8712105 65.759445 56.512191 75.1165791 59.1781164 77.7825045 68.5371358 68.4253704 75.4225386 75.3107731 70.8429539 79.8941285 73.5107646 82.5600539 78.0903493 77.9785839 84.9776374 84.865872 80.3961674 89.447342 83.0620927 92.1132674 87.6435628 87.5317973"></polygon>
            <path d="M51.006128,31.1795351 C50.840681,31.0076574 50.5875413,30.9532879 50.365971,31.0421498 C50.1444007,31.1310118 50,31.3461513 50,31.5846756 L50,56.6653818 C50,56.9886757 50.261909,57.25 50.5846182,57.25 L74.6773197,57.25 C74.9111669,57.25 75.1233834,57.1102762 75.2151684,56.8945521 C75.3069535,56.6794126 75.2613533,56.4297806 75.0988294,56.260826 L51.006128,31.1795351 Z" id="Shape" fill="#FFFFFF" fill-rule="nonzero"></path>
        </g>
    </g>
</svg>