<?xml version="1.0" encoding="UTF-8"?>
<svg width="24px" height="24px" viewBox="0 0 24 24" version="1.1" xmlns="http://www.w3.org/2000/svg" xmlns:xlink="http://www.w3.org/1999/xlink">
    <!-- Generator: Sketch 39.1 (31720) - http://www.bohemiancoding.com/sketch -->
    <title>Settings 3</title>
    <desc>Created with Sketch.</desc>
    <defs></defs>
    <g id="user-dashboard" stroke="none" stroke-width="1" fill="none" fill-rule="evenodd">
        <g id="Desktop-Landscape" transform="translate(-31.000000, -467.000000)" fill="#FFFFFF">
            <path d="M44.3504,490.8088 L41.4584,490.8088 C41.2208,490.8088 41.0288,490.6168 41.0288,490.3792 L41.0288,487.7888 C39.9176,487.5576 38.8848,487.1328 37.9456,486.52 L36.1208,488.3464 C35.952,488.5152 35.68,488.5152 35.5112,488.3464 L33.4672,486.3024 C33.2984,486.1336 33.2984,485.8616 33.4672,485.6928 L35.292,483.868 C34.6792,482.9288 34.2512,481.8928 34.02,480.7824 L31.4312,480.7824 C31.192,480.7824 31,480.5888 31,480.3528 L31,477.4608 C31,477.2232 31.192,477.0296 31.4312,477.0296 L34.0184,477.0296 C34.2496,475.9184 34.6744,474.8824 35.2872,473.9456 L33.464,472.1192 C33.2952,471.952 33.2952,471.68 33.464,471.5112 L35.508,469.4656 C35.6768,469.2984 35.9488,469.2984 36.1176,469.4656 L37.9408,471.2904 C38.88,470.6776 39.916,470.2512 41.028,470.0184 L41.028,467.4296 C41.028,467.1936 41.22,467 41.4576,467 L44.3496,467 C44.5872,467 44.7792,467.1936 44.7792,467.4296 L44.7792,470.0184 C45.892,470.2512 46.928,470.6776 47.8664,471.2936 L49.6928,469.4656 C49.8616,469.2984 50.1336,469.2984 50.3024,469.4656 L52.3464,471.5112 C52.5152,471.68 52.5152,471.952 52.3464,472.1192 L50.52,473.9488 C51.1312,474.888 51.5576,475.9208 51.7872,477.0304 L54.3792,477.0304 C54.6168,477.0304 54.8104,477.224 54.8104,477.4616 L54.8104,480.3536 C54.8104,480.5896 54.6168,480.7832 54.3792,480.7832 L51.7872,480.7832 C51.556,481.8912 51.1296,482.9256 50.5152,483.8648 L52.3432,485.6944 C52.512,485.8632 52.512,486.1352 52.3432,486.304 L50.2992,488.348 C50.1368,488.5088 49.8504,488.5088 49.6896,488.348 L47.86,486.5184 C46.9256,487.1312 45.8912,487.556 44.7784,487.7888 L44.7784,490.3808 C44.78,490.6168 44.5872,490.8088 44.3504,490.8088 L44.3504,490.8088 Z M41.8872,489.948 L43.9184,489.948 L43.9184,487.4312 C43.9184,487.22 44.0696,487.0408 44.2776,487.0064 C45.52,486.7968 46.6592,486.3264 47.6632,485.6112 C47.832,485.4896 48.068,485.5064 48.2176,485.6568 L49.9944,487.4352 L51.4304,485.9992 L49.6552,484.2208 C49.5048,484.0736 49.4864,483.8376 49.608,483.668 C50.3248,482.6584 50.7968,481.5176 51.0048,480.2808 C51.0408,480.0744 51.2192,479.9232 51.4296,479.9232 L53.948,479.9232 L53.948,477.892 L51.4296,477.892 C51.2184,477.892 51.0392,477.7408 51.0048,477.5328 C50.7968,476.2952 50.328,475.156 49.6112,474.1472 C49.4896,473.9768 49.508,473.7424 49.6584,473.5944 L51.4336,471.8176 L49.9976,470.3816 L48.2224,472.1568 C48.0736,472.3072 47.8368,472.324 47.668,472.2024 C46.6584,471.484 45.5176,471.012 44.2776,470.8024 C44.0696,470.768 43.9184,470.588 43.9184,470.3792 L43.9184,467.8632 L41.8872,467.8632 L41.8872,470.3792 C41.8872,470.5888 41.7368,470.768 41.5296,470.8024 C40.2872,471.012 39.1456,471.484 38.1376,472.2008 C37.9656,472.3168 37.7328,472.304 37.5848,472.1536 L35.8128,470.3816 L34.3768,471.8176 L36.1488,473.5912 C36.2976,473.74 36.3176,473.9744 36.196,474.144 C35.4792,475.152 35.0088,476.2928 34.7992,477.5344 C34.7648,477.7408 34.5848,477.892 34.376,477.892 L31.8616,477.892 L31.8616,479.9232 L34.3776,479.9232 C34.5872,479.9232 34.7664,480.0744 34.8024,480.2808 C35.012,481.5216 35.4824,482.664 36.2008,483.6712 C36.3224,483.8416 36.3024,484.0776 36.1536,484.2256 L34.38,485.9992 L35.816,487.4352 L37.5896,485.6616 C37.7384,485.5112 37.9712,485.496 38.144,485.6128 C39.152,486.3312 40.2912,486.8 41.5296,487.008 C41.736,487.0424 41.8872,487.2224 41.8872,487.4328 L41.8872,489.948 L41.8872,489.948 Z M42.9048,476.4432 C41.5488,476.4432 40.444,477.5464 40.444,478.9024 C40.444,480.2584 41.5488,481.3632 42.9048,481.3632 C44.2608,481.3632 45.364,480.2584 45.364,478.9024 C45.364,477.5464 44.2608,476.4432 42.9048,476.4432 L42.9048,476.4432 Z M42.9048,482.2248 C41.0736,482.2248 39.5832,480.736 39.5832,478.9032 C39.5832,477.072 41.0736,475.5832 42.9048,475.5832 C44.736,475.5832 46.2232,477.072 46.2232,478.9032 C46.2232,480.736 44.736,482.2248 42.9048,482.2248 L42.9048,482.2248 Z" id="Settings-3"></path>
        </g>
    </g>
</svg>