<?xml version="1.0" encoding="UTF-8"?>
<svg width="249px" height="273px" viewBox="0 0 249 273" version="1.1" xmlns="http://www.w3.org/2000/svg" xmlns:xlink="http://www.w3.org/1999/xlink">
    <!-- Generator: Sketch 50.2 (55047) - http://www.bohemiancoding.com/sketch -->
    <title>Group 3</title>
    <desc>Created with Sketch.</desc>
    <defs></defs>
    <g id="Find-My-Bookings" stroke="none" stroke-width="1" fill="none" fill-rule="evenodd">
        <g id="Desktop-HD-Copy" transform="translate(-818.000000, -157.000000)">
            <g id="Group-3" transform="translate(818.000000, 157.000000)">
                <path d="M64.2269069,72.9105501 L64.2269069,188.522325 C64.2269069,189.386357 64.9129568,190.088 65.7645012,190.088 C66.6130365,190.088 67.3020954,189.386357 67.3020954,188.522325 L67.3020954,72.9105501 C67.3020954,72.0465181 66.6130365,71.3448751 65.7645012,71.3448751 C64.9129568,71.3448751 64.2269069,72.0465181 64.2269069,72.9105501" id="Fill-337" fill="#CAC3AC"></path>
                <path d="M95.008882,72.9105501 L95.008882,188.522325 C95.008882,189.386357 95.6979408,190.088 96.5464762,190.088 C97.3950116,190.088 98.0840705,189.386357 98.0840705,188.522325 L98.0840705,72.9105501 C98.0840705,72.0465181 97.3950116,71.3448751 96.5464762,71.3448751 C95.6979408,71.3448751 95.008882,72.0465181 95.008882,72.9105501" id="Fill-338" fill="#CAC3AC"></path>
                <path d="M94.6478031,74.5375041 L94.6478031,69.4728057 C94.6478031,67.7539335 93.2666763,66.3537113 91.5696056,66.3537113 L70.7233179,66.3537113 C69.0322651,66.3537113 67.6511383,67.7539335 67.6511383,69.4728057 L67.6511383,74.5375041 L62.7374565,74.5375041 L62.7374565,69.4728057 C62.7374565,64.9963844 66.3211644,61.3472279 70.7233179,61.3472279 L91.5696056,61.3472279 C95.980786,61.3472279 99.5675029,64.9963844 99.5675029,69.4728057 L99.5675029,74.5375041 L94.6478031,74.5375041" id="Fill-339" fill="#000206"></path>
                <path d="M53.6864124,259.857054 C50.6292778,259.857054 48.1438515,262.390935 48.1438515,265.503902 C48.1438515,268.616868 50.6292778,271.150749 53.6864124,271.150749 C56.743547,271.150749 59.2319823,268.616868 59.2319823,265.503902 L59.2319823,259.857054 L53.6864124,259.857054" id="Fill-340" fill="#000206"></path>
                <path d="M19.781105,259.857054 C16.7239704,259.857054 14.2355351,262.390935 14.2355351,265.503902 C14.2355351,268.616868 16.7239704,271.150749 19.781105,271.150749 C22.8382396,271.150749 25.3236659,268.616868 25.3236659,265.503902 L25.3236659,259.857054 L19.781105,259.857054" id="Fill-341" fill="#000206"></path>
                <path d="M144.434564,259.857054 C141.377429,259.857054 138.892003,262.390935 138.892003,265.503902 C138.892003,268.616868 141.377429,271.150749 144.434564,271.150749 C147.491698,271.150749 149.980133,268.616868 149.980133,265.503902 L149.980133,259.857054 L144.434564,259.857054" id="Fill-342" fill="#000206"></path>
                <path d="M110.529256,259.857054 C107.472122,259.857054 104.983686,262.390935 104.983686,265.503902 C104.983686,268.616868 107.472122,271.150749 110.529256,271.150749 C113.586391,271.150749 116.071817,268.616868 116.071817,265.503902 L116.071817,259.857054 L110.529256,259.857054" id="Fill-343" fill="#000206"></path>
                <path d="M47.5029365,90.4148585 L149.910927,90.4148585 C153.040277,90.7488284 155.480568,93.3960754 155.480568,96.6806227 L155.480568,255.821841 C155.480568,258.263804 154.102451,260.356477 152.10749,261.413537 C150.491662,261.836362 148.794591,262.075349 147.040349,262.075349 L48.3635078,262.075349 C48.3635078,262.075349 42.7457222,221.622105 42.7457222,210.028143 L47.5029365,90.4148585" id="Fill-344" fill="#D8473F"></path>
                <path d="M73.4645084,103.21295 L73.4645084,249.17002 C73.4645084,251.489425 75.3120287,253.367622 77.5898347,253.367622 C79.8676407,253.367622 81.715161,251.489425 81.715161,249.17002 L81.715161,103.21295 C81.715161,100.893545 79.8676407,99.0122836 77.5898347,99.0122836 C75.3120287,99.0122836 73.4645084,100.893545 73.4645084,103.21295" id="Fill-345" fill="#E15E41"></path>
                <path d="M90.1764429,103.21295 L90.1764429,249.17002 C90.1764429,251.489425 92.0239632,253.367622 94.3017691,253.367622 C96.5795751,253.367622 98.4270954,251.489425 98.4270954,249.17002 L98.4270954,103.21295 C98.4270954,100.893545 96.5795751,99.0122836 94.3017691,99.0122836 C92.0239632,99.0122836 90.1764429,100.893545 90.1764429,103.21295" id="Fill-346" fill="#E15E41"></path>
                <path d="M106.888377,103.21295 L106.888377,249.17002 C106.888377,251.489425 108.735898,253.367622 111.013704,253.367622 C113.29151,253.367622 115.136021,251.489425 115.136021,249.17002 L115.136021,103.21295 C115.136021,100.893545 113.29151,99.0122836 111.013704,99.0122836 C108.735898,99.0122836 106.888377,100.893545 106.888377,103.21295" id="Fill-347" fill="#E15E41"></path>
                <path d="M123.600312,103.21295 L123.600312,249.17002 C123.600312,251.489425 125.444823,253.367622 127.725638,253.367622 C130.003444,253.367622 131.847955,251.489425 131.847955,249.17002 L131.847955,103.21295 C131.847955,100.893545 130.003444,99.0122836 127.725638,99.0122836 C125.444823,99.0122836 123.600312,100.893545 123.600312,103.21295" id="Fill-348" fill="#E15E41"></path>
                <path d="M140.312246,103.21295 L140.312246,249.17002 C140.312246,251.489425 142.156758,253.367622 144.434564,253.367622 C146.712369,253.367622 148.55989,251.489425 148.55989,249.17002 L148.55989,103.21295 C148.55989,100.893545 146.712369,99.0122836 144.434564,99.0122836 C142.156758,99.0122836 140.312246,100.893545 140.312246,103.21295" id="Fill-349" fill="#E15E41"></path>
                <path d="M19.781105,255.821841 C19.781105,259.3178 22.5614124,262.14582 25.9916618,262.14582 L58.5218605,262.14582 C61.9521099,262.14582 64.7324173,259.3178 64.7324173,255.821841 L64.7324173,96.6806227 C64.7324173,93.1724076 61.9521099,90.3505157 58.5218605,90.3505157 L25.9916618,90.3505157 C22.5614124,90.3505157 19.781105,93.1724076 19.781105,96.6806227 L19.781105,255.821841" id="Fill-350" fill="#E15E41"></path>
                <path d="M41.9814385,91.7476739 C37.7929234,91.7568657 34.4017909,95.2007381 34.3927639,99.4810669 L34.3927639,253.021397 C34.3927639,257.292534 37.7929234,260.745598 41.9814385,260.745598 C42.7397042,260.745598 43.3565473,260.117489 43.3565473,259.345376 C43.3565473,258.570198 42.7397042,257.945154 41.9814385,257.945154 C39.3094548,257.939026 37.1489994,255.742178 37.1429814,253.021397 L37.1429814,99.4810669 C37.1429814,96.7449655 39.3094548,94.5511821 41.9814385,94.5481181 C42.7397042,94.5481181 43.3565473,93.9230737 43.3565473,93.147896 C43.3565473,92.3757823 42.7397042,91.7476739 41.9814385,91.7476739" id="Fill-351" fill="#000206"></path>
                <polygon id="Fill-352" fill="#3B9074" points="19.781105 181.842928 155.260912 181.842928 155.260912 170.644215 19.781105 170.644215"></polygon>
                <polygon id="Fill-353" fill="#46B386" points="19.781105 181.842928 64.7324173 181.842928 64.7324173 170.644215 19.781105 170.644215"></polygon>
                <path d="M40.8711209,162.503318 L35.8972593,162.503318 C34.2092155,162.503318 32.8341067,163.912732 32.8341067,165.637732 L32.8341067,186.867796 C32.8341067,188.586668 34.2092155,189.996082 35.8972593,189.996082 L40.8711209,189.996082 L40.8711209,194.996437 L35.8972593,194.996437 C31.5011238,194.996437 27.9174159,191.347281 27.9174159,186.867796 L27.9174159,165.637732 C27.9174159,161.149055 31.5011238,157.496834 35.8972593,157.496834 L40.8711209,157.496834 L40.8711209,162.503318" id="Fill-354" fill="#000206"></path>
                <polygon id="Fill-355" fill="#000206" points="35.7678727 235.593687 40.8711209 235.593687 40.8711209 219.259805 35.7678727 219.259805"></polygon>
                <polygon id="Fill-356" fill="#000206" points="35.7678727 134.088307 40.8711209 134.088307 40.8711209 117.754425 35.7678727 117.754425"></polygon>
                <path d="M19.781105,96.6806227 L19.781105,100.225605 C25.1371085,100.225605 29.4790821,95.8043349 29.4790821,90.3505157 L25.9916618,90.3505157 C22.5614124,90.3505157 19.781105,93.1724076 19.781105,96.6806227" id="Fill-357" fill="#141414"></path>
                <path d="M55.0404582,90.4148585 C55.0765661,95.8380383 59.3974768,100.225605 64.7324173,100.225605 C70.0673579,100.225605 74.3882686,95.8380383 74.4243765,90.4148585 L55.0404582,90.4148585" id="Fill-358" fill="#141414"></path>
                <path d="M149.910927,90.4148585 L145.788609,90.4148585 C145.824717,95.8380383 150.145628,100.225605 155.480568,100.225605 L155.480568,96.6806227 C155.480568,93.3960754 153.043286,90.7488284 149.910927,90.4148585" id="Fill-359" fill="#141414"></path>
                <path d="M19.781105,252.27073 L19.781105,255.821841 C19.781105,259.3178 22.5614124,262.14582 25.9916618,262.14582 L29.4790821,262.14582 C29.4790821,256.692001 25.1371085,252.27073 19.781105,252.27073" id="Fill-360" fill="#141414"></path>
                <path d="M55.0404582,262.075349 L74.4243765,262.075349 C74.3852596,256.655233 70.0643489,252.27073 64.7324173,252.27073 C59.4004858,252.27073 55.0795751,256.655233 55.0404582,262.075349" id="Fill-361" fill="#141414"></path>
                <path d="M145.788609,262.075349 L147.040349,262.075349 C148.794591,262.075349 150.491662,261.836362 152.10749,261.413537 C154.102451,260.356477 155.480568,258.263804 155.480568,255.821841 L155.480568,252.27073 C150.148637,252.27073 145.827726,256.655233 145.788609,262.075349" id="Fill-362" fill="#141414"></path>
                <polygon id="Fill-363" fill="#F3EDDB" points="48.0716357 123.229692 59.3041981 123.229692 59.3041981 95.2865285 48.0716357 95.2865285"></polygon>
                <path d="M152.889827,63.9975389 L179.191415,63.9975389 L179.191415,50.6724492 C179.191415,48.9964722 177.852414,47.6330174 176.203488,47.6330174 L155.886782,47.6330174 C154.240864,47.6330174 152.889827,48.9964722 152.889827,50.6724492 L152.889827,63.9975389 Z M183.981729,68.8753367 L148.096505,68.8753367 L148.096505,50.6724492 C148.096505,46.3063299 151.592952,42.7521556 155.886782,42.7521556 L176.203488,42.7521556 C180.48829,42.7521556 183.981729,46.3063299 183.981729,50.6724492 L183.981729,68.8753367 Z" id="Fill-364" fill="#000206"></path>
                <path d="M202.128952,58.8991371 L135.615212,58.8991371 C132.564095,59.2239151 130.183983,61.8006915 130.183983,65.0025123 L130.183983,112.53653 C130.183983,114.917214 131.529002,116.960864 133.469801,117.984221 C135.046512,118.403981 136.695439,118.636841 138.410564,118.636841 L201.295461,118.636841 C201.295461,118.636841 206.768815,109.478714 206.768815,98.178891 L202.128952,58.8991371" id="Fill-365" fill="#183240"></path>
                <path d="M207.346541,112.53653 C207.346541,115.946699 204.63845,118.701184 201.295461,118.701184 C197.952472,118.701184 195.244381,115.946699 195.244381,112.53653 L195.244381,65.0025123 C195.244381,61.5862155 197.952472,58.8317304 201.295461,58.8317304 C204.63845,58.8317304 207.346541,61.5862155 207.346541,65.0025123 L207.346541,112.53653" id="Fill-366" fill="#000206"></path>
                <path d="M189.831206,74.3138362 L137.450696,74.3138362 C136.623224,74.3138362 135.952219,74.9970956 135.952219,75.83968 C135.952219,76.6822644 136.623224,77.3655238 137.450696,77.3655238 L189.831206,77.3655238 C190.658679,77.3655238 191.326675,76.6822644 191.326675,75.83968 C191.326675,74.9970956 190.658679,74.3138362 189.831206,74.3138362" id="Fill-367" fill="#000206"></path>
                <path d="M184.836282,75.83968 L184.836282,83.3218297 C184.836282,84.1644141 185.507287,84.8476735 186.334759,84.8476735 C187.162232,84.8476735 187.833237,84.1644141 187.833237,83.3218297 L187.833237,75.83968 C187.833237,74.9970956 187.162232,74.3138362 186.334759,74.3138362 C185.507287,74.3138362 184.836282,74.9970956 184.836282,75.83968" id="Fill-368" fill="#CAC3AC"></path>
                <path d="M129.552095,268.491247 C124.785854,268.491247 120.907265,264.541824 120.907265,259.688537 C120.907265,254.835251 124.785854,250.888892 129.552095,250.888892 C134.318337,250.888892 138.190908,254.835251 138.190908,259.688537 C138.190908,264.541824 134.318337,268.491247 129.552095,268.491247" id="Fill-369" fill="#141414"></path>
                <path d="M129.549086,249.454967 C123.997499,249.454967 119.499057,254.035562 119.499057,259.688537 C119.499057,265.341513 123.997499,269.925172 129.549086,269.925172 C135.100674,269.925172 139.602124,265.341513 139.602124,259.688537 C139.602124,254.035562 135.100674,249.454967 129.549086,249.454967 Z M129.549086,252.325881 C133.539008,252.325881 136.7827,255.628812 136.7827,259.688537 C136.7827,263.751326 133.539008,267.054257 129.549086,267.054257 C125.562174,267.054257 122.315473,263.751326 122.315473,259.688537 C122.315473,255.628812 125.562174,252.325881 129.549086,252.325881 Z" id="Fill-370" fill="#000206"></path>
                <path d="M202.574282,118.701184 L127.665458,118.701184 C124.536108,119.03209 122.095816,121.682401 122.095816,124.966948 L122.095816,256.106788 C122.095816,258.54875 123.473934,260.641424 125.468895,261.698484 C127.087732,262.121308 128.781794,262.360296 130.536035,262.360296 L201.71672,262.360296 C201.71672,262.360296 207.331497,221.907052 207.331497,210.31309 L202.574282,118.701184" id="Fill-371" fill="#183240"></path>
                <path d="M230.299123,256.106788 C230.299123,259.602747 227.515806,262.430767 224.085557,262.430767 L202.556228,262.430767 C199.125979,262.430767 196.345671,259.602747 196.345671,256.106788 L196.345671,124.966948 C196.345671,121.458733 199.125979,118.636841 202.556228,118.636841 L224.085557,118.636841 C227.515806,118.636841 230.299123,121.458733 230.299123,124.966948 L230.299123,256.106788" id="Fill-372" fill="#000206"></path>
                <path d="M189.948557,134.523387 L129.549086,134.523387 C128.700551,134.523387 128.011492,135.221966 128.011492,136.089062 C128.011492,136.953094 128.700551,137.654737 129.549086,137.654737 L189.948557,137.654737 C190.797093,137.654737 191.486151,136.953094 191.486151,136.089062 C191.486151,135.221966 190.797093,134.523387 189.948557,134.523387" id="Fill-373" fill="#000206"></path>
                <path d="M189.948557,126.443769 L129.549086,126.443769 C128.700551,126.443769 128.011492,127.145412 128.011492,128.012508 C128.011492,128.87654 128.700551,129.578183 129.549086,129.578183 L189.948557,129.578183 C190.797093,129.578183 191.486151,128.87654 191.486151,128.012508 C191.486151,127.145412 190.797093,126.443769 189.948557,126.443769" id="Fill-374" fill="#000206"></path>
                <path d="M219.532954,257.341557 L219.532954,121.516948 C219.532954,120.652916 218.843895,119.951273 217.99536,119.951273 C217.143815,119.951273 216.457765,120.652916 216.457765,121.516948 L216.457765,257.341557 C216.457765,258.208653 217.143815,258.910296 217.99536,258.910296 C218.843895,258.910296 219.532954,258.208653 219.532954,257.341557" id="Fill-375" fill="#CAC3AC"></path>
                <path d="M131.721578,136.089062 L131.721578,143.76424 C131.721578,144.631336 132.410637,145.329915 133.259172,145.329915 C134.110716,145.329915 134.796766,144.631336 134.796766,143.76424 L134.796766,136.089062 C134.796766,135.221966 134.110716,134.523387 133.259172,134.523387 C132.410637,134.523387 131.721578,135.221966 131.721578,136.089062" id="Fill-376" fill="#CAC3AC"></path>
                <path d="M174.52748,12.4007327 L174.52748,128.012508 C174.52748,128.87654 175.216539,129.578183 176.065074,129.578183 C176.913609,129.578183 177.602668,128.87654 177.602668,128.012508 L177.602668,12.4007327 C177.602668,11.5367007 176.913609,10.8350577 176.065074,10.8350577 C175.216539,10.8350577 174.52748,11.5367007 174.52748,12.4007327" id="Fill-377" fill="#CAC3AC"></path>
                <path d="M143.742496,12.4007327 L143.742496,128.012508 C143.742496,128.87654 144.431555,129.578183 145.28009,129.578183 C146.131634,129.578183 146.817684,128.87654 146.817684,128.012508 L146.817684,12.4007327 C146.817684,11.5367007 146.131634,10.8350577 145.28009,10.8350577 C144.431555,10.8350577 143.742496,11.5367007 143.742496,12.4007327" id="Fill-378" fill="#CAC3AC"></path>
                <path d="M147.178763,14.0246227 L147.178763,8.96298827 C147.178763,7.24411604 148.562899,5.84082998 150.256961,5.84082998 L171.106257,5.84082998 C172.794301,5.84082998 174.178437,7.24411604 174.178437,8.96298827 L174.178437,14.0246227 L179.08911,14.0246227 L179.08911,8.96298827 C179.08911,4.48656702 175.505402,0.837410478 171.106257,0.837410478 L150.256961,0.837410478 C145.848789,0.837410478 142.262072,4.48656702 142.262072,8.96298827 L142.262072,14.0246227 L147.178763,14.0246227" id="Fill-379" fill="#000206"></path>
                <path d="M200.221251,268.491247 C195.45501,268.491247 191.576421,264.541824 191.576421,259.688537 C191.576421,254.835251 195.45501,250.888892 200.221251,250.888892 C204.984484,250.888892 208.863073,254.835251 208.863073,259.688537 C208.863073,264.541824 204.984484,268.491247 200.221251,268.491247" id="Fill-380" fill="#203D4B"></path>
                <path d="M200.221251,249.454967 C194.669664,249.454967 190.168213,254.035562 190.168213,259.688537 C190.168213,265.341513 194.669664,269.925172 200.221251,269.925172 C205.772839,269.925172 210.27128,265.341513 210.27128,259.688537 C210.27128,254.035562 205.772839,249.454967 200.221251,249.454967 Z M200.221251,252.325881 C204.208164,252.325881 207.454865,255.628812 207.454865,259.688537 C207.454865,263.751326 204.208164,267.054257 200.221251,267.054257 C196.23133,267.054257 192.987638,263.751326 192.987638,259.688537 C192.987638,255.628812 196.23133,252.325881 200.221251,252.325881 Z" id="Fill-381" fill="#000206"></path>
                <polygon id="Fill-382" fill="#141414" points="217.99536 269.925172 224.085557 269.925172 224.085557 262.430767 217.99536 262.430767"></polygon>
                <polygon id="Fill-383" fill="#141414" points="147.530815 269.925172 153.621012 269.925172 153.621012 262.430767 147.530815 262.430767"></polygon>
                <polygon id="Fill-384" fill="#F3EDDB" points="190.727886 171.707404 201.963457 171.707404 201.963457 143.76424 190.727886 143.76424"></polygon>
                <polygon id="Fill-385" fill="#46B386" points="122.315473 195.903364 230.299123 195.903364 230.299123 184.701588 122.315473 184.701588"></polygon>
                <polygon id="Fill-386" fill="#3B9074" points="196.345671 195.903364 230.299123 195.903364 230.299123 184.701588 196.345671 184.701588"></polygon>
                <path d="M1.44431555,272.618378 L247.558693,272.618378 C248.356076,272.618378 249,271.962694 249,271.150749 C249,270.338804 248.356076,269.680057 247.558693,269.680057 L1.44431555,269.680057 C0.646933005,269.680057 0,270.338804 0,271.150749 C0,271.962694 0.646933005,272.618378 1.44431555,272.618378" id="Fill-387" fill="#212327"></path>
            </g>
        </g>
    </g>
</svg>