<?xml version="1.0" encoding="UTF-8"?>
<svg width="28px" height="28px" viewBox="0 0 28 28" version="1.1" xmlns="http://www.w3.org/2000/svg" xmlns:xlink="http://www.w3.org/1999/xlink">
    <!-- Generator: Sketch 46.2 (44496) - http://www.bohemiancoding.com/sketch -->
    <title>XMLID_18_</title>
    <desc>Created with Sketch.</desc>
    <defs></defs>
    <g id="march-8" stroke="none" stroke-width="1" fill="none" fill-rule="evenodd">
        <g id="Desktop" transform="translate(-1100.000000, -460.000000)" fill-rule="nonzero" fill="#DFA126">
            <g id="if_lifebuoy_2625634" transform="translate(1100.000000, 460.000000)">
                <path d="M27.9890625,14.0410076 C27.9890625,14.0246046 28,14.0136692 28,13.9972662 C28,13.9808631 27.9945312,13.9699277 27.9890625,13.9535247 C27.9835937,11.9140793 27.51875,9.88010154 26.6273437,7.9992189 L26.6601562,7.9992189 L26.6601562,5.99804726 C26.6601562,3.42823667 24.565625,1.33411443 21.9953125,1.33411443 L19.99375,1.33411443 L19.99375,1.36692052 C18.1234375,0.481156024 16.0890625,0.0164030463 14.0492187,0.0109353642 C14.0328125,0.0109353642 14.0164062,0 14,0 C13.9835937,0 13.9671875,0.0109353642 13.9507812,0.0109353642 C11.9109375,0.0164030463 9.8765625,0.481156024 8.00078125,1.36692052 L8.00078125,1.33411443 L5.99921875,1.33411443 C3.42890625,1.33411443 1.334375,3.42823667 1.334375,5.99804726 L1.334375,7.9992189 L1.3671875,7.9992189 C0.47578125,9.88010154 0.01640625,11.9140793 0.0109375,13.9535247 C0.0109375,13.9699277 0,13.9808631 0,13.9972662 C0,14.0136692 0.00546875,14.0246046 0.0109375,14.0410076 C0.01640625,16.080453 0.48125,18.1144308 1.37265625,19.9953134 L1.33984375,19.9953134 L1.33984375,21.9964851 C1.33984375,24.5662956 3.434375,26.6604179 6.0046875,26.6604179 L8.00625,26.6604179 L8.00625,26.6276118 C9.8875,27.518844 11.921875,27.9781293 13.9617187,27.9890646 C13.978125,27.9890646 13.9890625,28 14.0054687,28 C14.021875,28 14.0328125,27.9945323 14.0492187,27.9890646 C16.0890625,27.983597 18.1234375,27.518844 20.0046875,26.6276118 L20.0046875,26.6604179 L22.00625,26.6604179 C24.5765625,26.6604179 26.6710937,24.5662956 26.6710937,21.9964851 L26.6710937,19.9953134 L26.6328125,19.9953134 C27.5242187,18.1144308 27.9835937,16.080453 27.9890625,14.0410076 Z M21.9679687,13.3302089 C21.8148437,11.4438586 21.0109375,9.69420035 19.6546875,8.34368287 C18.265625,6.95489162 16.4828125,6.22222222 14.6671875,6.06912712 L14.6671875,1.37238821 C17.6859375,1.53095099 20.6554687,2.74477641 22.9578125,5.04667057 C25.2601562,7.34856473 26.4742187,10.3175161 26.6328125,13.3356766 L21.9679687,13.3356766 L21.9679687,13.3302089 Z M9.2859375,18.7104081 C6.68828125,16.1132591 6.68828125,11.8812732 9.2859375,9.28412419 C10.5875,7.98281586 12.29375,7.33762937 14,7.33762937 C15.70625,7.33762937 17.4125,7.98828354 18.7140625,9.28412419 C19.971875,10.5416911 20.6664062,12.2148018 20.6664062,13.9972662 C20.6664062,15.7797305 19.971875,17.4528412 18.7140625,18.7104081 C16.1164062,21.3075571 11.8835937,21.3075571 9.2859375,18.7104081 Z M13.3328125,6.06365944 C11.5117187,6.21675454 9.734375,6.94942394 8.3453125,8.33821519 C6.95625,9.72700644 6.2234375,11.5094708 6.0703125,13.3247413 L1.37265625,13.3247413 C1.53125,10.3065807 2.7453125,7.33762937 5.04765625,5.03573521 C7.35,2.73384105 10.3195312,1.52001562 13.3382812,1.36145284 L13.3382812,6.06365944 L13.3328125,6.06365944 Z M6.06484375,14.6643234 C6.21796875,16.4850615 6.95078125,18.2620582 8.33984375,19.6563171 C9.72890625,21.0451084 11.5117187,21.7777778 13.3273437,21.9308729 L13.3273437,26.6276118 C10.3085937,26.469049 7.3390625,25.2552236 5.03671875,22.9533294 C2.734375,20.6514353 1.5203125,17.6824839 1.36171875,14.6643234 L6.06484375,14.6643234 L6.06484375,14.6643234 Z M14.6671875,21.9254052 C16.4882812,21.7723101 18.265625,21.0396407 19.6546875,19.6508494 C21.0054687,18.300332 21.809375,16.545206 21.9679687,14.6588557 L26.6273437,14.6588557 C26.46875,17.6770162 25.2546875,20.6459676 22.9523437,22.9478617 C20.65,25.2497559 17.6804687,26.4635813 14.6617187,26.6221441 L14.6617187,21.9254052 L14.6671875,21.9254052 Z M25.309375,5.77387229 C24.8882812,5.19429799 24.4289062,4.62565905 23.8984375,4.10076157 C23.3734375,3.57586409 22.8046875,3.11657879 22.2195312,2.69009959 C23.8820312,2.79945323 25.2,4.11716462 25.309375,5.77387229 Z M5.78046875,2.69009959 C5.1953125,3.11111111 4.6265625,3.57586409 4.1015625,4.10076157 C3.5765625,4.62565905 3.1171875,5.19429799 2.690625,5.77933997 C2.8,4.11716462 4.11796875,2.79945323 5.78046875,2.69009959 Z M2.690625,22.22066 C3.1171875,22.805702 3.5765625,23.3688733 4.1015625,23.8992384 C4.6265625,24.4241359 5.1953125,24.8834212 5.78046875,25.3099004 C4.11796875,25.1950791 2.8,23.8773677 2.690625,22.22066 Z M22.225,25.3044327 C22.8101562,24.8779535 23.3734375,24.4186682 23.9039062,23.8937707 C24.434375,23.3688733 24.8882812,22.8002343 25.3148437,22.2151923 C25.2,23.8773677 23.8820312,25.1950791 22.225,25.3044327 Z" id="XMLID_18_"></path>
            </g>
        </g>
    </g>
</svg>