<?xml version="1.0" encoding="UTF-8"?>
<svg width="32px" height="32px" viewBox="0 0 32 32" version="1.1" xmlns="http://www.w3.org/2000/svg" xmlns:xlink="http://www.w3.org/1999/xlink">
    <!-- Generator: Sketch 50.2 (55047) - http://www.bohemiancoding.com/sketch -->
    <title>Artboard Copy 2</title>
    <desc>Created with Sketch.</desc>
    <defs></defs>
    <g id="Artboard-Copy-2" stroke="none" stroke-width="1" fill="none" fill-rule="evenodd">
        <path d="M21.4444444,8 L10.5555556,8 C9.7,8 9,8.7 9,9.55555556 L9,20.4444444 C9,21.3 9.7,22 10.5555556,22 L13.6666667,22 L16,24.3333333 L18.3333333,22 L21.4444444,22 C22.3,22 23,21.3 23,20.4444444 L23,9.55555556 C23,8.7 22.3,8 21.4444444,8 Z M16.7777778,20.4444444 L15.2222222,20.4444444 L15.2222222,18.8888889 L16.7777778,18.8888889 L16.7777778,20.4444444 Z M18.4111111,14.4555556 L17.7111111,15.1555556 C17.0888889,15.7 16.7777778,16.1666667 16.7777778,17.3333333 L15.2222222,17.3333333 L15.2222222,16.9444444 C15.2222222,16.0888889 15.5333333,15.3111111 16.1555556,14.7666667 L17.0888889,13.7555556 C17.4,13.5222222 17.5555556,13.1333333 17.5555556,12.6666667 C17.5555556,11.8111111 16.8555556,11.1111111 16,11.1111111 C15.1444444,11.1111111 14.4444444,11.8111111 14.4444444,12.6666667 L12.8888889,12.6666667 C12.8888889,10.9555556 14.2888889,9.55555556 16,9.55555556 C17.7111111,9.55555556 19.1111111,10.9555556 19.1111111,12.6666667 C19.1111111,13.3666667 18.8,13.9888889 18.4111111,14.4555556 Z" id="Shape" fill="#000000" fill-rule="nonzero"></path>
    </g>
</svg>