<?xml version="1.0" encoding="UTF-8"?>
<svg width="18px" height="15px" viewBox="0 0 18 15" version="1.1" xmlns="http://www.w3.org/2000/svg" xmlns:xlink="http://www.w3.org/1999/xlink">
    <!-- Generator: Sketch 39.1 (31720) - http://www.bohemiancoding.com/sketch -->
    <title>Shape</title>
    <desc>Created with Sketch.</desc>
    <defs></defs>
    <g id="Home_slicing" stroke="none" stroke-width="1" fill="none" fill-rule="evenodd">
        <g id="Artboard" transform="translate(-405.000000, -2476.000000)" fill="#FFFFFF">
            <g id="footer" transform="translate(-26.000000, 2196.000000)">
                <g id="tw" transform="translate(431.000000, 280.000000)">
                    <g id="footer">
                        <g id="Page-1">
                            <g id="Artboard">
                                <g id="Group-2">
                                    <g id="tw">
                                        <g id="Shape">
                                            <g id="Page-1">
                                                <g id="home-page">
                                                    <g id="footer">
                                                        <path d="M18,1.73139036 C17.3382863,2.0254963 16.6261497,2.22388085 15.8789359,2.31266097 C16.6418611,1.85597432 17.2268437,1.13258271 17.5027099,0.269627625 C16.7891118,0.693067441 15.9991476,1.00032617 15.1576641,1.16619468 C14.4842581,0.448648926 13.5243896,0 12.4622131,0 C10.4229952,0 8.76962415,1.6532055 8.76962415,3.69258486 C8.76962415,3.98157626 8.80214385,4.26326073 8.86535542,4.53398429 C5.79611505,4.37980697 3.07472162,2.91000703 1.25327343,0.675896056 C0.935387588,1.22099717 0.75342534,1.85524352 0.75342534,2.53260117 C0.75342534,3.81351587 1.40527351,4.94390619 2.39620013,5.60591918 C1.79112089,5.58655593 1.22148454,5.42032175 0.723463697,5.14375234 C0.72309856,5.15909699 0.72309856,5.1748073 0.72309856,5.1905171 C0.72309856,6.97926695 1.99610247,8.47135335 3.68564672,8.81112863 C3.37579913,8.89515878 3.04950991,8.94046193 2.71262386,8.94046193 C2.47439283,8.94046193 2.24310359,8.91744525 2.01766021,8.87396828 C2.4879118,10.3408456 3.85153144,11.4087619 5.46726777,11.4383552 C4.20339804,12.4288169 2.61141236,13.0192212 0.88094502,13.0192212 C0.583155846,13.0192212 0.289020133,13.0016847 0,12.9673419 C1.63473602,14.0155288 3.57566513,14.6263928 5.66092226,14.6263928 C12.4538093,14.6263928 16.167956,9.00001388 16.167956,4.12040894 C16.167956,3.96038627 16.1646672,3.80072822 16.1577249,3.64216664 C16.8789967,3.1226403 17.505268,2.47195336 18,1.73139036 L18,1.73139036 L18,1.73139036 L18,1.73139036 Z" id="Shape"></path>
                                                    </g>
                                                </g>
                                            </g>
                                        </g>
                                    </g>
                                </g>
                            </g>
                        </g>
                    </g>
                </g>
            </g>
        </g>
    </g>
</svg>