<?xml version="1.0" encoding="UTF-8"?>
<svg width="229px" height="229px" viewBox="0 0 229 229" version="1.1" xmlns="http://www.w3.org/2000/svg" xmlns:xlink="http://www.w3.org/1999/xlink">
    <!-- Generator: Sketch 46.2 (44496) - http://www.bohemiancoding.com/sketch -->
    <title>Group 6</title>
    <desc>Created with Sketch.</desc>
    <defs>
        <circle id="path-1" cx="112.43" cy="111.93" r="111.5"></circle>
        <filter x="-2.7%" y="-2.7%" width="105.4%" height="105.4%" filterUnits="objectBoundingBox" id="filter-3">
            <feMorphology radius="7" operator="erode" in="SourceAlpha" result="shadowSpreadInner1"></feMorphology>
            <feOffset dx="0" dy="0" in="shadowSpreadInner1" result="shadowOffsetInner1"></feOffset>
            <feComposite in="shadowOffsetInner1" in2="SourceAlpha" operator="arithmetic" k2="-1" k3="1" result="shadowInnerInner1"></feComposite>
            <feColorMatrix values="0 0 0 0 1   0 0 0 0 1   0 0 0 0 1  0 0 0 1 0" type="matrix" in="shadowInnerInner1"></feColorMatrix>
        </filter>
    </defs>
    <g id="imp-page-copy-2" stroke="none" stroke-width="1" fill="none" fill-rule="evenodd">
        <g id="Desktop-HD" transform="translate(-855.000000, -1204.000000)">
            <g id="Group-6" transform="translate(857.000000, 1207.000000)">
                <mask id="mask-2" fill="white">
                    <use xlink:href="#path-1"></use>
                </mask>
                <g id="Oval">
                    <use fill="#C28623" fill-rule="evenodd" xlink:href="#path-1"></use>
                    <use fill="black" fill-opacity="1" filter="url(#filter-3)" xlink:href="#path-1"></use>
                    <use stroke="#000000" stroke-width="5" xlink:href="#path-1"></use>
                </g>
                <path d="M113.43,0.929999842 L113.43,92.2809714 M148.503429,6.48508524 L120.274426,93.365022 M180.143626,22.606571 L126.448872,96.5110594 M205.253429,47.7163737 L131.34894,101.411128 M221.374914,79.356571 L134.494978,107.585574 M226.93,114.43 L135.579028,114.43 M221.374914,149.503429 L134.494978,121.274426 M205.253429,181.143626 L131.34894,127.448872 M180.143626,206.253429 L126.448872,132.34894 M148.503429,222.374914 L120.274426,135.494978 M113.43,227.93 L113.43,136.579028 M78.356571,222.374914 L106.585574,135.494978 M46.7163737,206.253429 L100.411128,132.34894 M21.606571,181.143626 L95.5110594,127.448872 M5.48508524,149.503429 L92.365022,121.274426 M-0.0700001576,114.43 L91.2809714,114.43 M5.48508524,79.356571 L92.365022,107.585574 M21.606571,47.7163737 L95.5110594,101.411128 M46.7163737,22.606571 L100.411128,96.5110594 M78.356571,6.48508524 L106.585574,93.365022" id="Line" stroke="#DFA126" stroke-linecap="square" mask="url(#mask-2)"></path>
                <path d="M113.43,0.929999842 L113.43,92.2809714 M148.503429,6.48508524 L120.274426,93.365022 M180.143626,22.606571 L126.448872,96.5110594 M205.253429,47.7163737 L131.34894,101.411128 M221.374914,79.356571 L134.494978,107.585574 M226.93,114.43 L135.579028,114.43 M221.374914,149.503429 L134.494978,121.274426 M205.253429,181.143626 L131.34894,127.448872 M180.143626,206.253429 L126.448872,132.34894 M148.503429,222.374914 L120.274426,135.494978 M113.43,227.93 L113.43,136.579028 M78.356571,222.374914 L106.585574,135.494978 M46.7163737,206.253429 L100.411128,132.34894 M21.606571,181.143626 L95.5110594,127.448872 M5.48508524,149.503429 L92.365022,121.274426 M-0.0700001576,114.43 L91.2809714,114.43 M5.48508524,79.356571 L92.365022,107.585574 M21.606571,47.7163737 L95.5110594,101.411128 M46.7163737,22.606571 L100.411128,96.5110594 M78.356571,6.48508524 L106.585574,93.365022" id="Line-Copy" stroke="#DFA126" stroke-linecap="square" mask="url(#mask-2)" transform="translate(113.430000, 114.430000) rotate(9.000000) translate(-113.430000, -114.430000) "></path>
            </g>
        </g>
    </g>
</svg>